<ttFont>
<head>
    <!-- Most of this table will be recalculated by the compiler -->
    <tableVersion value="1.0"/>
    <fontRevision value="2.201"/>
    <checkSumAdjustment value="0x4c92d8d0"/>
    <magicNumber value="0x5f0f3cf5"/>
    <flags value="00000000 00011011"/>
    <unitsPerEm value="1000"/>
    <created value="Sat Jan 23 04:20:09 2016"/>
    <modified value="Thu Mar 10 20:56:43 2016"/>
    <xMin value="-134"/>
    <yMin value="-279"/>
    <xMax value="1057"/>
    <yMax value="1070"/>
    <macStyle value="00000000 00000010"/>
    <lowestRecPPEM value="5"/>
    <fontDirectionHint value="2"/>
    <indexToLocFormat value="0"/>
    <glyphDataFormat value="0"/>
  </head>
    <TTGlyph name=".notdef" xMin="0" yMin="-200" xMax="500" yMax="800">
      <contour>
        <pt x="0" y="800" on="1"/>
        <pt x="500" y="800" on="1"/>
        <pt x="500" y="-200" on="1"/>
        <pt x="0" y="-200" on="1"/>
      </contour>
      <contour>
        <pt x="250" y="360" on="1"/>
        <pt x="429" y="750" on="1"/>
        <pt x="71" y="750" on="1"/>
      </contour>
      <contour>
        <pt x="222" y="300" on="1"/>
        <pt x="50" y="676" on="1"/>
        <pt x="50" y="-76" on="1"/>
      </contour>
      <contour>
        <pt x="278" y="300" on="1"/>
        <pt x="450" y="-76" on="1"/>
        <pt x="450" y="676" on="1"/>
      </contour>
      <contour>
        <pt x="71" y="-150" on="1"/>
        <pt x="429" y="-150" on="1"/>
        <pt x="250" y="240" on="1"/>
      </contour>
    </TTGlyph>
    <TTGlyph name="A" xMin="-22" yMin="-9" xMax="604" yMax="727">
      <contour>
        <pt x="397" y="135" on="1"/>
        <pt x="218" y="135" on="1"/>
        <pt x="166" y="0" on="1"/>
        <pt x="-22" y="0" on="1"/>
        <pt x="293" y="727" on="1"/>
        <pt x="507" y="727" on="1"/>
        <pt x="604" y="23" on="1"/>
        <pt x="411" y="-9" on="1"/>
      </contour>
      <contour>
        <pt x="273" y="284" on="1"/>
        <pt x="387" y="284" on="1"/>
        <pt x="364" y="521" on="1"/>
      </contour>
    </TTGlyph>
    <TTGlyph name="A.flat" xMin="-22" yMin="0" xMax="608" yMax="727">
      <contour>
        <pt x="397" y="135" on="1"/>
        <pt x="218" y="135" on="1"/>
        <pt x="166" y="0" on="1"/>
        <pt x="-22" y="0" on="1"/>
        <pt x="293" y="727" on="1"/>
        <pt x="507" y="727" on="1"/>
        <pt x="608" y="0" on="1"/>
        <pt x="410" y="0" on="1"/>
      </contour>
      <contour>
        <pt x="273" y="284" on="1"/>
        <pt x="387" y="284" on="1"/>
        <pt x="364" y="521" on="1"/>
      </contour>
    </TTGlyph>
    <TTGlyph name="AE" xMin="-36" yMin="0" xMax="888" yMax="725">
      <contour>
        <pt x="-36" y="0" on="1"/>
        <pt x="358" y="725" on="1"/>
        <pt x="888" y="725" on="1"/>
        <pt x="865" y="569" on="1"/>
        <pt x="646" y="569" on="1"/>
        <pt x="641" y="536" on="0"/>
        <pt x="637" y="510" on="1"/>
        <pt x="634" y="488" on="0"/>
        <pt x="628" y="452" on="0"/>
        <pt x="629" y="452" on="1"/>
        <pt x="786" y="452" on="1"/>
        <pt x="786" y="294" on="1"/>
        <pt x="605" y="294" on="1"/>
        <pt x="584" y="156" on="1"/>
        <pt x="812" y="156" on="1"/>
        <pt x="788" y="0" on="1"/>
        <pt x="370" y="0" on="1"/>
        <pt x="390" y="135" on="1"/>
        <pt x="223" y="135" on="1"/>
        <pt x="150" y="0" on="1"/>
      </contour>
      <contour>
        <pt x="413" y="284" on="1"/>
        <pt x="461" y="603" on="1"/>
        <pt x="298" y="284" on="1"/>
      </contour>
    </TTGlyph>
    <TTGlyph name="AE.flat" xMin="-36" yMin="0" xMax="888" yMax="725">
      <contour>
        <pt x="-36" y="0" on="1"/>
        <pt x="358" y="725" on="1"/>
        <pt x="888" y="725" on="1"/>
        <pt x="865" y="569" on="1"/>
        <pt x="646" y="569" on="1"/>
        <pt x="641" y="536" on="0"/>
        <pt x="637" y="510" on="1"/>
        <pt x="634" y="488" on="0"/>
        <pt x="628" y="452" on="0"/>
        <pt x="629" y="452" on="1"/>
        <pt x="797" y="452" on="1"/>
        <pt x="773" y="294" on="1"/>
        <pt x="605" y="294" on="1"/>
        <pt x="584" y="156" on="1"/>
        <pt x="812" y="156" on="1"/>
        <pt x="788" y="0" on="1"/>
        <pt x="370" y="0" on="1"/>
        <pt x="390" y="135" on="1"/>
        <pt x="223" y="135" on="1"/>
        <pt x="150" y="0" on="1"/>
      </contour>
      <contour>
        <pt x="413" y="284" on="1"/>
        <pt x="461" y="603" on="1"/>
        <pt x="298" y="284" on="1"/>
      </contour>
    </TTGlyph>
    <TTGlyph name="AEacute" xMin="-36" yMin="0" xMax="888" yMax="927">
      <component glyphName="acute.cap" x="365" y="201" flags="0x4"/>
      <component glyphName="AE" x="0" y="0" flags="0x4"/>
    </TTGlyph>
    <TTGlyph name="AEacute.flat" xMin="-36" yMin="0" xMax="888" yMax="927">
      <component glyphName="acute.cap" x="365" y="201" flags="0x4"/>
      <component glyphName="AE.flat" x="0" y="0" flags="0x4"/>
    </TTGlyph>
    <TTGlyph name="Aacute" xMin="-22" yMin="-9" xMax="613" yMax="936">
      <component glyphName="A" x="0" y="0" flags="0x204"/>
      <component glyphName="acute.cap" x="203" y="210" flags="0x4"/>
    </TTGlyph>
    <TTGlyph name="Aacute.flat" xMin="-22" yMin="0" xMax="613" yMax="936">
      <component glyphName="acute.cap" x="203" y="210" flags="0x4"/>
      <component glyphName="A.flat" x="0" y="0" flags="0x4"/>
    </TTGlyph>
    <TTGlyph name="Abreve" xMin="-22" yMin="-9" xMax="604" yMax="937">
      <component glyphName="A" x="0" y="0" flags="0x204"/>
      <component glyphName="breve.cap" x="150" y="210" flags="0x4"/>
    </TTGlyph>
    <TTGlyph name="Abreve.flat" xMin="-22" yMin="0" xMax="608" yMax="937">
      <component glyphName="breve.cap" x="150" y="210" flags="0x4"/>
      <component glyphName="A.flat" x="0" y="0" flags="0x4"/>
    </TTGlyph>
    <TTGlyph name="Acircumflex" xMin="-22" yMin="-9" xMax="604" yMax="933">
      <component glyphName="A" x="0" y="0" flags="0x204"/>
      <component glyphName="circumflex.cap" x="145" y="209" flags="0x4"/>
    </TTGlyph>
    <TTGlyph name="Acircumflex.flat" xMin="-22" yMin="0" xMax="608" yMax="933">
      <component glyphName="A.flat" x="0" y="0" flags="0x204"/>
      <component glyphName="circumflex.cap" x="145" y="209" flags="0x4"/>
    </TTGlyph>
    <TTGlyph name="Adieresis" xMin="-22" yMin="-9" xMax="604" yMax="922">
      <component glyphName="A" x="0" y="0" flags="0x204"/>
      <component glyphName="dieresis.cap" x="148" y="210" flags="0x4"/>
    </TTGlyph>
    <TTGlyph name="Adieresis.flat" xMin="-22" yMin="0" xMax="608" yMax="922">
      <component glyphName="dieresis.cap" x="148" y="210" flags="0x4"/>
      <component glyphName="A.flat" x="0" y="0" flags="0x4"/>
    </TTGlyph>
    <TTGlyph name="Agrave" xMin="-22" yMin="-9" xMax="604" yMax="936">
      <component glyphName="A" x="0" y="0" flags="0x204"/>
      <component glyphName="grave.cap" x="82" y="210" flags="0x4"/>
    </TTGlyph>
    <TTGlyph name="Agrave.flat" xMin="-22" yMin="0" xMax="608" yMax="936">
      <component glyphName="grave.cap" x="82" y="210" flags="0x4"/>
      <component glyphName="A.flat" x="0" y="0" flags="0x4"/>
    </TTGlyph>
    <TTGlyph name="Amacron" xMin="-22" yMin="-9" xMax="604" yMax="902">
      <component glyphName="A" x="0" y="0" flags="0x204"/>
      <component glyphName="macron.cap" x="148" y="210" flags="0x4"/>
    </TTGlyph>
    <TTGlyph name="Amacron.flat" xMin="-22" yMin="0" xMax="608" yMax="902">
      <component glyphName="macron.cap" x="148" y="210" flags="0x4"/>
      <component glyphName="A.flat" x="0" y="0" flags="0x4"/>
    </TTGlyph>
    <TTGlyph name="Aogonek" xMin="-22" yMin="-213" xMax="604" yMax="727">
      <contour>
        <pt x="528" y="10" on="1"/>
        <pt x="515" y="-7" on="1"/>
        <pt x="490" y="-41" on="0"/>
        <pt x="468" y="-78" on="0"/>
        <pt x="468" y="-92" on="1"/>
        <pt x="468" y="-120" on="0"/>
        <pt x="505" y="-120" on="1"/>
        <pt x="518" y="-120" on="0"/>
        <pt x="539" y="-117" on="0"/>
        <pt x="553" y="-114" on="1"/>
        <pt x="541" y="-194" on="1"/>
        <pt x="518" y="-202" on="0"/>
        <pt x="472" y="-213" on="0"/>
        <pt x="440" y="-213" on="1"/>
        <pt x="392" y="-213" on="0"/>
        <pt x="342" y="-171" on="0"/>
        <pt x="342" y="-133" on="1"/>
        <pt x="342" y="-83" on="0"/>
        <pt x="402" y="-18" on="1"/>
        <pt x="404" y="-16" on="0"/>
        <pt x="409" y="-10" on="0"/>
        <pt x="411" y="-8" on="1"/>
        <pt x="397" y="135" on="1"/>
        <pt x="218" y="135" on="1"/>
        <pt x="166" y="0" on="1"/>
        <pt x="-22" y="0" on="1"/>
        <pt x="293" y="727" on="1"/>
        <pt x="507" y="727" on="1"/>
        <pt x="604" y="23" on="1"/>
      </contour>
      <contour>
        <pt x="273" y="284" on="1"/>
        <pt x="387" y="284" on="1"/>
        <pt x="364" y="521" on="1"/>
      </contour>
    </TTGlyph>
    <TTGlyph name="Aogonek.flat" xMin="-22" yMin="-213" xMax="608" yMax="727">
      <contour>
        <pt x="333" y="-133" on="1"/>
        <pt x="333" y="-105" on="0"/>
        <pt x="367" y="-45" on="0"/>
        <pt x="400" y="-10" on="1"/>
        <pt x="407" y="-3" on="1"/>
        <pt x="410" y="0" on="1"/>
        <pt x="397" y="135" on="1"/>
        <pt x="218" y="135" on="1"/>
        <pt x="166" y="0" on="1"/>
        <pt x="-22" y="0" on="1"/>
        <pt x="293" y="727" on="1"/>
        <pt x="507" y="727" on="1"/>
        <pt x="608" y="0" on="1"/>
        <pt x="511" y="0" on="1"/>
        <pt x="506" y="-7" on="1"/>
        <pt x="481" y="-41" on="0"/>
        <pt x="459" y="-78" on="0"/>
        <pt x="459" y="-92" on="1"/>
        <pt x="459" y="-120" on="0"/>
        <pt x="496" y="-120" on="1"/>
        <pt x="509" y="-120" on="0"/>
        <pt x="530" y="-117" on="0"/>
        <pt x="544" y="-114" on="1"/>
        <pt x="532" y="-194" on="1"/>
        <pt x="509" y="-202" on="0"/>
        <pt x="463" y="-213" on="0"/>
        <pt x="431" y="-213" on="1"/>
        <pt x="383" y="-213" on="0"/>
        <pt x="333" y="-171" on="0"/>
      </contour>
      <contour>
        <pt x="273" y="284" on="1"/>
        <pt x="387" y="284" on="1"/>
        <pt x="364" y="521" on="1"/>
      </contour>
    </TTGlyph>
    <TTGlyph name="Aring" xMin="-22" yMin="-9" xMax="604" yMax="895">
      <contour>
        <pt x="397" y="135" on="1"/>
        <pt x="218" y="135" on="1"/>
        <pt x="166" y="0" on="1"/>
        <pt x="-22" y="0" on="1"/>
        <pt x="283" y="704" on="1"/>
        <pt x="258" y="734" on="0"/>
        <pt x="258" y="777" on="1"/>
        <pt x="258" y="830" on="0"/>
        <pt x="334" y="895" on="0"/>
        <pt x="402" y="895" on="1"/>
        <pt x="471" y="895" on="0"/>
        <pt x="547" y="830" on="0"/>
        <pt x="547" y="777" on="1"/>
        <pt x="547" y="725" on="0"/>
        <pt x="512" y="693" on="1"/>
        <pt x="604" y="23" on="1"/>
        <pt x="411" y="-9" on="1"/>
      </contour>
      <contour>
        <pt x="273" y="284" on="1"/>
        <pt x="387" y="284" on="1"/>
        <pt x="364" y="521" on="1"/>
      </contour>
      <contour>
        <pt x="402" y="721" on="1"/>
        <pt x="428" y="721" on="0"/>
        <pt x="452" y="751" on="0"/>
        <pt x="452" y="777" on="1"/>
        <pt x="452" y="802" on="0"/>
        <pt x="428" y="833" on="0"/>
        <pt x="402" y="833" on="1"/>
        <pt x="378" y="833" on="0"/>
        <pt x="352" y="802" on="0"/>
        <pt x="352" y="777" on="1"/>
        <pt x="352" y="751" on="0"/>
        <pt x="378" y="721" on="0"/>
      </contour>
    </TTGlyph>
    <TTGlyph name="Aring.flat" xMin="-22" yMin="0" xMax="608" yMax="895">
      <contour>
        <pt x="397" y="135" on="1"/>
        <pt x="218" y="135" on="1"/>
        <pt x="166" y="0" on="1"/>
        <pt x="-22" y="0" on="1"/>
        <pt x="283" y="704" on="1"/>
        <pt x="258" y="734" on="0"/>
        <pt x="258" y="777" on="1"/>
        <pt x="258" y="830" on="0"/>
        <pt x="334" y="895" on="0"/>
        <pt x="402" y="895" on="1"/>
        <pt x="471" y="895" on="0"/>
        <pt x="547" y="830" on="0"/>
        <pt x="547" y="777" on="1"/>
        <pt x="547" y="725" on="0"/>
        <pt x="512" y="693" on="1"/>
        <pt x="608" y="0" on="1"/>
        <pt x="410" y="0" on="1"/>
      </contour>
      <contour>
        <pt x="273" y="284" on="1"/>
        <pt x="387" y="284" on="1"/>
        <pt x="364" y="521" on="1"/>
      </contour>
      <contour>
        <pt x="402" y="721" on="1"/>
        <pt x="428" y="721" on="0"/>
        <pt x="452" y="751" on="0"/>
        <pt x="452" y="777" on="1"/>
        <pt x="452" y="802" on="0"/>
        <pt x="428" y="833" on="0"/>
        <pt x="402" y="833" on="1"/>
        <pt x="378" y="833" on="0"/>
        <pt x="352" y="802" on="0"/>
        <pt x="352" y="777" on="1"/>
        <pt x="352" y="751" on="0"/>
        <pt x="378" y="721" on="0"/>
      </contour>
    </TTGlyph>
    <TTGlyph name="Aringacute" xMin="-22" yMin="-9" xMax="630" yMax="1070">
      <contour>
        <pt x="397" y="135" on="1"/>
        <pt x="218" y="135" on="1"/>
        <pt x="166" y="0" on="1"/>
        <pt x="-22" y="0" on="1"/>
        <pt x="283" y="704" on="1"/>
        <pt x="258" y="734" on="0"/>
        <pt x="258" y="777" on="1"/>
        <pt x="258" y="830" on="0"/>
        <pt x="334" y="895" on="0"/>
        <pt x="402" y="895" on="1"/>
        <pt x="471" y="895" on="0"/>
        <pt x="547" y="830" on="0"/>
        <pt x="547" y="777" on="1"/>
        <pt x="547" y="725" on="0"/>
        <pt x="512" y="693" on="1"/>
        <pt x="604" y="23" on="1"/>
        <pt x="411" y="-9" on="1"/>
      </contour>
      <contour>
        <pt x="273" y="284" on="1"/>
        <pt x="387" y="284" on="1"/>
        <pt x="364" y="521" on="1"/>
      </contour>
      <contour>
        <pt x="402" y="721" on="1"/>
        <pt x="428" y="721" on="0"/>
        <pt x="452" y="751" on="0"/>
        <pt x="452" y="777" on="1"/>
        <pt x="452" y="802" on="0"/>
        <pt x="428" y="833" on="0"/>
        <pt x="402" y="833" on="1"/>
        <pt x="378" y="833" on="0"/>
        <pt x="352" y="802" on="0"/>
        <pt x="352" y="777" on="1"/>
        <pt x="352" y="751" on="0"/>
        <pt x="378" y="721" on="0"/>
      </contour>
      <contour>
        <pt x="467" y="911" on="1"/>
        <pt x="363" y="911" on="1"/>
        <pt x="437" y="1070" on="1"/>
        <pt x="630" y="1036" on="1"/>
      </contour>
    </TTGlyph>
    <TTGlyph name="Aringacute.flat" xMin="-22" yMin="0" xMax="639" yMax="1070">
      <contour>
        <pt x="397" y="135" on="1"/>
        <pt x="218" y="135" on="1"/>
        <pt x="166" y="0" on="1"/>
        <pt x="-22" y="0" on="1"/>
        <pt x="283" y="704" on="1"/>
        <pt x="258" y="734" on="0"/>
        <pt x="258" y="777" on="1"/>
        <pt x="258" y="830" on="0"/>
        <pt x="334" y="895" on="0"/>
        <pt x="402" y="895" on="1"/>
        <pt x="471" y="895" on="0"/>
        <pt x="547" y="830" on="0"/>
        <pt x="547" y="777" on="1"/>
        <pt x="547" y="725" on="0"/>
        <pt x="512" y="693" on="1"/>
        <pt x="608" y="0" on="1"/>
        <pt x="410" y="0" on="1"/>
      </contour>
      <contour>
        <pt x="273" y="284" on="1"/>
        <pt x="387" y="284" on="1"/>
        <pt x="364" y="521" on="1"/>
      </contour>
      <contour>
        <pt x="402" y="721" on="1"/>
        <pt x="428" y="721" on="0"/>
        <pt x="452" y="751" on="0"/>
        <pt x="452" y="777" on="1"/>
        <pt x="452" y="802" on="0"/>
        <pt x="428" y="833" on="0"/>
        <pt x="402" y="833" on="1"/>
        <pt x="378" y="833" on="0"/>
        <pt x="352" y="802" on="0"/>
        <pt x="352" y="777" on="1"/>
        <pt x="352" y="751" on="0"/>
        <pt x="378" y="721" on="0"/>
      </contour>
      <contour>
        <pt x="476" y="911" on="1"/>
        <pt x="372" y="911" on="1"/>
        <pt x="446" y="1070" on="1"/>
        <pt x="639" y="1036" on="1"/>
      </contour>
    </TTGlyph>
    <TTGlyph name="Atilde" xMin="-22" yMin="-9" xMax="604" yMax="947">
      <component glyphName="A" x="0" y="0" flags="0x204"/>
      <component glyphName="tilde.cap" x="149" y="210" flags="0x4"/>
    </TTGlyph>
    <TTGlyph name="Atilde.flat" xMin="-22" yMin="0" xMax="608" yMax="947">
      <component glyphName="tilde.cap" x="149" y="210" flags="0x4"/>
      <component glyphName="A.flat" x="0" y="0" flags="0x4"/>
    </TTGlyph>
    <TTGlyph name="B" xMin="20" yMin="0" xMax="582" yMax="725">
      <contour>
        <pt x="582" y="554" on="1"/>
        <pt x="582" y="519" on="0"/>
        <pt x="561" y="465" on="0"/>
        <pt x="525" y="423" on="0"/>
        <pt x="480" y="392" on="0"/>
        <pt x="456" y="382" on="1"/>
        <pt x="499" y="361" on="0"/>
        <pt x="555" y="283" on="0"/>
        <pt x="555" y="226" on="1"/>
        <pt x="555" y="173" on="0"/>
        <pt x="515" y="89" on="0"/>
        <pt x="440" y="31" on="0"/>
        <pt x="332" y="0" on="0"/>
        <pt x="264" y="0" on="1"/>
        <pt x="20" y="0" on="1"/>
        <pt x="128" y="725" on="1"/>
        <pt x="341" y="725" on="1"/>
        <pt x="463" y="725" on="0"/>
        <pt x="582" y="630" on="0"/>
      </contour>
      <contour>
        <pt x="398" y="526" on="1"/>
        <pt x="398" y="593" on="0"/>
        <pt x="318" y="593" on="1"/>
        <pt x="293" y="593" on="1"/>
        <pt x="270" y="433" on="1"/>
        <pt x="303" y="433" on="1"/>
        <pt x="344" y="433" on="0"/>
        <pt x="398" y="483" on="0"/>
      </contour>
      <contour>
        <pt x="368" y="230" on="1"/>
        <pt x="368" y="272" on="0"/>
        <pt x="320" y="310" on="0"/>
        <pt x="276" y="310" on="1"/>
        <pt x="251" y="310" on="1"/>
        <pt x="237" y="220" on="1"/>
        <pt x="234" y="203" on="0"/>
        <pt x="229" y="171" on="0"/>
        <pt x="226" y="146" on="0"/>
        <pt x="224" y="131" on="0"/>
        <pt x="224" y="131" on="1"/>
        <pt x="260" y="131" on="1"/>
        <pt x="307" y="131" on="0"/>
        <pt x="368" y="184" on="0"/>
      </contour>
    </TTGlyph>
    <TTGlyph name="C" xMin="45" yMin="-12" xMax="580" yMax="736">
      <contour>
        <pt x="534" y="526" on="1"/>
        <pt x="507" y="546" on="0"/>
        <pt x="450" y="570" on="0"/>
        <pt x="419" y="570" on="1"/>
        <pt x="378" y="570" on="0"/>
        <pt x="313" y="528" on="0"/>
        <pt x="268" y="456" on="0"/>
        <pt x="243" y="360" on="0"/>
        <pt x="243" y="307" on="1"/>
        <pt x="243" y="229" on="0"/>
        <pt x="305" y="153" on="0"/>
        <pt x="360" y="153" on="1"/>
        <pt x="391" y="153" on="0"/>
        <pt x="454" y="173" on="0"/>
        <pt x="489" y="193" on="1"/>
        <pt x="490" y="28" on="1"/>
        <pt x="456" y="10" on="0"/>
        <pt x="370" y="-12" on="0"/>
        <pt x="319" y="-12" on="1"/>
        <pt x="256" y="-12" on="0"/>
        <pt x="155" y="27" on="0"/>
        <pt x="84" y="104" on="0"/>
        <pt x="45" y="216" on="0"/>
        <pt x="45" y="289" on="1"/>
        <pt x="45" y="385" on="0"/>
        <pt x="97" y="549" on="0"/>
        <pt x="192" y="668" on="0"/>
        <pt x="324" y="736" on="0"/>
        <pt x="404" y="736" on="1"/>
        <pt x="456" y="736" on="0"/>
        <pt x="542" y="711" on="0"/>
        <pt x="580" y="690" on="1"/>
      </contour>
    </TTGlyph>
    <TTGlyph name="Cacute" xMin="45" yMin="-12" xMax="621" yMax="936">
      <component glyphName="C" x="0" y="0" flags="0x204"/>
      <component glyphName="acute.cap" x="211" y="210" flags="0x4"/>
    </TTGlyph>
    <TTGlyph name="Ccaron" xMin="45" yMin="-12" xMax="605" yMax="934">
      <component glyphName="C" x="0" y="0" flags="0x204"/>
      <component glyphName="caron.cap" x="156" y="210" flags="0x4"/>
    </TTGlyph>
    <TTGlyph name="Ccedilla" xMin="45" yMin="-194" xMax="580" yMax="736">
      <component glyphName="C" x="0" y="0" flags="0x204"/>
      <component glyphName="cedilla.cap" x="78" y="-8" flags="0x4"/>
    </TTGlyph>
    <TTGlyph name="Cdotaccent" xMin="45" yMin="-12" xMax="580" yMax="922">
      <component glyphName="dotaccent.cap" x="157" y="210" flags="0x4"/>
      <component glyphName="C" x="0" y="0" flags="0x4"/>
    </TTGlyph>
    <TTGlyph name="D" xMin="20" yMin="0" xMax="638" yMax="725">
      <contour>
        <pt x="638" y="429" on="1"/>
        <pt x="638" y="331" on="0"/>
        <pt x="582" y="169" on="0"/>
        <pt x="523" y="110" on="1"/>
        <pt x="468" y="55" on="0"/>
        <pt x="313" y="0" on="0"/>
        <pt x="204" y="0" on="1"/>
        <pt x="20" y="0" on="1"/>
        <pt x="128" y="725" on="1"/>
        <pt x="311" y="725" on="1"/>
        <pt x="470" y="725" on="0"/>
        <pt x="638" y="577" on="0"/>
      </contour>
      <contour>
        <pt x="442" y="430" on="1"/>
        <pt x="442" y="510" on="0"/>
        <pt x="377" y="577" on="0"/>
        <pt x="315" y="577" on="1"/>
        <pt x="299" y="577" on="1"/>
        <pt x="235" y="149" on="1"/>
        <pt x="245" y="149" on="1"/>
        <pt x="286" y="149" on="0"/>
        <pt x="348" y="177" on="0"/>
        <pt x="370" y="199" on="1"/>
        <pt x="388" y="217" on="0"/>
        <pt x="415" y="271" on="0"/>
        <pt x="433" y="333" on="0"/>
        <pt x="442" y="399" on="0"/>
      </contour>
    </TTGlyph>
    <TTGlyph name="Dcaron" xMin="20" yMin="0" xMax="638" yMax="925">
      <component glyphName="caron.cap" x="117" y="201" flags="0x4"/>
      <component glyphName="D" x="0" y="0" flags="0x4"/>
    </TTGlyph>
    <TTGlyph name="Dcroat" xMin="36" yMin="0" xMax="666" yMax="725">
      <component glyphName="Eth" x="0" y="0" flags="0x204"/>
    </TTGlyph>
    <TTGlyph name="Dcroat.flat" xMin="21" yMin="0" xMax="666" yMax="725">
      <component glyphName="Eth.flat" x="0" y="0" flags="0x204"/>
    </TTGlyph>
    <TTGlyph name="E" xMin="20" yMin="0" xMax="543" yMax="725">
      <contour>
        <pt x="521" y="569" on="1"/>
        <pt x="295" y="569" on="1"/>
        <pt x="278" y="452" on="1"/>
        <pt x="442" y="452" on="1"/>
        <pt x="442" y="294" on="1"/>
        <pt x="253" y="294" on="1"/>
        <pt x="233" y="156" on="1"/>
        <pt x="467" y="156" on="1"/>
        <pt x="444" y="0" on="1"/>
        <pt x="20" y="0" on="1"/>
        <pt x="128" y="725" on="1"/>
        <pt x="543" y="725" on="1"/>
      </contour>
    </TTGlyph>
    <TTGlyph name="E.flat" xMin="20" yMin="0" xMax="543" yMax="725">
      <contour>
        <pt x="521" y="569" on="1"/>
        <pt x="295" y="569" on="1"/>
        <pt x="278" y="452" on="1"/>
        <pt x="454" y="452" on="1"/>
        <pt x="430" y="294" on="1"/>
        <pt x="253" y="294" on="1"/>
        <pt x="233" y="156" on="1"/>
        <pt x="467" y="156" on="1"/>
        <pt x="444" y="0" on="1"/>
        <pt x="20" y="0" on="1"/>
        <pt x="128" y="725" on="1"/>
        <pt x="543" y="725" on="1"/>
      </contour>
    </TTGlyph>
    <TTGlyph name="Eacute" xMin="20" yMin="0" xMax="550" yMax="927">
      <component glyphName="acute.cap" x="140" y="201" flags="0x4"/>
      <component glyphName="E" x="0" y="0" flags="0x4"/>
    </TTGlyph>
    <TTGlyph name="Eacute.flat" xMin="20" yMin="0" xMax="550" yMax="927">
      <component glyphName="E.flat" x="0" y="0" flags="0x204"/>
      <component glyphName="acute.cap" x="140" y="201" flags="0x4"/>
    </TTGlyph>
    <TTGlyph name="Ebreve" xMin="20" yMin="0" xMax="543" yMax="928">
      <component glyphName="breve.cap" x="87" y="201" flags="0x4"/>
      <component glyphName="E" x="0" y="0" flags="0x4"/>
    </TTGlyph>
    <TTGlyph name="Ebreve.flat" xMin="20" yMin="0" xMax="543" yMax="928">
      <component glyphName="breve.cap" x="87" y="201" flags="0x4"/>
      <component glyphName="E.flat" x="0" y="0" flags="0x4"/>
    </TTGlyph>
    <TTGlyph name="Ecaron" xMin="20" yMin="0" xMax="543" yMax="925">
      <component glyphName="caron.cap" x="85" y="201" flags="0x4"/>
      <component glyphName="E" x="0" y="0" flags="0x4"/>
    </TTGlyph>
    <TTGlyph name="Ecaron.flat" xMin="20" yMin="0" xMax="543" yMax="925">
      <component glyphName="E.flat" x="0" y="0" flags="0x204"/>
      <component glyphName="caron.cap" x="85" y="201" flags="0x4"/>
    </TTGlyph>
    <TTGlyph name="Ecircumflex" xMin="20" yMin="0" xMax="543" yMax="925">
      <component glyphName="E" x="0" y="0" flags="0x204"/>
      <component glyphName="circumflex.cap" x="82" y="201" flags="0x4"/>
    </TTGlyph>
    <TTGlyph name="Ecircumflex.flat" xMin="20" yMin="0" xMax="543" yMax="925">
      <component glyphName="E.flat" x="0" y="0" flags="0x204"/>
      <component glyphName="circumflex.cap" x="82" y="201" flags="0x4"/>
    </TTGlyph>
    <TTGlyph name="Edieresis" xMin="20" yMin="0" xMax="543" yMax="913">
      <component glyphName="dieresis.cap" x="84" y="201" flags="0x4"/>
      <component glyphName="E" x="0" y="0" flags="0x4"/>
    </TTGlyph>
    <TTGlyph name="Edieresis.flat" xMin="20" yMin="0" xMax="543" yMax="913">
      <component glyphName="E.flat" x="0" y="0" flags="0x204"/>
      <component glyphName="dieresis.cap" x="84" y="201" flags="0x4"/>
    </TTGlyph>
    <TTGlyph name="Edotaccent" xMin="20" yMin="0" xMax="543" yMax="913">
      <component glyphName="dotaccent.cap" x="85" y="201" flags="0x4"/>
      <component glyphName="E" x="0" y="0" flags="0x4"/>
    </TTGlyph>
    <TTGlyph name="Edotaccent.flat" xMin="20" yMin="0" xMax="543" yMax="913">
      <component glyphName="dotaccent.cap" x="85" y="201" flags="0x4"/>
      <component glyphName="E.flat" x="0" y="0" flags="0x4"/>
    </TTGlyph>
    <TTGlyph name="Egrave" xMin="20" yMin="0" xMax="543" yMax="927">
      <component glyphName="grave.cap" x="19" y="201" flags="0x4"/>
      <component glyphName="E" x="0" y="0" flags="0x4"/>
    </TTGlyph>
    <TTGlyph name="Egrave.flat" xMin="20" yMin="0" xMax="543" yMax="927">
      <component glyphName="grave.cap" x="19" y="201" flags="0x4"/>
      <component glyphName="E.flat" x="0" y="0" flags="0x4"/>
    </TTGlyph>
    <TTGlyph name="Emacron" xMin="20" yMin="0" xMax="543" yMax="893">
      <component glyphName="macron.cap" x="84" y="201" flags="0x4"/>
      <component glyphName="E" x="0" y="0" flags="0x4"/>
    </TTGlyph>
    <TTGlyph name="Emacron.flat" xMin="20" yMin="0" xMax="543" yMax="893">
      <component glyphName="E.flat" x="0" y="0" flags="0x204"/>
      <component glyphName="macron.cap" x="84" y="201" flags="0x4"/>
    </TTGlyph>
    <TTGlyph name="Eogonek" xMin="20" yMin="-213" xMax="543" yMax="725">
      <contour>
        <pt x="521" y="569" on="1"/>
        <pt x="295" y="569" on="1"/>
        <pt x="278" y="452" on="1"/>
        <pt x="442" y="452" on="1"/>
        <pt x="442" y="294" on="1"/>
        <pt x="253" y="294" on="1"/>
        <pt x="233" y="156" on="1"/>
        <pt x="467" y="156" on="1"/>
        <pt x="444" y="0" on="1"/>
        <pt x="401" y="0" on="1"/>
        <pt x="396" y="-7" on="1"/>
        <pt x="371" y="-41" on="0"/>
        <pt x="349" y="-78" on="0"/>
        <pt x="349" y="-92" on="1"/>
        <pt x="349" y="-120" on="0"/>
        <pt x="386" y="-120" on="1"/>
        <pt x="399" y="-120" on="0"/>
        <pt x="420" y="-117" on="0"/>
        <pt x="434" y="-114" on="1"/>
        <pt x="422" y="-194" on="1"/>
        <pt x="399" y="-202" on="0"/>
        <pt x="353" y="-213" on="0"/>
        <pt x="321" y="-213" on="1"/>
        <pt x="273" y="-213" on="0"/>
        <pt x="223" y="-171" on="0"/>
        <pt x="223" y="-133" on="1"/>
        <pt x="223" y="-105" on="0"/>
        <pt x="256" y="-46" on="0"/>
        <pt x="289" y="-11" on="1"/>
        <pt x="292" y="-9" on="0"/>
        <pt x="297" y="-3" on="0"/>
        <pt x="300" y="0" on="1"/>
        <pt x="20" y="0" on="1"/>
        <pt x="128" y="725" on="1"/>
        <pt x="543" y="725" on="1"/>
      </contour>
    </TTGlyph>
    <TTGlyph name="Eogonek.flat" xMin="20" yMin="-213" xMax="543" yMax="725">
      <contour>
        <pt x="521" y="569" on="1"/>
        <pt x="295" y="569" on="1"/>
        <pt x="278" y="452" on="1"/>
        <pt x="454" y="452" on="1"/>
        <pt x="430" y="294" on="1"/>
        <pt x="253" y="294" on="1"/>
        <pt x="233" y="156" on="1"/>
        <pt x="467" y="156" on="1"/>
        <pt x="444" y="0" on="1"/>
        <pt x="401" y="0" on="1"/>
        <pt x="396" y="-7" on="1"/>
        <pt x="371" y="-41" on="0"/>
        <pt x="349" y="-78" on="0"/>
        <pt x="349" y="-92" on="1"/>
        <pt x="349" y="-120" on="0"/>
        <pt x="386" y="-120" on="1"/>
        <pt x="399" y="-120" on="0"/>
        <pt x="420" y="-117" on="0"/>
        <pt x="434" y="-114" on="1"/>
        <pt x="422" y="-194" on="1"/>
        <pt x="399" y="-202" on="0"/>
        <pt x="353" y="-213" on="0"/>
        <pt x="321" y="-213" on="1"/>
        <pt x="273" y="-213" on="0"/>
        <pt x="223" y="-171" on="0"/>
        <pt x="223" y="-133" on="1"/>
        <pt x="223" y="-105" on="0"/>
        <pt x="257" y="-45" on="0"/>
        <pt x="290" y="-10" on="1"/>
        <pt x="300" y="0" on="1"/>
        <pt x="20" y="0" on="1"/>
        <pt x="128" y="725" on="1"/>
        <pt x="543" y="725" on="1"/>
      </contour>
    </TTGlyph>
    <TTGlyph name="Eth" xMin="36" yMin="0" xMax="666" yMax="725">
      <contour>
        <pt x="666" y="429" on="1"/>
        <pt x="666" y="331" on="0"/>
        <pt x="610" y="169" on="0"/>
        <pt x="551" y="110" on="1"/>
        <pt x="497" y="55" on="0"/>
        <pt x="341" y="0" on="0"/>
        <pt x="232" y="0" on="1"/>
        <pt x="47" y="0" on="1"/>
        <pt x="90" y="288" on="1"/>
        <pt x="36" y="288" on="1"/>
        <pt x="36" y="451" on="1"/>
        <pt x="115" y="451" on="1"/>
        <pt x="156" y="725" on="1"/>
        <pt x="340" y="725" on="1"/>
        <pt x="498" y="725" on="0"/>
        <pt x="666" y="577" on="0"/>
      </contour>
      <contour>
        <pt x="283" y="292" on="1"/>
        <pt x="261" y="149" on="1"/>
        <pt x="272" y="149" on="1"/>
        <pt x="314" y="149" on="0"/>
        <pt x="375" y="177" on="0"/>
        <pt x="397" y="199" on="1"/>
        <pt x="415" y="217" on="0"/>
        <pt x="443" y="271" on="0"/>
        <pt x="461" y="333" on="0"/>
        <pt x="470" y="399" on="0"/>
        <pt x="470" y="430" on="1"/>
        <pt x="470" y="510" on="0"/>
        <pt x="404" y="577" on="0"/>
        <pt x="343" y="577" on="1"/>
        <pt x="326" y="577" on="1"/>
        <pt x="306" y="447" on="1"/>
        <pt x="387" y="447" on="1"/>
        <pt x="363" y="292" on="1"/>
      </contour>
    </TTGlyph>
    <TTGlyph name="Eth.flat" xMin="21" yMin="0" xMax="666" yMax="725">
      <contour>
        <pt x="666" y="429" on="1"/>
        <pt x="666" y="331" on="0"/>
        <pt x="610" y="169" on="0"/>
        <pt x="551" y="110" on="1"/>
        <pt x="497" y="55" on="0"/>
        <pt x="341" y="0" on="0"/>
        <pt x="232" y="0" on="1"/>
        <pt x="47" y="0" on="1"/>
        <pt x="90" y="288" on="1"/>
        <pt x="21" y="288" on="1"/>
        <pt x="46" y="451" on="1"/>
        <pt x="115" y="451" on="1"/>
        <pt x="156" y="725" on="1"/>
        <pt x="340" y="725" on="1"/>
        <pt x="498" y="725" on="0"/>
        <pt x="666" y="577" on="0"/>
      </contour>
      <contour>
        <pt x="283" y="292" on="1"/>
        <pt x="261" y="149" on="1"/>
        <pt x="272" y="149" on="1"/>
        <pt x="314" y="149" on="0"/>
        <pt x="375" y="177" on="0"/>
        <pt x="397" y="199" on="1"/>
        <pt x="415" y="217" on="0"/>
        <pt x="443" y="271" on="0"/>
        <pt x="461" y="333" on="0"/>
        <pt x="470" y="399" on="0"/>
        <pt x="470" y="430" on="1"/>
        <pt x="470" y="510" on="0"/>
        <pt x="404" y="577" on="0"/>
        <pt x="343" y="577" on="1"/>
        <pt x="326" y="577" on="1"/>
        <pt x="306" y="447" on="1"/>
        <pt x="387" y="447" on="1"/>
        <pt x="363" y="292" on="1"/>
      </contour>
    </TTGlyph>
    <TTGlyph name="Euro" xMin="29" yMin="-13" xMax="633" yMax="731">
      <contour>
        <pt x="478" y="244" on="1"/>
        <pt x="293" y="244" on="1"/>
        <pt x="302" y="190" on="0"/>
        <pt x="361" y="135" on="0"/>
        <pt x="417" y="135" on="1"/>
        <pt x="450" y="135" on="0"/>
        <pt x="513" y="154" on="0"/>
        <pt x="543" y="169" on="1"/>
        <pt x="543" y="24" on="1"/>
        <pt x="514" y="9" on="0"/>
        <pt x="433" y="-13" on="0"/>
        <pt x="387" y="-13" on="1"/>
        <pt x="257" y="-13" on="0"/>
        <pt x="121" y="120" on="0"/>
        <pt x="109" y="244" on="1"/>
        <pt x="29" y="244" on="1"/>
        <pt x="29" y="325" on="1"/>
        <pt x="106" y="325" on="1"/>
        <pt x="107" y="345" on="0"/>
        <pt x="111" y="383" on="0"/>
        <pt x="114" y="402" on="1"/>
        <pt x="45" y="402" on="1"/>
        <pt x="58" y="484" on="1"/>
        <pt x="135" y="484" on="1"/>
        <pt x="153" y="538" on="0"/>
        <pt x="211" y="628" on="0"/>
        <pt x="291" y="694" on="0"/>
        <pt x="393" y="731" on="0"/>
        <pt x="454" y="731" on="1"/>
        <pt x="511" y="731" on="0"/>
        <pt x="598" y="705" on="0"/>
        <pt x="633" y="682" on="1"/>
        <pt x="587" y="537" on="1"/>
        <pt x="554" y="558" on="0"/>
        <pt x="495" y="582" on="0"/>
        <pt x="461" y="582" on="1"/>
        <pt x="412" y="582" on="0"/>
        <pt x="342" y="531" on="0"/>
        <pt x="320" y="484" on="1"/>
        <pt x="507" y="484" on="1"/>
        <pt x="507" y="402" on="1"/>
        <pt x="296" y="402" on="1"/>
        <pt x="293" y="384" on="0"/>
        <pt x="289" y="346" on="0"/>
        <pt x="288" y="325" on="1"/>
        <pt x="490" y="325" on="1"/>
      </contour>
    </TTGlyph>
    <TTGlyph name="Euro.flat" xMin="23" yMin="-13" xMax="633" yMax="731">
      <contour>
        <pt x="478" y="244" on="1"/>
        <pt x="293" y="244" on="1"/>
        <pt x="302" y="190" on="0"/>
        <pt x="361" y="135" on="0"/>
        <pt x="417" y="135" on="1"/>
        <pt x="450" y="135" on="0"/>
        <pt x="513" y="154" on="0"/>
        <pt x="543" y="169" on="1"/>
        <pt x="543" y="24" on="1"/>
        <pt x="514" y="9" on="0"/>
        <pt x="433" y="-13" on="0"/>
        <pt x="387" y="-13" on="1"/>
        <pt x="257" y="-13" on="0"/>
        <pt x="121" y="120" on="0"/>
        <pt x="109" y="244" on="1"/>
        <pt x="23" y="244" on="1"/>
        <pt x="35" y="325" on="1"/>
        <pt x="106" y="325" on="1"/>
        <pt x="107" y="345" on="0"/>
        <pt x="111" y="383" on="0"/>
        <pt x="114" y="402" on="1"/>
        <pt x="45" y="402" on="1"/>
        <pt x="58" y="484" on="1"/>
        <pt x="135" y="484" on="1"/>
        <pt x="153" y="538" on="0"/>
        <pt x="211" y="628" on="0"/>
        <pt x="291" y="694" on="0"/>
        <pt x="393" y="731" on="0"/>
        <pt x="454" y="731" on="1"/>
        <pt x="511" y="731" on="0"/>
        <pt x="598" y="705" on="0"/>
        <pt x="633" y="682" on="1"/>
        <pt x="587" y="537" on="1"/>
        <pt x="554" y="558" on="0"/>
        <pt x="495" y="582" on="0"/>
        <pt x="461" y="582" on="1"/>
        <pt x="412" y="582" on="0"/>
        <pt x="342" y="531" on="0"/>
        <pt x="320" y="484" on="1"/>
        <pt x="513" y="484" on="1"/>
        <pt x="501" y="402" on="1"/>
        <pt x="296" y="402" on="1"/>
        <pt x="293" y="384" on="0"/>
        <pt x="289" y="346" on="0"/>
        <pt x="288" y="325" on="1"/>
        <pt x="490" y="325" on="1"/>
      </contour>
    </TTGlyph>
    <TTGlyph name="Euro.tab" xMin="34" yMin="-10" xMax="561" yMax="731">
      <contour>
        <pt x="264" y="402" on="1"/>
        <pt x="258" y="366" on="0"/>
        <pt x="255" y="327" on="1"/>
        <pt x="432" y="327" on="1"/>
        <pt x="418" y="245" on="1"/>
        <pt x="254" y="245" on="1"/>
        <pt x="259" y="176" on="0"/>
        <pt x="317" y="127" on="0"/>
        <pt x="362" y="127" on="1"/>
        <pt x="391" y="127" on="0"/>
        <pt x="445" y="145" on="0"/>
        <pt x="471" y="159" on="1"/>
        <pt x="471" y="25" on="1"/>
        <pt x="443" y="11" on="0"/>
        <pt x="373" y="-10" on="0"/>
        <pt x="333" y="-10" on="1"/>
        <pt x="226" y="-10" on="0"/>
        <pt x="103" y="113" on="0"/>
        <pt x="97" y="245" on="1"/>
        <pt x="34" y="245" on="1"/>
        <pt x="34" y="327" on="1"/>
        <pt x="98" y="327" on="1"/>
        <pt x="101" y="366" on="0"/>
        <pt x="107" y="402" on="1"/>
        <pt x="52" y="402" on="1"/>
        <pt x="65" y="483" on="1"/>
        <pt x="126" y="483" on="1"/>
        <pt x="143" y="537" on="0"/>
        <pt x="196" y="628" on="0"/>
        <pt x="265" y="694" on="0"/>
        <pt x="352" y="731" on="0"/>
        <pt x="403" y="731" on="1"/>
        <pt x="451" y="731" on="0"/>
        <pt x="527" y="707" on="0"/>
        <pt x="561" y="687" on="1"/>
        <pt x="514" y="552" on="1"/>
        <pt x="487" y="572" on="0"/>
        <pt x="435" y="594" on="0"/>
        <pt x="408" y="594" on="1"/>
        <pt x="366" y="594" on="0"/>
        <pt x="306" y="534" on="0"/>
        <pt x="286" y="483" on="1"/>
        <pt x="451" y="483" on="1"/>
        <pt x="451" y="402" on="1"/>
      </contour>
    </TTGlyph>
    <TTGlyph name="Euro.tab_flat" xMin="28" yMin="-10" xMax="561" yMax="731">
      <contour>
        <pt x="264" y="402" on="1"/>
        <pt x="258" y="366" on="0"/>
        <pt x="255" y="327" on="1"/>
        <pt x="432" y="327" on="1"/>
        <pt x="418" y="245" on="1"/>
        <pt x="254" y="245" on="1"/>
        <pt x="259" y="176" on="0"/>
        <pt x="317" y="127" on="0"/>
        <pt x="362" y="127" on="1"/>
        <pt x="391" y="127" on="0"/>
        <pt x="445" y="145" on="0"/>
        <pt x="471" y="159" on="1"/>
        <pt x="471" y="25" on="1"/>
        <pt x="443" y="11" on="0"/>
        <pt x="373" y="-10" on="0"/>
        <pt x="333" y="-10" on="1"/>
        <pt x="226" y="-10" on="0"/>
        <pt x="103" y="113" on="0"/>
        <pt x="97" y="245" on="1"/>
        <pt x="28" y="245" on="1"/>
        <pt x="39" y="327" on="1"/>
        <pt x="98" y="327" on="1"/>
        <pt x="101" y="366" on="0"/>
        <pt x="107" y="402" on="1"/>
        <pt x="52" y="402" on="1"/>
        <pt x="65" y="483" on="1"/>
        <pt x="126" y="483" on="1"/>
        <pt x="143" y="537" on="0"/>
        <pt x="196" y="628" on="0"/>
        <pt x="265" y="694" on="0"/>
        <pt x="352" y="731" on="0"/>
        <pt x="403" y="731" on="1"/>
        <pt x="451" y="731" on="0"/>
        <pt x="527" y="707" on="0"/>
        <pt x="561" y="687" on="1"/>
        <pt x="514" y="552" on="1"/>
        <pt x="487" y="572" on="0"/>
        <pt x="435" y="594" on="0"/>
        <pt x="408" y="594" on="1"/>
        <pt x="366" y="594" on="0"/>
        <pt x="306" y="534" on="0"/>
        <pt x="286" y="483" on="1"/>
        <pt x="456" y="483" on="1"/>
        <pt x="445" y="402" on="1"/>
      </contour>
    </TTGlyph>
    <TTGlyph name="F" xMin="20" yMin="0" xMax="533" yMax="725">
      <contour>
        <pt x="509" y="561" on="1"/>
        <pt x="296" y="561" on="1"/>
        <pt x="276" y="430" on="1"/>
        <pt x="427" y="430" on="1"/>
        <pt x="427" y="266" on="1"/>
        <pt x="251" y="266" on="1"/>
        <pt x="212" y="0" on="1"/>
        <pt x="20" y="0" on="1"/>
        <pt x="128" y="725" on="1"/>
        <pt x="533" y="725" on="1"/>
      </contour>
    </TTGlyph>
    <TTGlyph name="F.flat" xMin="20" yMin="0" xMax="533" yMax="725">
      <contour>
        <pt x="509" y="561" on="1"/>
        <pt x="296" y="561" on="1"/>
        <pt x="276" y="430" on="1"/>
        <pt x="440" y="430" on="1"/>
        <pt x="415" y="266" on="1"/>
        <pt x="251" y="266" on="1"/>
        <pt x="212" y="0" on="1"/>
        <pt x="20" y="0" on="1"/>
        <pt x="128" y="725" on="1"/>
        <pt x="533" y="725" on="1"/>
      </contour>
    </TTGlyph>
    <TTGlyph name="G" xMin="46" yMin="-14" xMax="625" yMax="737">
      <contour>
        <pt x="554" y="49" on="1"/>
        <pt x="513" y="24" on="0"/>
        <pt x="395" y="-14" on="0"/>
        <pt x="327" y="-14" on="1"/>
        <pt x="192" y="-14" on="0"/>
        <pt x="46" y="145" on="0"/>
        <pt x="46" y="288" on="1"/>
        <pt x="46" y="381" on="0"/>
        <pt x="98" y="545" on="0"/>
        <pt x="195" y="667" on="0"/>
        <pt x="333" y="737" on="0"/>
        <pt x="418" y="737" on="1"/>
        <pt x="479" y="737" on="0"/>
        <pt x="580" y="709" on="0"/>
        <pt x="625" y="686" on="1"/>
        <pt x="573" y="524" on="1"/>
        <pt x="536" y="550" on="0"/>
        <pt x="461" y="574" on="0"/>
        <pt x="425" y="574" on="1"/>
        <pt x="381" y="574" on="0"/>
        <pt x="313" y="530" on="0"/>
        <pt x="267" y="453" on="0"/>
        <pt x="242" y="349" on="0"/>
        <pt x="242" y="290" on="1"/>
        <pt x="242" y="209" on="0"/>
        <pt x="300" y="140" on="0"/>
        <pt x="347" y="140" on="1"/>
        <pt x="364" y="140" on="0"/>
        <pt x="389" y="147" on="0"/>
        <pt x="401" y="153" on="1"/>
        <pt x="418" y="280" on="1"/>
        <pt x="340" y="280" on="1"/>
        <pt x="340" y="420" on="1"/>
        <pt x="609" y="420" on="1"/>
      </contour>
    </TTGlyph>
    <TTGlyph name="G.flat" xMin="46" yMin="-14" xMax="625" yMax="737">
      <contour>
        <pt x="554" y="49" on="1"/>
        <pt x="513" y="24" on="0"/>
        <pt x="395" y="-14" on="0"/>
        <pt x="327" y="-14" on="1"/>
        <pt x="192" y="-14" on="0"/>
        <pt x="46" y="145" on="0"/>
        <pt x="46" y="288" on="1"/>
        <pt x="46" y="381" on="0"/>
        <pt x="98" y="545" on="0"/>
        <pt x="195" y="667" on="0"/>
        <pt x="333" y="737" on="0"/>
        <pt x="418" y="737" on="1"/>
        <pt x="479" y="737" on="0"/>
        <pt x="580" y="709" on="0"/>
        <pt x="625" y="686" on="1"/>
        <pt x="573" y="524" on="1"/>
        <pt x="536" y="550" on="0"/>
        <pt x="461" y="574" on="0"/>
        <pt x="425" y="574" on="1"/>
        <pt x="381" y="574" on="0"/>
        <pt x="313" y="530" on="0"/>
        <pt x="267" y="453" on="0"/>
        <pt x="242" y="349" on="0"/>
        <pt x="242" y="290" on="1"/>
        <pt x="242" y="209" on="0"/>
        <pt x="300" y="140" on="0"/>
        <pt x="347" y="140" on="1"/>
        <pt x="364" y="140" on="0"/>
        <pt x="389" y="147" on="0"/>
        <pt x="401" y="153" on="1"/>
        <pt x="418" y="280" on="1"/>
        <pt x="329" y="280" on="1"/>
        <pt x="350" y="420" on="1"/>
        <pt x="609" y="420" on="1"/>
      </contour>
    </TTGlyph>
    <TTGlyph name="Gbreve" xMin="46" yMin="-14" xMax="625" yMax="937">
      <component glyphName="breve.cap" x="170" y="210" flags="0x4"/>
      <component glyphName="G" x="0" y="0" flags="0x4"/>
    </TTGlyph>
    <TTGlyph name="Gbreve.flat" xMin="46" yMin="-14" xMax="625" yMax="937">
      <component glyphName="breve.cap" x="170" y="210" flags="0x4"/>
      <component glyphName="G.flat" x="0" y="0" flags="0x4"/>
    </TTGlyph>
    <TTGlyph name="Gcommaaccent" xMin="46" yMin="-265" xMax="625" yMax="737">
      <component glyphName="G" x="0" y="0" flags="0x204"/>
      <component glyphName="commaaccent.cap" x="101" y="-8" flags="0x4"/>
    </TTGlyph>
    <TTGlyph name="Gcommaaccent.flat" xMin="46" yMin="-265" xMax="625" yMax="737">
      <component glyphName="G.flat" x="0" y="0" flags="0x204"/>
      <component glyphName="commaaccent.cap" x="101" y="-8" flags="0x4"/>
    </TTGlyph>
    <TTGlyph name="Gdotaccent" xMin="46" yMin="-14" xMax="625" yMax="922">
      <component glyphName="dotaccent.cap" x="169" y="210" flags="0x4"/>
      <component glyphName="G" x="0" y="0" flags="0x4"/>
    </TTGlyph>
    <TTGlyph name="Gdotaccent.flat" xMin="46" yMin="-14" xMax="625" yMax="922">
      <component glyphName="dotaccent.cap" x="169" y="210" flags="0x4"/>
      <component glyphName="G.flat" x="0" y="0" flags="0x4"/>
    </TTGlyph>
    <TTGlyph name="H" xMin="19" yMin="0" xMax="676" yMax="725">
      <contour>
        <pt x="568" y="0" on="1"/>
        <pt x="375" y="0" on="1"/>
        <pt x="418" y="284" on="1"/>
        <pt x="255" y="284" on="1"/>
        <pt x="213" y="0" on="1"/>
        <pt x="19" y="0" on="1"/>
        <pt x="127" y="725" on="1"/>
        <pt x="321" y="725" on="1"/>
        <pt x="281" y="457" on="1"/>
        <pt x="444" y="457" on="1"/>
        <pt x="483" y="725" on="1"/>
        <pt x="676" y="725" on="1"/>
      </contour>
    </TTGlyph>
    <TTGlyph name="Hbar" xMin="48" yMin="0" xMax="761" yMax="725">
      <contour>
        <pt x="672" y="529" on="1"/>
        <pt x="593" y="0" on="1"/>
        <pt x="399" y="0" on="1"/>
        <pt x="442" y="282" on="1"/>
        <pt x="284" y="282" on="1"/>
        <pt x="242" y="0" on="1"/>
        <pt x="48" y="0" on="1"/>
        <pt x="127" y="529" on="1"/>
        <pt x="63" y="529" on="1"/>
        <pt x="65" y="653" on="1"/>
        <pt x="145" y="653" on="1"/>
        <pt x="156" y="725" on="1"/>
        <pt x="348" y="725" on="1"/>
        <pt x="337" y="653" on="1"/>
        <pt x="498" y="653" on="1"/>
        <pt x="509" y="725" on="1"/>
        <pt x="701" y="725" on="1"/>
        <pt x="690" y="653" on="1"/>
        <pt x="761" y="653" on="1"/>
        <pt x="743" y="529" on="1"/>
      </contour>
      <contour>
        <pt x="468" y="444" on="1"/>
        <pt x="482" y="540" on="1"/>
        <pt x="320" y="540" on="1"/>
        <pt x="306" y="444" on="1"/>
      </contour>
    </TTGlyph>
    <TTGlyph name="Hbar.flat" xMin="48" yMin="0" xMax="761" yMax="725">
      <contour>
        <pt x="672" y="529" on="1"/>
        <pt x="593" y="0" on="1"/>
        <pt x="399" y="0" on="1"/>
        <pt x="442" y="282" on="1"/>
        <pt x="284" y="282" on="1"/>
        <pt x="242" y="0" on="1"/>
        <pt x="48" y="0" on="1"/>
        <pt x="127" y="529" on="1"/>
        <pt x="56" y="529" on="1"/>
        <pt x="75" y="653" on="1"/>
        <pt x="145" y="653" on="1"/>
        <pt x="156" y="725" on="1"/>
        <pt x="348" y="725" on="1"/>
        <pt x="337" y="653" on="1"/>
        <pt x="498" y="653" on="1"/>
        <pt x="509" y="725" on="1"/>
        <pt x="701" y="725" on="1"/>
        <pt x="690" y="653" on="1"/>
        <pt x="761" y="653" on="1"/>
        <pt x="743" y="529" on="1"/>
      </contour>
      <contour>
        <pt x="468" y="444" on="1"/>
        <pt x="482" y="540" on="1"/>
        <pt x="320" y="540" on="1"/>
        <pt x="306" y="444" on="1"/>
      </contour>
    </TTGlyph>
    <TTGlyph name="I" xMin="22" yMin="0" xMax="324" yMax="725">
      <contour>
        <pt x="324" y="725" on="1"/>
        <pt x="324" y="725" on="0"/>
        <pt x="314" y="662" on="0"/>
        <pt x="299" y="560" on="0"/>
        <pt x="279" y="430" on="0"/>
        <pt x="269" y="362" on="1"/>
        <pt x="215" y="0" on="1"/>
        <pt x="22" y="0" on="1"/>
        <pt x="130" y="725" on="1"/>
        <pt x="324" y="725" on="1"/>
      </contour>
    </TTGlyph>
    <TTGlyph name="Iacute" xMin="22" yMin="0" xMax="442" yMax="927">
      <component glyphName="I" x="0" y="0" flags="0x204"/>
      <component glyphName="acute.cap" x="32" y="201" flags="0x4"/>
    </TTGlyph>
    <TTGlyph name="Ibreve" xMin="22" yMin="0" xMax="411" yMax="928">
      <component glyphName="I" x="0" y="0" flags="0x204"/>
      <component glyphName="breve.cap" x="-22" y="201" flags="0x4"/>
    </TTGlyph>
    <TTGlyph name="Icircumflex" xMin="22" yMin="0" xMax="402" yMax="925">
      <component glyphName="I" x="0" y="0" flags="0x204"/>
      <component glyphName="circumflex.cap" x="-27" y="201" flags="0x4"/>
    </TTGlyph>
    <TTGlyph name="Idieresis" xMin="22" yMin="0" xMax="416" yMax="913">
      <component glyphName="I" x="0" y="0" flags="0x204"/>
      <component glyphName="dieresis.cap" x="-24" y="201" flags="0x4"/>
    </TTGlyph>
    <TTGlyph name="Idotaccent" xMin="22" yMin="0" xMax="324" yMax="913">
      <component glyphName="I" x="0" y="0" flags="0x204"/>
      <component glyphName="dotaccent.cap" x="-24" y="201" flags="0x4"/>
    </TTGlyph>
    <TTGlyph name="Igrave" xMin="22" yMin="0" xMax="324" yMax="927">
      <component glyphName="I" x="0" y="0" flags="0x204"/>
      <component glyphName="grave.cap" x="-90" y="201" flags="0x4"/>
    </TTGlyph>
    <TTGlyph name="Imacron" xMin="22" yMin="0" xMax="407" yMax="893">
      <component glyphName="I" x="0" y="0" flags="0x204"/>
      <component glyphName="macron.cap" x="-24" y="201" flags="0x4"/>
    </TTGlyph>
    <TTGlyph name="Iogonek" xMin="-4" yMin="-213" xMax="325" yMax="725">
      <contour>
        <pt x="325" y="725" on="1"/>
        <pt x="325" y="725" on="0"/>
        <pt x="315" y="662" on="0"/>
        <pt x="300" y="560" on="0"/>
        <pt x="280" y="430" on="0"/>
        <pt x="270" y="362" on="1"/>
        <pt x="216" y="0" on="1"/>
        <pt x="174" y="0" on="1"/>
        <pt x="169" y="-7" on="1"/>
        <pt x="144" y="-41" on="0"/>
        <pt x="122" y="-78" on="0"/>
        <pt x="122" y="-92" on="1"/>
        <pt x="122" y="-120" on="0"/>
        <pt x="159" y="-120" on="1"/>
        <pt x="172" y="-120" on="0"/>
        <pt x="193" y="-117" on="0"/>
        <pt x="207" y="-114" on="1"/>
        <pt x="195" y="-194" on="1"/>
        <pt x="172" y="-202" on="0"/>
        <pt x="126" y="-213" on="0"/>
        <pt x="94" y="-213" on="1"/>
        <pt x="46" y="-213" on="0"/>
        <pt x="-4" y="-171" on="0"/>
        <pt x="-4" y="-133" on="1"/>
        <pt x="-4" y="-105" on="0"/>
        <pt x="29" y="-46" on="0"/>
        <pt x="62" y="-11" on="1"/>
        <pt x="65" y="-9" on="0"/>
        <pt x="70" y="-3" on="0"/>
        <pt x="73" y="0" on="1"/>
        <pt x="23" y="0" on="1"/>
        <pt x="131" y="725" on="1"/>
        <pt x="325" y="725" on="1"/>
      </contour>
    </TTGlyph>
    <TTGlyph name="J" xMin="8" yMin="-6" xMax="442" yMax="725">
      <contour>
        <pt x="368" y="228" on="1"/>
        <pt x="358" y="164" on="0"/>
        <pt x="318" y="75" on="0"/>
        <pt x="254" y="19" on="0"/>
        <pt x="165" y="-6" on="0"/>
        <pt x="107" y="-6" on="1"/>
        <pt x="48" y="-6" on="0"/>
        <pt x="8" y="3" on="1"/>
        <pt x="8" y="169" on="1"/>
        <pt x="25" y="164" on="0"/>
        <pt x="60" y="158" on="0"/>
        <pt x="82" y="158" on="1"/>
        <pt x="120" y="158" on="0"/>
        <pt x="171" y="200" on="0"/>
        <pt x="180" y="258" on="1"/>
        <pt x="249" y="725" on="1"/>
        <pt x="442" y="725" on="1"/>
      </contour>
    </TTGlyph>
    <TTGlyph name="K" xMin="20" yMin="-9" xMax="676" yMax="725">
      <contour>
        <pt x="447" y="372" on="1"/>
        <pt x="579" y="24" on="1"/>
        <pt x="379" y="-9" on="1"/>
        <pt x="262" y="330" on="1"/>
        <pt x="213" y="0" on="1"/>
        <pt x="20" y="0" on="1"/>
        <pt x="128" y="725" on="1"/>
        <pt x="322" y="725" on="1"/>
        <pt x="274" y="416" on="1"/>
        <pt x="464" y="725" on="1"/>
        <pt x="676" y="725" on="1"/>
      </contour>
    </TTGlyph>
    <TTGlyph name="K.flat" xMin="20" yMin="0" xMax="676" yMax="725">
      <contour>
        <pt x="447" y="372" on="1"/>
        <pt x="588" y="0" on="1"/>
        <pt x="377" y="0" on="1"/>
        <pt x="262" y="330" on="1"/>
        <pt x="213" y="0" on="1"/>
        <pt x="20" y="0" on="1"/>
        <pt x="128" y="725" on="1"/>
        <pt x="322" y="725" on="1"/>
        <pt x="274" y="416" on="1"/>
        <pt x="464" y="725" on="1"/>
        <pt x="676" y="725" on="1"/>
      </contour>
    </TTGlyph>
    <TTGlyph name="Kcommaaccent" xMin="20" yMin="-251" xMax="676" yMax="725">
      <component glyphName="K" x="0" y="0" flags="0x204"/>
      <component glyphName="commaaccent.cap" x="82" y="6" flags="0x4"/>
    </TTGlyph>
    <TTGlyph name="Kcommaaccent.flat" xMin="20" yMin="-251" xMax="676" yMax="725">
      <component glyphName="K.flat" x="0" y="0" flags="0x204"/>
      <component glyphName="commaaccent.cap" x="82" y="6" flags="0x4"/>
    </TTGlyph>
    <TTGlyph name="L" xMin="20" yMin="0" xMax="428" yMax="725">
      <contour>
        <pt x="20" y="0" on="1"/>
        <pt x="128" y="725" on="1"/>
        <pt x="321" y="725" on="1"/>
        <pt x="238" y="169" on="1"/>
        <pt x="428" y="169" on="1"/>
        <pt x="428" y="0" on="1"/>
      </contour>
    </TTGlyph>
    <TTGlyph name="L.flat" xMin="20" yMin="0" xMax="440" yMax="725">
      <contour>
        <pt x="20" y="0" on="1"/>
        <pt x="128" y="725" on="1"/>
        <pt x="321" y="725" on="1"/>
        <pt x="238" y="169" on="1"/>
        <pt x="440" y="169" on="1"/>
        <pt x="415" y="0" on="1"/>
      </contour>
    </TTGlyph>
    <TTGlyph name="Lacute" xMin="20" yMin="0" xMax="448" yMax="928">
      <component glyphName="acute.cap" x="38" y="202" flags="0x4"/>
      <component glyphName="L" x="0" y="0" flags="0x4"/>
    </TTGlyph>
    <TTGlyph name="Lacute.flat" xMin="20" yMin="0" xMax="448" yMax="928">
      <component glyphName="acute.cap" x="38" y="202" flags="0x4"/>
      <component glyphName="L.flat" x="0" y="0" flags="0x4"/>
    </TTGlyph>
    <TTGlyph name="Lcaron" xMin="20" yMin="0" xMax="494" yMax="731">
      <component glyphName="L" x="0" y="0" flags="0x204"/>
      <component glyphName="caron.alt.cap" x="141" y="-9" flags="0x4"/>
    </TTGlyph>
    <TTGlyph name="Lcaron.flat" xMin="20" yMin="0" xMax="492" yMax="731">
      <component glyphName="L.flat" x="0" y="0" flags="0x204"/>
      <component glyphName="caron.alt.cap" x="139" y="-9" flags="0x4"/>
    </TTGlyph>
    <TTGlyph name="Lcommaaccent" xMin="20" yMin="-257" xMax="428" yMax="725">
      <component glyphName="L" x="0" y="0" flags="0x204"/>
      <component glyphName="commaaccent.cap" x="2" y="0" flags="0x4"/>
    </TTGlyph>
    <TTGlyph name="Lcommaaccent.flat" xMin="20" yMin="-257" xMax="440" yMax="725">
      <component glyphName="L.flat" x="0" y="0" flags="0x204"/>
      <component glyphName="commaaccent.cap" x="-8" y="0" flags="0x4"/>
    </TTGlyph>
    <TTGlyph name="Ldot" xMin="22" yMin="0" xMax="489" yMax="725">
      <contour>
        <pt x="334" y="320" on="1"/>
        <pt x="356" y="465" on="1"/>
        <pt x="489" y="465" on="1"/>
        <pt x="468" y="320" on="1"/>
      </contour>
      <contour>
        <pt x="22" y="0" on="1"/>
        <pt x="130" y="725" on="1"/>
        <pt x="323" y="725" on="1"/>
        <pt x="240" y="169" on="1"/>
        <pt x="430" y="169" on="1"/>
        <pt x="430" y="0" on="1"/>
      </contour>
    </TTGlyph>
    <TTGlyph name="Ldot.flat" xMin="22" yMin="0" xMax="491" yMax="725">
      <contour>
        <pt x="336" y="320" on="1"/>
        <pt x="357" y="465" on="1"/>
        <pt x="491" y="465" on="1"/>
        <pt x="469" y="320" on="1"/>
      </contour>
      <contour>
        <pt x="22" y="0" on="1"/>
        <pt x="130" y="725" on="1"/>
        <pt x="323" y="725" on="1"/>
        <pt x="240" y="169" on="1"/>
        <pt x="442" y="169" on="1"/>
        <pt x="417" y="0" on="1"/>
      </contour>
    </TTGlyph>
    <TTGlyph name="Lslash" xMin="32" yMin="0" xMax="457" yMax="725">
      <contour>
        <pt x="49" y="0" on="1"/>
        <pt x="85" y="244" on="1"/>
        <pt x="32" y="221" on="1"/>
        <pt x="32" y="377" on="1"/>
        <pt x="110" y="409" on="1"/>
        <pt x="157" y="725" on="1"/>
        <pt x="350" y="725" on="1"/>
        <pt x="315" y="494" on="1"/>
        <pt x="431" y="544" on="1"/>
        <pt x="405" y="378" on="1"/>
        <pt x="291" y="331" on="1"/>
        <pt x="267" y="169" on="1"/>
        <pt x="457" y="169" on="1"/>
        <pt x="457" y="0" on="1"/>
      </contour>
    </TTGlyph>
    <TTGlyph name="Lslash.flat" xMin="13" yMin="0" xMax="463" yMax="725">
      <contour>
        <pt x="49" y="0" on="1"/>
        <pt x="86" y="245" on="1"/>
        <pt x="13" y="214" on="1"/>
        <pt x="39" y="381" on="1"/>
        <pt x="110" y="410" on="1"/>
        <pt x="157" y="725" on="1"/>
        <pt x="350" y="725" on="1"/>
        <pt x="315" y="494" on="1"/>
        <pt x="431" y="544" on="1"/>
        <pt x="405" y="378" on="1"/>
        <pt x="291" y="331" on="1"/>
        <pt x="267" y="169" on="1"/>
        <pt x="463" y="169" on="1"/>
        <pt x="450" y="0" on="1"/>
      </contour>
    </TTGlyph>
    <TTGlyph name="M" xMin="6" yMin="-2" xMax="845" yMax="725">
      <contour>
        <pt x="780" y="0" on="1"/>
        <pt x="590" y="0" on="1"/>
        <pt x="637" y="479" on="1"/>
        <pt x="474" y="-2" on="1"/>
        <pt x="289" y="-2" on="1"/>
        <pt x="269" y="479" on="1"/>
        <pt x="174" y="0" on="1"/>
        <pt x="6" y="0" on="1"/>
        <pt x="155" y="725" on="1"/>
        <pt x="409" y="725" on="1"/>
        <pt x="434" y="259" on="1"/>
        <pt x="594" y="725" on="1"/>
        <pt x="845" y="725" on="1"/>
      </contour>
    </TTGlyph>
    <TTGlyph name="M.alt" xMin="19" yMin="-4" xMax="871" yMax="725">
      <contour>
        <pt x="579" y="0" on="1"/>
        <pt x="648" y="472" on="1"/>
        <pt x="470" y="-4" on="1"/>
        <pt x="295" y="-4" on="1"/>
        <pt x="255" y="472" on="1"/>
        <pt x="185" y="0" on="1"/>
        <pt x="19" y="0" on="1"/>
        <pt x="127" y="725" on="1"/>
        <pt x="386" y="725" on="1"/>
        <pt x="429" y="256" on="1"/>
        <pt x="610" y="725" on="1"/>
        <pt x="871" y="725" on="1"/>
        <pt x="763" y="0" on="1"/>
      </contour>
    </TTGlyph>
    <TTGlyph name="N" xMin="20" yMin="0" xMax="670" yMax="725">
      <contour>
        <pt x="563" y="0" on="1"/>
        <pt x="401" y="0" on="1"/>
        <pt x="255" y="392" on="1"/>
        <pt x="196" y="0" on="1"/>
        <pt x="20" y="0" on="1"/>
        <pt x="127" y="725" on="1"/>
        <pt x="307" y="725" on="1"/>
        <pt x="439" y="362" on="1"/>
        <pt x="494" y="725" on="1"/>
        <pt x="670" y="725" on="1"/>
      </contour>
    </TTGlyph>
    <TTGlyph name="Nacute" xMin="20" yMin="0" xMax="670" yMax="926">
      <component glyphName="acute.cap" x="202" y="200" flags="0x4"/>
      <component glyphName="N" x="0" y="0" flags="0x4"/>
    </TTGlyph>
    <TTGlyph name="Ncaron" xMin="20" yMin="0" xMax="670" yMax="924">
      <component glyphName="caron.cap" x="146" y="200" flags="0x4"/>
      <component glyphName="N" x="0" y="0" flags="0x4"/>
    </TTGlyph>
    <TTGlyph name="Ncommaaccent" xMin="20" yMin="-251" xMax="670" yMax="725">
      <component glyphName="commaaccent.cap" x="84" y="6" flags="0x4"/>
      <component glyphName="N" x="0" y="0" flags="0x4"/>
    </TTGlyph>
    <TTGlyph name="Ntilde" xMin="20" yMin="0" xMax="670" yMax="937">
      <component glyphName="tilde.cap" x="147" y="200" flags="0x4"/>
      <component glyphName="N" x="0" y="0" flags="0x4"/>
    </TTGlyph>
    <TTGlyph name="O" xMin="48" yMin="-14" xMax="657" yMax="738">
      <contour>
        <pt x="318" y="-14" on="1"/>
        <pt x="252" y="-14" on="0"/>
        <pt x="151" y="28" on="0"/>
        <pt x="83" y="107" on="0"/>
        <pt x="48" y="219" on="0"/>
        <pt x="48" y="288" on="1"/>
        <pt x="48" y="344" on="0"/>
        <pt x="65" y="450" on="0"/>
        <pt x="98" y="544" on="0"/>
        <pt x="144" y="623" on="0"/>
        <pt x="174" y="653" on="1"/>
        <pt x="260" y="738" on="0"/>
        <pt x="387" y="738" on="1"/>
        <pt x="453" y="738" on="0"/>
        <pt x="554" y="696" on="0"/>
        <pt x="622" y="618" on="0"/>
        <pt x="657" y="507" on="0"/>
        <pt x="657" y="438" on="1"/>
        <pt x="657" y="382" on="0"/>
        <pt x="640" y="276" on="0"/>
        <pt x="607" y="181" on="0"/>
        <pt x="561" y="102" on="0"/>
        <pt x="531" y="72" on="1"/>
        <pt x="446" y="-14" on="0"/>
      </contour>
      <contour>
        <pt x="322" y="136" on="1"/>
        <pt x="339" y="136" on="0"/>
        <pt x="367" y="150" on="0"/>
        <pt x="379" y="162" on="1"/>
        <pt x="397" y="179" on="0"/>
        <pt x="426" y="245" on="0"/>
        <pt x="448" y="326" on="0"/>
        <pt x="460" y="417" on="0"/>
        <pt x="460" y="459" on="1"/>
        <pt x="460" y="531" on="0"/>
        <pt x="418" y="589" on="0"/>
        <pt x="384" y="589" on="1"/>
        <pt x="366" y="589" on="0"/>
        <pt x="338" y="575" on="0"/>
        <pt x="326" y="562" on="1"/>
        <pt x="309" y="545" on="0"/>
        <pt x="279" y="480" on="0"/>
        <pt x="258" y="399" on="0"/>
        <pt x="246" y="309" on="0"/>
        <pt x="246" y="266" on="1"/>
        <pt x="246" y="194" on="0"/>
        <pt x="287" y="136" on="0"/>
      </contour>
    </TTGlyph>
    <TTGlyph name="OE" xMin="46" yMin="0" xMax="876" yMax="725">
      <contour>
        <pt x="242" y="295" on="1"/>
        <pt x="242" y="215" on="0"/>
        <pt x="308" y="148" on="0"/>
        <pt x="369" y="148" on="1"/>
        <pt x="381" y="148" on="1"/>
        <pt x="446" y="576" on="1"/>
        <pt x="439" y="576" on="1"/>
        <pt x="398" y="576" on="0"/>
        <pt x="336" y="547" on="0"/>
        <pt x="315" y="526" on="1"/>
        <pt x="297" y="508" on="0"/>
        <pt x="269" y="454" on="0"/>
        <pt x="251" y="392" on="0"/>
        <pt x="242" y="326" on="0"/>
      </contour>
      <contour>
        <pt x="876" y="725" on="1"/>
        <pt x="853" y="569" on="1"/>
        <pt x="634" y="569" on="1"/>
        <pt x="617" y="451" on="1"/>
        <pt x="774" y="451" on="1"/>
        <pt x="774" y="293" on="1"/>
        <pt x="593" y="293" on="1"/>
        <pt x="572" y="156" on="1"/>
        <pt x="800" y="156" on="1"/>
        <pt x="776" y="0" on="1"/>
        <pt x="372" y="0" on="1"/>
        <pt x="214" y="0" on="0"/>
        <pt x="46" y="148" on="0"/>
        <pt x="46" y="297" on="1"/>
        <pt x="46" y="394" on="0"/>
        <pt x="102" y="556" on="0"/>
        <pt x="161" y="615" on="1"/>
        <pt x="215" y="670" on="0"/>
        <pt x="371" y="725" on="0"/>
        <pt x="480" y="725" on="1"/>
      </contour>
    </TTGlyph>
    <TTGlyph name="OE.flat" xMin="46" yMin="0" xMax="876" yMax="725">
      <contour>
        <pt x="242" y="295" on="1"/>
        <pt x="242" y="215" on="0"/>
        <pt x="308" y="148" on="0"/>
        <pt x="369" y="148" on="1"/>
        <pt x="381" y="148" on="1"/>
        <pt x="446" y="576" on="1"/>
        <pt x="439" y="576" on="1"/>
        <pt x="398" y="576" on="0"/>
        <pt x="336" y="547" on="0"/>
        <pt x="315" y="526" on="1"/>
        <pt x="297" y="508" on="0"/>
        <pt x="269" y="454" on="0"/>
        <pt x="251" y="392" on="0"/>
        <pt x="242" y="326" on="0"/>
      </contour>
      <contour>
        <pt x="876" y="725" on="1"/>
        <pt x="853" y="569" on="1"/>
        <pt x="634" y="569" on="1"/>
        <pt x="617" y="451" on="1"/>
        <pt x="786" y="451" on="1"/>
        <pt x="762" y="293" on="1"/>
        <pt x="593" y="293" on="1"/>
        <pt x="572" y="156" on="1"/>
        <pt x="800" y="156" on="1"/>
        <pt x="776" y="0" on="1"/>
        <pt x="372" y="0" on="1"/>
        <pt x="214" y="0" on="0"/>
        <pt x="46" y="148" on="0"/>
        <pt x="46" y="297" on="1"/>
        <pt x="46" y="394" on="0"/>
        <pt x="102" y="556" on="0"/>
        <pt x="161" y="615" on="1"/>
        <pt x="215" y="670" on="0"/>
        <pt x="371" y="725" on="0"/>
        <pt x="480" y="725" on="1"/>
      </contour>
    </TTGlyph>
    <TTGlyph name="Oacute" xMin="48" yMin="-14" xMax="657" yMax="936">
      <component glyphName="acute.cap" x="212" y="210" flags="0x4"/>
      <component glyphName="O" x="0" y="0" flags="0x4"/>
    </TTGlyph>
    <TTGlyph name="Obreve" xMin="48" yMin="-14" xMax="657" yMax="937">
      <component glyphName="breve.cap" x="158" y="210" flags="0x4"/>
      <component glyphName="O" x="0" y="0" flags="0x4"/>
    </TTGlyph>
    <TTGlyph name="Ocircumflex" xMin="48" yMin="-14" xMax="657" yMax="934">
      <component glyphName="O" x="0" y="0" flags="0x4"/>
      <component glyphName="circumflex.cap" x="153" y="210" flags="0x4"/>
    </TTGlyph>
    <TTGlyph name="Odieresis" xMin="48" yMin="-14" xMax="657" yMax="922">
      <component glyphName="dieresis.cap" x="155" y="210" flags="0x4"/>
      <component glyphName="O" x="0" y="0" flags="0x4"/>
    </TTGlyph>
    <TTGlyph name="Ograve" xMin="48" yMin="-14" xMax="657" yMax="936">
      <component glyphName="grave.cap" x="90" y="210" flags="0x4"/>
      <component glyphName="O" x="0" y="0" flags="0x4"/>
    </TTGlyph>
    <TTGlyph name="Ohungarumlaut" xMin="48" yMin="-14" xMax="681" yMax="936">
      <component glyphName="O" x="0" y="0" flags="0x4"/>
      <component glyphName="hungarumlaut.cap" x="200" y="210" flags="0x4"/>
    </TTGlyph>
    <TTGlyph name="Omacron" xMin="48" yMin="-14" xMax="657" yMax="902">
      <component glyphName="macron.cap" x="155" y="210" flags="0x4"/>
      <component glyphName="O" x="0" y="0" flags="0x4"/>
    </TTGlyph>
    <TTGlyph name="Oslash" xMin="-25" yMin="-14" xMax="731" yMax="738">
      <contour>
        <pt x="319" y="-14" on="1"/>
        <pt x="264" y="-14" on="0"/>
        <pt x="176" y="17" on="0"/>
        <pt x="143" y="45" on="1"/>
        <pt x="93" y="-10" on="1"/>
        <pt x="-25" y="18" on="1"/>
        <pt x="79" y="134" on="1"/>
        <pt x="49" y="200" on="0"/>
        <pt x="49" y="288" on="1"/>
        <pt x="49" y="344" on="0"/>
        <pt x="66" y="450" on="0"/>
        <pt x="98" y="544" on="0"/>
        <pt x="145" y="623" on="0"/>
        <pt x="175" y="653" on="1"/>
        <pt x="260" y="738" on="0"/>
        <pt x="388" y="738" on="1"/>
        <pt x="496" y="738" on="0"/>
        <pt x="564" y="679" on="1"/>
        <pt x="613" y="734" on="1"/>
        <pt x="731" y="708" on="1"/>
        <pt x="628" y="592" on="1"/>
        <pt x="658" y="526" on="0"/>
        <pt x="658" y="438" on="1"/>
        <pt x="658" y="382" on="0"/>
        <pt x="641" y="276" on="0"/>
        <pt x="608" y="181" on="0"/>
        <pt x="561" y="102" on="0"/>
        <pt x="532" y="72" on="1"/>
        <pt x="446" y="-14" on="0"/>
      </contour>
      <contour>
        <pt x="242" y="281" on="1"/>
        <pt x="453" y="541" on="1"/>
        <pt x="443" y="568" on="0"/>
        <pt x="407" y="591" on="0"/>
        <pt x="384" y="591" on="1"/>
        <pt x="366" y="591" on="0"/>
        <pt x="338" y="577" on="0"/>
        <pt x="325" y="564" on="1"/>
        <pt x="308" y="547" on="0"/>
        <pt x="279" y="487" on="0"/>
        <pt x="257" y="412" on="0"/>
        <pt x="243" y="329" on="0"/>
        <pt x="242" y="288" on="1"/>
      </contour>
      <contour>
        <pt x="322" y="134" on="1"/>
        <pt x="356" y="134" on="0"/>
        <pt x="381" y="161" on="1"/>
        <pt x="398" y="178" on="0"/>
        <pt x="428" y="238" on="0"/>
        <pt x="450" y="313" on="0"/>
        <pt x="463" y="397" on="0"/>
        <pt x="465" y="438" on="1"/>
        <pt x="465" y="442" on="1"/>
        <pt x="254" y="183" on="1"/>
        <pt x="264" y="157" on="0"/>
        <pt x="298" y="134" on="0"/>
      </contour>
    </TTGlyph>
    <TTGlyph name="Oslashacute" xMin="-25" yMin="-14" xMax="731" yMax="936">
      <component glyphName="Oslash" x="0" y="0" flags="0x204"/>
      <component glyphName="acute.cap" x="205" y="210" flags="0x4"/>
    </TTGlyph>
    <TTGlyph name="Otilde" xMin="48" yMin="-14" xMax="657" yMax="947">
      <component glyphName="tilde.cap" x="156" y="210" flags="0x4"/>
      <component glyphName="O" x="0" y="0" flags="0x4"/>
    </TTGlyph>
    <TTGlyph name="P" xMin="19" yMin="0" xMax="591" yMax="725">
      <contour>
        <pt x="591" y="507" on="1"/>
        <pt x="591" y="444" on="0"/>
        <pt x="548" y="343" on="0"/>
        <pt x="466" y="271" on="0"/>
        <pt x="346" y="231" on="0"/>
        <pt x="269" y="231" on="1"/>
        <pt x="246" y="231" on="1"/>
        <pt x="211" y="0" on="1"/>
        <pt x="19" y="0" on="1"/>
        <pt x="127" y="725" on="1"/>
        <pt x="328" y="725" on="1"/>
        <pt x="460" y="725" on="0"/>
        <pt x="591" y="614" on="0"/>
      </contour>
      <contour>
        <pt x="403" y="499" on="1"/>
        <pt x="404" y="544" on="0"/>
        <pt x="356" y="584" on="0"/>
        <pt x="316" y="584" on="1"/>
        <pt x="297" y="584" on="1"/>
        <pt x="266" y="374" on="1"/>
        <pt x="286" y="374" on="1"/>
        <pt x="339" y="374" on="0"/>
        <pt x="402" y="440" on="0"/>
      </contour>
    </TTGlyph>
    <TTGlyph name="Q" xMin="49" yMin="-135" xMax="658" yMax="738">
      <contour>
        <pt x="275" y="-20" on="1"/>
        <pt x="218" y="2" on="0"/>
        <pt x="134" y="54" on="0"/>
        <pt x="77" y="125" on="0"/>
        <pt x="49" y="221" on="0"/>
        <pt x="49" y="287" on="1"/>
        <pt x="49" y="405" on="0"/>
        <pt x="115" y="593" on="0"/>
        <pt x="175" y="652" on="1"/>
        <pt x="261" y="738" on="0"/>
        <pt x="389" y="738" on="1"/>
        <pt x="455" y="738" on="0"/>
        <pt x="556" y="696" on="0"/>
        <pt x="624" y="619" on="0"/>
        <pt x="658" y="509" on="0"/>
        <pt x="658" y="442" on="1"/>
        <pt x="658" y="378" on="0"/>
        <pt x="638" y="273" on="0"/>
        <pt x="604" y="189" on="0"/>
        <pt x="559" y="123" on="0"/>
        <pt x="534" y="98" on="1"/>
        <pt x="525" y="89" on="0"/>
        <pt x="506" y="74" on="0"/>
        <pt x="496" y="67" on="1"/>
        <pt x="634" y="27" on="1"/>
        <pt x="577" y="-135" on="1"/>
      </contour>
      <contour>
        <pt x="323" y="136" on="1"/>
        <pt x="340" y="136" on="0"/>
        <pt x="368" y="150" on="0"/>
        <pt x="380" y="162" on="1"/>
        <pt x="397" y="179" on="0"/>
        <pt x="427" y="245" on="0"/>
        <pt x="449" y="326" on="0"/>
        <pt x="461" y="417" on="0"/>
        <pt x="461" y="459" on="1"/>
        <pt x="461" y="531" on="0"/>
        <pt x="419" y="589" on="0"/>
        <pt x="385" y="589" on="1"/>
        <pt x="367" y="589" on="0"/>
        <pt x="339" y="575" on="0"/>
        <pt x="327" y="562" on="1"/>
        <pt x="310" y="545" on="0"/>
        <pt x="280" y="480" on="0"/>
        <pt x="259" y="399" on="0"/>
        <pt x="247" y="309" on="0"/>
        <pt x="247" y="266" on="1"/>
        <pt x="247" y="194" on="0"/>
        <pt x="288" y="136" on="0"/>
      </contour>
    </TTGlyph>
    <TTGlyph name="Q.alt" xMin="49" yMin="-14" xMax="658" yMax="738">
      <contour>
        <pt x="517" y="66" on="1"/>
        <pt x="514" y="64" on="0"/>
        <pt x="509" y="58" on="0"/>
        <pt x="506" y="56" on="1"/>
        <pt x="464" y="21" on="0"/>
        <pt x="373" y="-14" on="0"/>
        <pt x="319" y="-14" on="1"/>
        <pt x="253" y="-14" on="0"/>
        <pt x="152" y="28" on="0"/>
        <pt x="84" y="107" on="0"/>
        <pt x="49" y="219" on="0"/>
        <pt x="49" y="288" on="1"/>
        <pt x="49" y="344" on="0"/>
        <pt x="66" y="450" on="0"/>
        <pt x="98" y="544" on="0"/>
        <pt x="145" y="623" on="0"/>
        <pt x="175" y="653" on="1"/>
        <pt x="260" y="738" on="0"/>
        <pt x="388" y="738" on="1"/>
        <pt x="454" y="738" on="0"/>
        <pt x="555" y="696" on="0"/>
        <pt x="623" y="618" on="0"/>
        <pt x="658" y="507" on="0"/>
        <pt x="658" y="438" on="1"/>
        <pt x="658" y="370" on="0"/>
        <pt x="631" y="246" on="0"/>
        <pt x="606" y="192" on="1"/>
        <pt x="648" y="156" on="1"/>
        <pt x="601" y="-14" on="1"/>
      </contour>
      <contour>
        <pt x="323" y="134" on="1"/>
        <pt x="341" y="134" on="0"/>
        <pt x="369" y="148" on="0"/>
        <pt x="381" y="161" on="1"/>
        <pt x="388" y="168" on="0"/>
        <pt x="396" y="179" on="1"/>
        <pt x="297" y="270" on="1"/>
        <pt x="450" y="325" on="1"/>
        <pt x="456" y="356" on="0"/>
        <pt x="462" y="423" on="0"/>
        <pt x="462" y="458" on="1"/>
        <pt x="462" y="530" on="0"/>
        <pt x="420" y="589" on="0"/>
        <pt x="385" y="589" on="1"/>
        <pt x="368" y="589" on="0"/>
        <pt x="340" y="575" on="0"/>
        <pt x="327" y="562" on="1"/>
        <pt x="309" y="545" on="0"/>
        <pt x="280" y="480" on="0"/>
        <pt x="258" y="399" on="0"/>
        <pt x="246" y="308" on="0"/>
        <pt x="246" y="266" on="1"/>
        <pt x="246" y="193" on="0"/>
        <pt x="288" y="134" on="0"/>
      </contour>
    </TTGlyph>
    <TTGlyph name="Q.alt_flat" xMin="49" yMin="-14" xMax="658" yMax="738">
      <contour>
        <pt x="518" y="66" on="1"/>
        <pt x="516" y="64" on="0"/>
        <pt x="512" y="60" on="0"/>
        <pt x="510" y="58" on="1"/>
        <pt x="468" y="22" on="0"/>
        <pt x="375" y="-14" on="0"/>
        <pt x="319" y="-14" on="1"/>
        <pt x="253" y="-14" on="0"/>
        <pt x="152" y="28" on="0"/>
        <pt x="84" y="107" on="0"/>
        <pt x="49" y="219" on="0"/>
        <pt x="49" y="288" on="1"/>
        <pt x="49" y="344" on="0"/>
        <pt x="66" y="450" on="0"/>
        <pt x="98" y="544" on="0"/>
        <pt x="145" y="623" on="0"/>
        <pt x="175" y="653" on="1"/>
        <pt x="260" y="738" on="0"/>
        <pt x="388" y="738" on="1"/>
        <pt x="454" y="738" on="0"/>
        <pt x="555" y="696" on="0"/>
        <pt x="623" y="618" on="0"/>
        <pt x="658" y="507" on="0"/>
        <pt x="658" y="438" on="1"/>
        <pt x="658" y="372" on="0"/>
        <pt x="632" y="248" on="0"/>
        <pt x="608" y="195" on="1"/>
        <pt x="647" y="167" on="1"/>
        <pt x="618" y="-13" on="1"/>
      </contour>
      <contour>
        <pt x="323" y="134" on="1"/>
        <pt x="341" y="134" on="0"/>
        <pt x="369" y="148" on="0"/>
        <pt x="381" y="161" on="1"/>
        <pt x="386" y="166" on="0"/>
        <pt x="388" y="169" on="1"/>
        <pt x="335" y="210" on="1"/>
        <pt x="362" y="377" on="1"/>
        <pt x="448" y="313" on="1"/>
        <pt x="462" y="381" on="0"/>
        <pt x="462" y="458" on="1"/>
        <pt x="462" y="530" on="0"/>
        <pt x="420" y="589" on="0"/>
        <pt x="385" y="589" on="1"/>
        <pt x="368" y="589" on="0"/>
        <pt x="340" y="575" on="0"/>
        <pt x="327" y="562" on="1"/>
        <pt x="309" y="545" on="0"/>
        <pt x="280" y="480" on="0"/>
        <pt x="258" y="399" on="0"/>
        <pt x="246" y="308" on="0"/>
        <pt x="246" y="266" on="1"/>
        <pt x="246" y="193" on="0"/>
        <pt x="288" y="134" on="0"/>
      </contour>
    </TTGlyph>
    <TTGlyph name="R" xMin="20" yMin="-9" xMax="599" yMax="725">
      <contour>
        <pt x="599" y="519" on="1"/>
        <pt x="599" y="435" on="0"/>
        <pt x="517" y="325" on="0"/>
        <pt x="454" y="295" on="1"/>
        <pt x="562" y="22" on="1"/>
        <pt x="364" y="-9" on="1"/>
        <pt x="273" y="246" on="1"/>
        <pt x="247" y="246" on="1"/>
        <pt x="211" y="0" on="1"/>
        <pt x="20" y="0" on="1"/>
        <pt x="128" y="725" on="1"/>
        <pt x="336" y="725" on="1"/>
        <pt x="458" y="725" on="0"/>
        <pt x="599" y="623" on="0"/>
      </contour>
      <contour>
        <pt x="409" y="502" on="1"/>
        <pt x="409" y="544" on="0"/>
        <pt x="363" y="586" on="0"/>
        <pt x="320" y="586" on="1"/>
        <pt x="296" y="586" on="1"/>
        <pt x="266" y="381" on="1"/>
        <pt x="290" y="381" on="1"/>
        <pt x="346" y="381" on="0"/>
        <pt x="409" y="448" on="0"/>
      </contour>
    </TTGlyph>
    <TTGlyph name="R.flat" xMin="20" yMin="0" xMax="599" yMax="725">
      <contour>
        <pt x="599" y="519" on="1"/>
        <pt x="599" y="435" on="0"/>
        <pt x="517" y="325" on="0"/>
        <pt x="454" y="295" on="1"/>
        <pt x="570" y="0" on="1"/>
        <pt x="361" y="0" on="1"/>
        <pt x="273" y="246" on="1"/>
        <pt x="247" y="246" on="1"/>
        <pt x="211" y="0" on="1"/>
        <pt x="20" y="0" on="1"/>
        <pt x="128" y="725" on="1"/>
        <pt x="336" y="725" on="1"/>
        <pt x="458" y="725" on="0"/>
        <pt x="599" y="623" on="0"/>
      </contour>
      <contour>
        <pt x="409" y="502" on="1"/>
        <pt x="409" y="544" on="0"/>
        <pt x="363" y="586" on="0"/>
        <pt x="320" y="586" on="1"/>
        <pt x="296" y="586" on="1"/>
        <pt x="266" y="381" on="1"/>
        <pt x="290" y="381" on="1"/>
        <pt x="346" y="381" on="0"/>
        <pt x="409" y="448" on="0"/>
      </contour>
    </TTGlyph>
    <TTGlyph name="R_p" xMin="29" yMin="-188" xMax="1057" yMax="717">
      <contour>
        <pt x="270" y="245" on="1"/>
        <pt x="244" y="245" on="1"/>
        <pt x="206" y="0" on="1"/>
        <pt x="29" y="0" on="1"/>
        <pt x="136" y="717" on="1"/>
        <pt x="321" y="717" on="1"/>
        <pt x="444" y="717" on="0"/>
        <pt x="585" y="619" on="0"/>
        <pt x="585" y="515" on="1"/>
        <pt x="585" y="432" on="0"/>
        <pt x="504" y="323" on="0"/>
        <pt x="440" y="292" on="1"/>
        <pt x="548" y="22" on="1"/>
        <pt x="362" y="-9" on="1"/>
      </contour>
      <contour>
        <pt x="408" y="498" on="1"/>
        <pt x="408" y="541" on="0"/>
        <pt x="361" y="580" on="0"/>
        <pt x="318" y="580" on="1"/>
        <pt x="291" y="580" on="1"/>
        <pt x="260" y="378" on="1"/>
        <pt x="288" y="378" on="1"/>
        <pt x="344" y="378" on="0"/>
        <pt x="408" y="444" on="0"/>
      </contour>
      <contour>
        <pt x="753" y="131" on="1"/>
        <pt x="768" y="125" on="0"/>
        <pt x="782" y="125" on="1"/>
        <pt x="804" y="125" on="0"/>
        <pt x="843" y="152" on="0"/>
        <pt x="872" y="202" on="0"/>
        <pt x="889" y="269" on="0"/>
        <pt x="889" y="310" on="1"/>
        <pt x="889" y="380" on="0"/>
        <pt x="850" y="380" on="1"/>
        <pt x="835" y="380" on="0"/>
        <pt x="804" y="360" on="0"/>
        <pt x="784" y="337" on="1"/>
      </contour>
      <contour>
        <pt x="628" y="390" on="1"/>
        <pt x="628" y="518" on="1"/>
        <pt x="786" y="518" on="1"/>
        <pt x="791" y="439" on="1"/>
        <pt x="825" y="480" on="0"/>
        <pt x="890" y="528" on="0"/>
        <pt x="928" y="528" on="1"/>
        <pt x="988" y="528" on="0"/>
        <pt x="1057" y="431" on="0"/>
        <pt x="1057" y="345" on="1"/>
        <pt x="1057" y="260" on="0"/>
        <pt x="1013" y="130" on="0"/>
        <pt x="938" y="41" on="0"/>
        <pt x="837" y="-5" on="0"/>
        <pt x="779" y="-5" on="1"/>
        <pt x="767" y="-5" on="0"/>
        <pt x="745" y="-3" on="0"/>
        <pt x="733" y="-1" on="1"/>
        <pt x="711" y="-162" on="1"/>
        <pt x="541" y="-188" on="1"/>
      </contour>
    </TTGlyph>
    <TTGlyph name="R_p.flat" xMin="29" yMin="-188" xMax="1057" yMax="717">
      <contour>
        <pt x="270" y="245" on="1"/>
        <pt x="244" y="245" on="1"/>
        <pt x="206" y="0" on="1"/>
        <pt x="29" y="0" on="1"/>
        <pt x="136" y="717" on="1"/>
        <pt x="321" y="717" on="1"/>
        <pt x="444" y="717" on="0"/>
        <pt x="585" y="619" on="0"/>
        <pt x="585" y="515" on="1"/>
        <pt x="585" y="432" on="0"/>
        <pt x="504" y="323" on="0"/>
        <pt x="440" y="292" on="1"/>
        <pt x="557" y="0" on="1"/>
        <pt x="359" y="0" on="1"/>
      </contour>
      <contour>
        <pt x="628" y="390" on="1"/>
        <pt x="628" y="518" on="1"/>
        <pt x="786" y="518" on="1"/>
        <pt x="791" y="439" on="1"/>
        <pt x="825" y="480" on="0"/>
        <pt x="890" y="528" on="0"/>
        <pt x="928" y="528" on="1"/>
        <pt x="988" y="528" on="0"/>
        <pt x="1057" y="431" on="0"/>
        <pt x="1057" y="345" on="1"/>
        <pt x="1057" y="260" on="0"/>
        <pt x="1013" y="130" on="0"/>
        <pt x="938" y="41" on="0"/>
        <pt x="837" y="-5" on="0"/>
        <pt x="779" y="-5" on="1"/>
        <pt x="767" y="-5" on="0"/>
        <pt x="745" y="-3" on="0"/>
        <pt x="733" y="-1" on="1"/>
        <pt x="711" y="-162" on="1"/>
        <pt x="541" y="-188" on="1"/>
      </contour>
      <contour>
        <pt x="753" y="131" on="1"/>
        <pt x="768" y="125" on="0"/>
        <pt x="782" y="125" on="1"/>
        <pt x="804" y="125" on="0"/>
        <pt x="843" y="152" on="0"/>
        <pt x="872" y="202" on="0"/>
        <pt x="889" y="269" on="0"/>
        <pt x="889" y="310" on="1"/>
        <pt x="889" y="380" on="0"/>
        <pt x="850" y="380" on="1"/>
        <pt x="835" y="380" on="0"/>
        <pt x="804" y="360" on="0"/>
        <pt x="784" y="337" on="1"/>
      </contour>
      <contour>
        <pt x="408" y="498" on="1"/>
        <pt x="408" y="541" on="0"/>
        <pt x="361" y="580" on="0"/>
        <pt x="318" y="580" on="1"/>
        <pt x="291" y="580" on="1"/>
        <pt x="260" y="378" on="1"/>
        <pt x="288" y="378" on="1"/>
        <pt x="344" y="378" on="0"/>
        <pt x="408" y="444" on="0"/>
      </contour>
    </TTGlyph>
    <TTGlyph name="Racute" xMin="20" yMin="-9" xMax="599" yMax="927">
      <component glyphName="R" x="0" y="0" flags="0x204"/>
      <component glyphName="acute.cap" x="166" y="201" flags="0x4"/>
    </TTGlyph>
    <TTGlyph name="Racute.flat" xMin="20" yMin="0" xMax="599" yMax="927">
      <component glyphName="acute.cap" x="166" y="201" flags="0x4"/>
      <component glyphName="R.flat" x="0" y="0" flags="0x4"/>
    </TTGlyph>
    <TTGlyph name="Rcaron" xMin="20" yMin="-9" xMax="599" yMax="925">
      <component glyphName="caron.cap" x="111" y="201" flags="0x4"/>
      <component glyphName="R" x="0" y="0" flags="0x4"/>
    </TTGlyph>
    <TTGlyph name="Rcaron.flat" xMin="20" yMin="0" xMax="599" yMax="925">
      <component glyphName="caron.cap" x="111" y="201" flags="0x4"/>
      <component glyphName="R.flat" x="0" y="0" flags="0x4"/>
    </TTGlyph>
    <TTGlyph name="Rcommaaccent" xMin="20" yMin="-251" xMax="599" yMax="725">
      <component glyphName="R" x="0" y="0" flags="0x204"/>
      <component glyphName="commaaccent.cap" x="61" y="6" flags="0x4"/>
    </TTGlyph>
    <TTGlyph name="Rcommaaccent.flat" xMin="20" yMin="-251" xMax="599" yMax="725">
      <component glyphName="R.flat" x="0" y="0" flags="0x4"/>
      <component glyphName="commaaccent.cap" x="61" y="6" flags="0x4"/>
    </TTGlyph>
    <TTGlyph name="S" xMin="1" yMin="-12" xMax="544" yMax="737">
      <contour>
        <pt x="493" y="530" on="1"/>
        <pt x="451" y="556" on="0"/>
        <pt x="373" y="586" on="0"/>
        <pt x="339" y="586" on="1"/>
        <pt x="306" y="586" on="0"/>
        <pt x="272" y="554" on="0"/>
        <pt x="272" y="530" on="1"/>
        <pt x="272" y="506" on="0"/>
        <pt x="306" y="470" on="0"/>
        <pt x="346" y="442" on="1"/>
        <pt x="388" y="415" on="0"/>
        <pt x="446" y="366" on="0"/>
        <pt x="482" y="315" on="0"/>
        <pt x="499" y="261" on="0"/>
        <pt x="499" y="229" on="1"/>
        <pt x="499" y="173" on="0"/>
        <pt x="461" y="83" on="0"/>
        <pt x="393" y="21" on="0"/>
        <pt x="296" y="-12" on="0"/>
        <pt x="238" y="-12" on="1"/>
        <pt x="174" y="-12" on="0"/>
        <pt x="50" y="28" on="0"/>
        <pt x="1" y="54" on="1"/>
        <pt x="52" y="206" on="1"/>
        <pt x="97" y="178" on="0"/>
        <pt x="191" y="140" on="0"/>
        <pt x="234" y="140" on="1"/>
        <pt x="268" y="140" on="0"/>
        <pt x="309" y="174" on="0"/>
        <pt x="309" y="202" on="1"/>
        <pt x="309" y="226" on="0"/>
        <pt x="275" y="265" on="0"/>
        <pt x="235" y="294" on="1"/>
        <pt x="194" y="320" on="0"/>
        <pt x="136" y="367" on="0"/>
        <pt x="99" y="417" on="0"/>
        <pt x="82" y="474" on="0"/>
        <pt x="82" y="510" on="1"/>
        <pt x="82" y="559" on="0"/>
        <pt x="118" y="642" on="0"/>
        <pt x="183" y="703" on="0"/>
        <pt x="274" y="737" on="0"/>
        <pt x="330" y="737" on="1"/>
        <pt x="399" y="737" on="0"/>
        <pt x="502" y="704" on="0"/>
        <pt x="544" y="682" on="1"/>
      </contour>
    </TTGlyph>
    <TTGlyph name="Sacute" xMin="1" yMin="-12" xMax="561" yMax="936">
      <component glyphName="S" x="0" y="0" flags="0x204"/>
      <component glyphName="acute.cap" x="151" y="210" flags="0x4"/>
    </TTGlyph>
    <TTGlyph name="Scaron" xMin="1" yMin="-12" xMax="544" yMax="934">
      <component glyphName="S" x="0" y="0" flags="0x204"/>
      <component glyphName="caron.cap" x="95" y="210" flags="0x4"/>
    </TTGlyph>
    <TTGlyph name="Scedilla" xMin="1" yMin="-194" xMax="544" yMax="737">
      <component glyphName="S" x="0" y="0" flags="0x204"/>
      <component glyphName="cedilla.cap" x="25" y="-8" flags="0x4"/>
    </TTGlyph>
    <TTGlyph name="Scommaaccent" xMin="1" yMin="-265" xMax="544" yMax="737">
      <component glyphName="S" x="0" y="0" flags="0x204"/>
      <component glyphName="commaaccent.cap" x="15" y="-8" flags="0x4"/>
    </TTGlyph>
    <TTGlyph name="T" xMin="71" yMin="0" xMax="609" yMax="725">
      <contour>
        <pt x="433" y="561" on="1"/>
        <pt x="350" y="0" on="1"/>
        <pt x="156" y="0" on="1"/>
        <pt x="240" y="561" on="1"/>
        <pt x="71" y="561" on="1"/>
        <pt x="96" y="725" on="1"/>
        <pt x="609" y="725" on="1"/>
        <pt x="609" y="561" on="1"/>
      </contour>
    </TTGlyph>
    <TTGlyph name="T.flat" xMin="71" yMin="0" xMax="625" yMax="725">
      <contour>
        <pt x="433" y="561" on="1"/>
        <pt x="350" y="0" on="1"/>
        <pt x="156" y="0" on="1"/>
        <pt x="240" y="561" on="1"/>
        <pt x="71" y="561" on="1"/>
        <pt x="96" y="725" on="1"/>
        <pt x="625" y="725" on="1"/>
        <pt x="600" y="561" on="1"/>
      </contour>
    </TTGlyph>
    <TTGlyph name="Tcaron" xMin="71" yMin="0" xMax="609" yMax="925">
      <component glyphName="caron.cap" x="112" y="201" flags="0x4"/>
      <component glyphName="T" x="0" y="0" flags="0x4"/>
    </TTGlyph>
    <TTGlyph name="Tcaron.flat" xMin="71" yMin="0" xMax="625" yMax="925">
      <component glyphName="caron.cap" x="112" y="201" flags="0x4"/>
      <component glyphName="T.flat" x="0" y="0" flags="0x4"/>
    </TTGlyph>
    <TTGlyph name="Tcommaaccent" xMin="71" yMin="-257" xMax="609" yMax="725">
      <component glyphName="T" x="0" y="0" flags="0x204"/>
      <component glyphName="commaaccent.cap" x="48" y="0" flags="0x4"/>
    </TTGlyph>
    <TTGlyph name="Tcommaaccent.flat" xMin="71" yMin="-257" xMax="625" yMax="725">
      <component glyphName="T.flat" x="0" y="0" flags="0x204"/>
      <component glyphName="commaaccent.cap" x="48" y="0" flags="0x4"/>
    </TTGlyph>
    <TTGlyph name="Thorn" xMin="19" yMin="0" xMax="575" yMax="725">
      <contour>
        <pt x="575" y="401" on="1"/>
        <pt x="575" y="339" on="0"/>
        <pt x="532" y="237" on="0"/>
        <pt x="450" y="165" on="0"/>
        <pt x="331" y="126" on="0"/>
        <pt x="254" y="125" on="1"/>
        <pt x="230" y="125" on="1"/>
        <pt x="210" y="0" on="1"/>
        <pt x="19" y="0" on="1"/>
        <pt x="127" y="725" on="1"/>
        <pt x="318" y="725" on="1"/>
        <pt x="303" y="618" on="1"/>
        <pt x="315" y="618" on="1"/>
        <pt x="446" y="618" on="0"/>
        <pt x="575" y="507" on="0"/>
      </contour>
      <contour>
        <pt x="386" y="392" on="1"/>
        <pt x="387" y="437" on="0"/>
        <pt x="341" y="477" on="0"/>
        <pt x="300" y="477" on="1"/>
        <pt x="280" y="477" on="1"/>
        <pt x="250" y="268" on="1"/>
        <pt x="271" y="268" on="1"/>
        <pt x="323" y="268" on="0"/>
        <pt x="385" y="335" on="0"/>
      </contour>
    </TTGlyph>
    <TTGlyph name="U" xMin="52" yMin="-13" xMax="668" yMax="725">
      <contour>
        <pt x="599" y="264" on="1"/>
        <pt x="577" y="121" on="0"/>
        <pt x="430" y="-13" on="0"/>
        <pt x="301" y="-13" on="1"/>
        <pt x="181" y="-13" on="0"/>
        <pt x="52" y="98" on="0"/>
        <pt x="52" y="208" on="1"/>
        <pt x="52" y="228" on="0"/>
        <pt x="55" y="265" on="0"/>
        <pt x="57" y="282" on="1"/>
        <pt x="122" y="725" on="1"/>
        <pt x="316" y="725" on="1"/>
        <pt x="249" y="269" on="1"/>
        <pt x="247" y="255" on="0"/>
        <pt x="244" y="230" on="0"/>
        <pt x="244" y="216" on="1"/>
        <pt x="244" y="183" on="0"/>
        <pt x="279" y="146" on="0"/>
        <pt x="312" y="146" on="1"/>
        <pt x="352" y="146" on="0"/>
        <pt x="396" y="201" on="0"/>
        <pt x="404" y="253" on="1"/>
        <pt x="474" y="725" on="1"/>
        <pt x="668" y="725" on="1"/>
      </contour>
    </TTGlyph>
    <TTGlyph name="U.alt" xMin="46" yMin="-8" xMax="665" yMax="725">
      <contour>
        <pt x="557" y="0" on="1"/>
        <pt x="392" y="0" on="1"/>
        <pt x="392" y="59" on="1"/>
        <pt x="346" y="27" on="0"/>
        <pt x="258" y="-8" on="0"/>
        <pt x="207" y="-8" on="1"/>
        <pt x="132" y="-8" on="0"/>
        <pt x="46" y="73" on="0"/>
        <pt x="47" y="153" on="1"/>
        <pt x="47" y="170" on="0"/>
        <pt x="51" y="214" on="0"/>
        <pt x="53" y="233" on="1"/>
        <pt x="126" y="725" on="1"/>
        <pt x="319" y="725" on="1"/>
        <pt x="248" y="247" on="1"/>
        <pt x="246" y="236" on="0"/>
        <pt x="244" y="218" on="0"/>
        <pt x="244" y="213" on="1"/>
        <pt x="244" y="190" on="0"/>
        <pt x="267" y="161" on="0"/>
        <pt x="295" y="161" on="1"/>
        <pt x="338" y="161" on="0"/>
        <pt x="394" y="201" on="1"/>
        <pt x="472" y="725" on="1"/>
        <pt x="665" y="725" on="1"/>
      </contour>
    </TTGlyph>
    <TTGlyph name="Uacute" xMin="52" yMin="-13" xMax="668" yMax="926">
      <component glyphName="acute.cap" x="199" y="200" flags="0x4"/>
      <component glyphName="U" x="0" y="0" flags="0x4"/>
    </TTGlyph>
    <TTGlyph name="Uacute.alt" xMin="46" yMin="-8" xMax="665" yMax="926">
      <component glyphName="acute.cap" x="200" y="200" flags="0x4"/>
      <component glyphName="U.alt" x="0" y="0" flags="0x4"/>
    </TTGlyph>
    <TTGlyph name="Ubreve" xMin="52" yMin="-13" xMax="668" yMax="925">
      <component glyphName="breve.cap" x="146" y="198" flags="0x4"/>
      <component glyphName="U" x="0" y="0" flags="0x4"/>
    </TTGlyph>
    <TTGlyph name="Ubreve.alt" xMin="46" yMin="-8" xMax="665" yMax="925">
      <component glyphName="breve.cap" x="148" y="198" flags="0x4"/>
      <component glyphName="U.alt" x="0" y="0" flags="0x4"/>
    </TTGlyph>
    <TTGlyph name="Ucircumflex" xMin="52" yMin="-13" xMax="668" yMax="924">
      <component glyphName="U" x="0" y="0" flags="0x204"/>
      <component glyphName="circumflex.cap" x="140" y="200" flags="0x4"/>
    </TTGlyph>
    <TTGlyph name="Ucircumflex.alt" xMin="46" yMin="-8" xMax="665" yMax="924">
      <component glyphName="circumflex.cap" x="142" y="200" flags="0x4"/>
      <component glyphName="U.alt" x="0" y="0" flags="0x4"/>
    </TTGlyph>
    <TTGlyph name="Udieresis" xMin="52" yMin="-13" xMax="668" yMax="912">
      <component glyphName="dieresis.cap" x="142" y="200" flags="0x4"/>
      <component glyphName="U" x="0" y="0" flags="0x4"/>
    </TTGlyph>
    <TTGlyph name="Udieresis.alt" xMin="46" yMin="-8" xMax="665" yMax="912">
      <component glyphName="dieresis.cap" x="144" y="200" flags="0x4"/>
      <component glyphName="U.alt" x="0" y="0" flags="0x4"/>
    </TTGlyph>
    <TTGlyph name="Ugrave" xMin="52" yMin="-13" xMax="668" yMax="926">
      <component glyphName="grave.cap" x="77" y="200" flags="0x4"/>
      <component glyphName="U" x="0" y="0" flags="0x4"/>
    </TTGlyph>
    <TTGlyph name="Ugrave.alt" xMin="46" yMin="-8" xMax="665" yMax="926">
      <component glyphName="grave.cap" x="78" y="200" flags="0x4"/>
      <component glyphName="U.alt" x="0" y="0" flags="0x4"/>
    </TTGlyph>
    <TTGlyph name="Uhungarumlaut" xMin="52" yMin="-13" xMax="668" yMax="926">
      <component glyphName="U" x="0" y="0" flags="0x204"/>
      <component glyphName="hungarumlaut.cap" x="187" y="200" flags="0x4"/>
    </TTGlyph>
    <TTGlyph name="Uhungarumlaut.alt" xMin="46" yMin="-8" xMax="669" yMax="926">
      <component glyphName="U.alt" x="0" y="0" flags="0x204"/>
      <component glyphName="hungarumlaut.cap" x="188" y="200" flags="0x4"/>
    </TTGlyph>
    <TTGlyph name="Umacron" xMin="52" yMin="-13" xMax="668" yMax="892">
      <component glyphName="macron.cap" x="142" y="200" flags="0x4"/>
      <component glyphName="U" x="0" y="0" flags="0x4"/>
    </TTGlyph>
    <TTGlyph name="Umacron.alt" xMin="46" yMin="-8" xMax="665" yMax="892">
      <component glyphName="macron.cap" x="144" y="200" flags="0x4"/>
      <component glyphName="U.alt" x="0" y="0" flags="0x4"/>
    </TTGlyph>
    <TTGlyph name="Uogonek" xMin="54" yMin="-213" xMax="670" yMax="725">
      <contour>
        <pt x="601" y="264" on="1"/>
        <pt x="581" y="129" on="0"/>
        <pt x="447" y="-4" on="0"/>
        <pt x="332" y="-12" on="1"/>
        <pt x="323" y="-24" on="1"/>
        <pt x="305" y="-50" on="0"/>
        <pt x="289" y="-80" on="0"/>
        <pt x="289" y="-92" on="1"/>
        <pt x="289" y="-120" on="0"/>
        <pt x="326" y="-120" on="1"/>
        <pt x="339" y="-120" on="0"/>
        <pt x="360" y="-117" on="0"/>
        <pt x="374" y="-114" on="1"/>
        <pt x="362" y="-194" on="1"/>
        <pt x="339" y="-202" on="0"/>
        <pt x="293" y="-213" on="0"/>
        <pt x="261" y="-213" on="1"/>
        <pt x="213" y="-213" on="0"/>
        <pt x="163" y="-171" on="0"/>
        <pt x="163" y="-133" on="1"/>
        <pt x="163" y="-106" on="0"/>
        <pt x="193" y="-51" on="0"/>
        <pt x="223" y="-18" on="1"/>
        <pt x="226" y="-14" on="0"/>
        <pt x="233" y="-7" on="1"/>
        <pt x="146" y="7" on="0"/>
        <pt x="54" y="115" on="0"/>
        <pt x="54" y="208" on="1"/>
        <pt x="54" y="228" on="0"/>
        <pt x="57" y="265" on="0"/>
        <pt x="59" y="282" on="1"/>
        <pt x="124" y="725" on="1"/>
        <pt x="318" y="725" on="1"/>
        <pt x="251" y="269" on="1"/>
        <pt x="249" y="255" on="0"/>
        <pt x="246" y="230" on="0"/>
        <pt x="246" y="216" on="1"/>
        <pt x="246" y="183" on="0"/>
        <pt x="281" y="146" on="0"/>
        <pt x="314" y="146" on="1"/>
        <pt x="354" y="146" on="0"/>
        <pt x="398" y="201" on="0"/>
        <pt x="406" y="253" on="1"/>
        <pt x="476" y="725" on="1"/>
        <pt x="670" y="725" on="1"/>
      </contour>
    </TTGlyph>
    <TTGlyph name="Uogonek.alt" xMin="46" yMin="-213" xMax="665" yMax="725">
      <contour>
        <pt x="514" y="-194" on="1"/>
        <pt x="491" y="-202" on="0"/>
        <pt x="445" y="-213" on="0"/>
        <pt x="413" y="-213" on="1"/>
        <pt x="365" y="-213" on="0"/>
        <pt x="315" y="-171" on="0"/>
        <pt x="315" y="-133" on="1"/>
        <pt x="315" y="-103" on="0"/>
        <pt x="354" y="-39" on="0"/>
        <pt x="392" y="0" on="1"/>
        <pt x="392" y="59" on="1"/>
        <pt x="346" y="27" on="0"/>
        <pt x="258" y="-8" on="0"/>
        <pt x="207" y="-8" on="1"/>
        <pt x="132" y="-8" on="0"/>
        <pt x="46" y="73" on="0"/>
        <pt x="47" y="153" on="1"/>
        <pt x="47" y="170" on="0"/>
        <pt x="51" y="214" on="0"/>
        <pt x="53" y="233" on="1"/>
        <pt x="126" y="725" on="1"/>
        <pt x="319" y="725" on="1"/>
        <pt x="248" y="247" on="1"/>
        <pt x="246" y="236" on="0"/>
        <pt x="244" y="218" on="0"/>
        <pt x="244" y="213" on="1"/>
        <pt x="244" y="190" on="0"/>
        <pt x="267" y="161" on="0"/>
        <pt x="295" y="161" on="1"/>
        <pt x="338" y="161" on="0"/>
        <pt x="394" y="201" on="1"/>
        <pt x="472" y="725" on="1"/>
        <pt x="665" y="725" on="1"/>
        <pt x="557" y="0" on="1"/>
        <pt x="493" y="0" on="1"/>
        <pt x="488" y="-7" on="1"/>
        <pt x="463" y="-41" on="0"/>
        <pt x="441" y="-78" on="0"/>
        <pt x="441" y="-92" on="1"/>
        <pt x="441" y="-120" on="0"/>
        <pt x="478" y="-120" on="1"/>
        <pt x="491" y="-120" on="0"/>
        <pt x="512" y="-117" on="0"/>
        <pt x="526" y="-114" on="1"/>
        <pt x="514" y="-194" on="1"/>
      </contour>
    </TTGlyph>
    <TTGlyph name="Uring" xMin="52" yMin="-13" xMax="668" yMax="997">
      <component glyphName="U" x="0" y="0" flags="0x204"/>
      <component glyphName="ring.cap" x="131" y="195" flags="0x4"/>
    </TTGlyph>
    <TTGlyph name="Uring.alt" xMin="46" yMin="-8" xMax="665" yMax="997">
      <component glyphName="ring.cap" x="133" y="195" flags="0x4"/>
      <component glyphName="U.alt" x="0" y="0" flags="0x4"/>
    </TTGlyph>
    <TTGlyph name="V" xMin="85" yMin="-2" xMax="701" yMax="732">
      <contour>
        <pt x="387" y="-2" on="1"/>
        <pt x="183" y="-2" on="1"/>
        <pt x="85" y="699" on="1"/>
        <pt x="288" y="732" on="1"/>
        <pt x="327" y="242" on="1"/>
        <pt x="505" y="725" on="1"/>
        <pt x="701" y="725" on="1"/>
      </contour>
    </TTGlyph>
    <TTGlyph name="V.flat" xMin="82" yMin="-2" xMax="702" yMax="725">
      <contour>
        <pt x="387" y="-2" on="1"/>
        <pt x="184" y="-2" on="1"/>
        <pt x="82" y="725" on="1"/>
        <pt x="290" y="725" on="1"/>
        <pt x="328" y="242" on="1"/>
        <pt x="506" y="725" on="1"/>
        <pt x="702" y="725" on="1"/>
      </contour>
    </TTGlyph>
    <TTGlyph name="W" xMin="85" yMin="0" xMax="998" yMax="734">
      <contour>
        <pt x="722" y="0" on="1"/>
        <pt x="529" y="0" on="1"/>
        <pt x="497" y="448" on="1"/>
        <pt x="334" y="0" on="1"/>
        <pt x="144" y="0" on="1"/>
        <pt x="85" y="703" on="1"/>
        <pt x="292" y="734" on="1"/>
        <pt x="302" y="289" on="1"/>
        <pt x="454" y="725" on="1"/>
        <pt x="652" y="725" on="1"/>
        <pt x="675" y="289" on="1"/>
        <pt x="813" y="725" on="1"/>
        <pt x="998" y="725" on="1"/>
      </contour>
    </TTGlyph>
    <TTGlyph name="W.alt" xMin="82" yMin="-1" xMax="999" yMax="734">
      <contour>
        <pt x="641" y="263" on="1"/>
        <pt x="804" y="725" on="1"/>
        <pt x="999" y="725" on="1"/>
        <pt x="695" y="-1" on="1"/>
        <pt x="510" y="-1" on="1"/>
        <pt x="474" y="295" on="1"/>
        <pt x="354" y="-1" on="1"/>
        <pt x="168" y="-1" on="1"/>
        <pt x="82" y="703" on="1"/>
        <pt x="282" y="734" on="1"/>
        <pt x="321" y="257" on="1"/>
        <pt x="436" y="543" on="1"/>
        <pt x="417" y="705" on="1"/>
        <pt x="610" y="733" on="1"/>
      </contour>
    </TTGlyph>
    <TTGlyph name="W.alt_flat" xMin="80" yMin="-1" xMax="1001" yMax="725">
      <contour>
        <pt x="642" y="263" on="1"/>
        <pt x="805" y="725" on="1"/>
        <pt x="1001" y="725" on="1"/>
        <pt x="696" y="-1" on="1"/>
        <pt x="511" y="-1" on="1"/>
        <pt x="475" y="294" on="1"/>
        <pt x="355" y="-1" on="1"/>
        <pt x="169" y="-1" on="1"/>
        <pt x="80" y="725" on="1"/>
        <pt x="284" y="725" on="1"/>
        <pt x="323" y="257" on="1"/>
        <pt x="437" y="540" on="1"/>
        <pt x="415" y="725" on="1"/>
        <pt x="612" y="725" on="1"/>
      </contour>
    </TTGlyph>
    <TTGlyph name="W.flat" xMin="85" yMin="0" xMax="998" yMax="725">
      <contour>
        <pt x="722" y="0" on="1"/>
        <pt x="530" y="0" on="1"/>
        <pt x="499" y="448" on="1"/>
        <pt x="335" y="0" on="1"/>
        <pt x="145" y="0" on="1"/>
        <pt x="85" y="725" on="1"/>
        <pt x="293" y="725" on="1"/>
        <pt x="304" y="289" on="1"/>
        <pt x="455" y="725" on="1"/>
        <pt x="654" y="725" on="1"/>
        <pt x="676" y="289" on="1"/>
        <pt x="815" y="725" on="1"/>
        <pt x="998" y="725" on="1"/>
      </contour>
    </TTGlyph>
    <TTGlyph name="Wacute" xMin="85" yMin="0" xMax="998" yMax="927">
      <component glyphName="acute.cap" x="359" y="201" flags="0x4"/>
      <component glyphName="W" x="0" y="0" flags="0x4"/>
    </TTGlyph>
    <TTGlyph name="Wacute.alt" xMin="82" yMin="-1" xMax="999" yMax="927">
      <component glyphName="acute.cap" x="342" y="201" flags="0x4"/>
      <component glyphName="W.alt" x="0" y="0" flags="0x4"/>
    </TTGlyph>
    <TTGlyph name="Wacute.alt_flat" xMin="80" yMin="-1" xMax="1001" yMax="927">
      <component glyphName="acute.cap" x="344" y="201" flags="0x4"/>
      <component glyphName="W.alt_flat" x="0" y="0" flags="0x4"/>
    </TTGlyph>
    <TTGlyph name="Wacute.flat" xMin="85" yMin="0" xMax="998" yMax="927">
      <component glyphName="acute.cap" x="360" y="201" flags="0x4"/>
      <component glyphName="W.flat" x="0" y="0" flags="0x4"/>
    </TTGlyph>
    <TTGlyph name="Wcircumflex" xMin="85" yMin="0" xMax="998" yMax="925">
      <component glyphName="W" x="0" y="0" flags="0x204"/>
      <component glyphName="circumflex.cap" x="302" y="201" flags="0x4"/>
    </TTGlyph>
    <TTGlyph name="Wcircumflex.alt" xMin="82" yMin="-1" xMax="999" yMax="925">
      <component glyphName="W.alt" x="0" y="0" flags="0x204"/>
      <component glyphName="circumflex.cap" x="284" y="201" flags="0x4"/>
    </TTGlyph>
    <TTGlyph name="Wcircumflex.alt_flat" xMin="80" yMin="-1" xMax="1001" yMax="925">
      <component glyphName="W.alt_flat" x="0" y="0" flags="0x204"/>
      <component glyphName="circumflex.cap" x="285" y="201" flags="0x4"/>
    </TTGlyph>
    <TTGlyph name="Wcircumflex.flat" xMin="85" yMin="0" xMax="998" yMax="925">
      <component glyphName="W.flat" x="0" y="0" flags="0x204"/>
      <component glyphName="circumflex.cap" x="303" y="201" flags="0x4"/>
    </TTGlyph>
    <TTGlyph name="Wdieresis" xMin="85" yMin="0" xMax="998" yMax="913">
      <component glyphName="dieresis.cap" x="304" y="201" flags="0x4"/>
      <component glyphName="W" x="0" y="0" flags="0x4"/>
    </TTGlyph>
    <TTGlyph name="Wdieresis.alt" xMin="82" yMin="-1" xMax="999" yMax="913">
      <component glyphName="dieresis.cap" x="286" y="201" flags="0x4"/>
      <component glyphName="W.alt" x="0" y="0" flags="0x4"/>
    </TTGlyph>
    <TTGlyph name="Wdieresis.alt_flat" xMin="80" yMin="-1" xMax="1001" yMax="913">
      <component glyphName="dieresis.cap" x="288" y="201" flags="0x4"/>
      <component glyphName="W.alt_flat" x="0" y="0" flags="0x4"/>
    </TTGlyph>
    <TTGlyph name="Wdieresis.flat" xMin="85" yMin="0" xMax="998" yMax="913">
      <component glyphName="dieresis.cap" x="305" y="201" flags="0x4"/>
      <component glyphName="W.flat" x="0" y="0" flags="0x4"/>
    </TTGlyph>
    <TTGlyph name="Wgrave" xMin="85" yMin="0" xMax="998" yMax="927">
      <component glyphName="grave.cap" x="238" y="201" flags="0x4"/>
      <component glyphName="W" x="0" y="0" flags="0x4"/>
    </TTGlyph>
    <TTGlyph name="Wgrave.alt" xMin="82" yMin="-1" xMax="999" yMax="927">
      <component glyphName="grave.cap" x="221" y="201" flags="0x4"/>
      <component glyphName="W.alt" x="0" y="0" flags="0x4"/>
    </TTGlyph>
    <TTGlyph name="Wgrave.alt_flat" xMin="80" yMin="-1" xMax="1001" yMax="927">
      <component glyphName="grave.cap" x="222" y="201" flags="0x4"/>
      <component glyphName="W.alt_flat" x="0" y="0" flags="0x4"/>
    </TTGlyph>
    <TTGlyph name="Wgrave.flat" xMin="85" yMin="0" xMax="998" yMax="927">
      <component glyphName="grave.cap" x="239" y="201" flags="0x4"/>
      <component glyphName="W.flat" x="0" y="0" flags="0x4"/>
    </TTGlyph>
    <TTGlyph name="X" xMin="-28" yMin="-9" xMax="661" yMax="734">
      <contour>
        <pt x="436" y="377" on="1"/>
        <pt x="577" y="21" on="1"/>
        <pt x="378" y="-9" on="1"/>
        <pt x="302" y="223" on="1"/>
        <pt x="179" y="-1" on="1"/>
        <pt x="-28" y="-1" on="1"/>
        <pt x="216" y="374" on="1"/>
        <pt x="86" y="704" on="1"/>
        <pt x="286" y="734" on="1"/>
        <pt x="350" y="533" on="1"/>
        <pt x="454" y="725" on="1"/>
        <pt x="661" y="725" on="1"/>
      </contour>
    </TTGlyph>
    <TTGlyph name="X.flat" xMin="-28" yMin="-1" xMax="664" yMax="725">
      <contour>
        <pt x="436" y="375" on="1"/>
        <pt x="583" y="0" on="1"/>
        <pt x="373" y="0" on="1"/>
        <pt x="302" y="220" on="1"/>
        <pt x="179" y="-1" on="1"/>
        <pt x="-28" y="-1" on="1"/>
        <pt x="216" y="373" on="1"/>
        <pt x="78" y="725" on="1"/>
        <pt x="289" y="725" on="1"/>
        <pt x="350" y="531" on="1"/>
        <pt x="456" y="725" on="1"/>
        <pt x="664" y="725" on="1"/>
      </contour>
    </TTGlyph>
    <TTGlyph name="Y" xMin="71" yMin="0" xMax="696" yMax="734">
      <contour>
        <pt x="408" y="256" on="1"/>
        <pt x="370" y="0" on="1"/>
        <pt x="176" y="0" on="1"/>
        <pt x="214" y="251" on="1"/>
        <pt x="71" y="705" on="1"/>
        <pt x="271" y="734" on="1"/>
        <pt x="344" y="449" on="1"/>
        <pt x="486" y="725" on="1"/>
        <pt x="696" y="725" on="1"/>
      </contour>
    </TTGlyph>
    <TTGlyph name="Y.flat" xMin="67" yMin="0" xMax="698" yMax="725">
      <contour>
        <pt x="411" y="256" on="1"/>
        <pt x="373" y="0" on="1"/>
        <pt x="179" y="0" on="1"/>
        <pt x="217" y="251" on="1"/>
        <pt x="67" y="725" on="1"/>
        <pt x="276" y="725" on="1"/>
        <pt x="346" y="449" on="1"/>
        <pt x="488" y="725" on="1"/>
        <pt x="698" y="725" on="1"/>
      </contour>
    </TTGlyph>
    <TTGlyph name="Yacute" xMin="71" yMin="0" xMax="696" yMax="926">
      <component glyphName="Y" x="0" y="0" flags="0x204"/>
      <component glyphName="acute.cap" x="181" y="200" flags="0x4"/>
    </TTGlyph>
    <TTGlyph name="Yacute.flat" xMin="67" yMin="0" xMax="698" yMax="926">
      <component glyphName="acute.cap" x="184" y="200" flags="0x4"/>
      <component glyphName="Y.flat" x="0" y="0" flags="0x4"/>
    </TTGlyph>
    <TTGlyph name="Ycircumflex" xMin="71" yMin="0" xMax="696" yMax="924">
      <component glyphName="Y" x="0" y="0" flags="0x204"/>
      <component glyphName="circumflex.cap" x="123" y="200" flags="0x4"/>
    </TTGlyph>
    <TTGlyph name="Ycircumflex.flat" xMin="67" yMin="0" xMax="698" yMax="924">
      <component glyphName="Y.flat" x="0" y="0" flags="0x204"/>
      <component glyphName="circumflex.cap" x="126" y="200" flags="0x4"/>
    </TTGlyph>
    <TTGlyph name="Ydieresis" xMin="71" yMin="0" xMax="696" yMax="912">
      <component glyphName="Y" x="0" y="0" flags="0x204"/>
      <component glyphName="dieresis.cap" x="125" y="200" flags="0x4"/>
    </TTGlyph>
    <TTGlyph name="Ydieresis.flat" xMin="67" yMin="0" xMax="698" yMax="912">
      <component glyphName="dieresis.cap" x="128" y="200" flags="0x4"/>
      <component glyphName="Y.flat" x="0" y="0" flags="0x4"/>
    </TTGlyph>
    <TTGlyph name="Ygrave" xMin="71" yMin="0" xMax="696" yMax="926">
      <component glyphName="Y" x="0" y="0" flags="0x204"/>
      <component glyphName="grave.cap" x="59" y="200" flags="0x4"/>
    </TTGlyph>
    <TTGlyph name="Ygrave.flat" xMin="67" yMin="0" xMax="698" yMax="926">
      <component glyphName="grave.cap" x="62" y="200" flags="0x4"/>
      <component glyphName="Y.flat" x="0" y="0" flags="0x4"/>
    </TTGlyph>
    <TTGlyph name="Z" xMin="-4" yMin="0" xMax="594" yMax="725">
      <contour>
        <pt x="572" y="582" on="1"/>
        <pt x="250" y="154" on="1"/>
        <pt x="495" y="154" on="1"/>
        <pt x="495" y="0" on="1"/>
        <pt x="-4" y="0" on="1"/>
        <pt x="18" y="144" on="1"/>
        <pt x="341" y="571" on="1"/>
        <pt x="114" y="571" on="1"/>
        <pt x="114" y="725" on="1"/>
        <pt x="594" y="725" on="1"/>
      </contour>
    </TTGlyph>
    <TTGlyph name="Z.flat" xMin="-4" yMin="0" xMax="594" yMax="725">
      <contour>
        <pt x="572" y="582" on="1"/>
        <pt x="250" y="154" on="1"/>
        <pt x="507" y="154" on="1"/>
        <pt x="484" y="0" on="1"/>
        <pt x="-4" y="0" on="1"/>
        <pt x="18" y="144" on="1"/>
        <pt x="341" y="571" on="1"/>
        <pt x="102" y="571" on="1"/>
        <pt x="124" y="725" on="1"/>
        <pt x="594" y="725" on="1"/>
      </contour>
    </TTGlyph>
    <TTGlyph name="Zacute" xMin="-4" yMin="0" xMax="594" yMax="927">
      <component glyphName="Z" x="0" y="0" flags="0x204"/>
      <component glyphName="acute.cap" x="156" y="201" flags="0x4"/>
    </TTGlyph>
    <TTGlyph name="Zacute.flat" xMin="-4" yMin="0" xMax="594" yMax="927">
      <component glyphName="acute.cap" x="156" y="201" flags="0x4"/>
      <component glyphName="Z.flat" x="0" y="0" flags="0x4"/>
    </TTGlyph>
    <TTGlyph name="Zcaron" xMin="-4" yMin="0" xMax="594" yMax="925">
      <component glyphName="caron.cap" x="101" y="201" flags="0x4"/>
      <component glyphName="Z" x="0" y="0" flags="0x4"/>
    </TTGlyph>
    <TTGlyph name="Zcaron.flat" xMin="-4" yMin="0" xMax="594" yMax="925">
      <component glyphName="caron.cap" x="101" y="201" flags="0x4"/>
      <component glyphName="Z.flat" x="0" y="0" flags="0x4"/>
    </TTGlyph>
    <TTGlyph name="Zdotaccent" xMin="-4" yMin="0" xMax="594" yMax="913">
      <component glyphName="dotaccent.cap" x="101" y="201" flags="0x4"/>
      <component glyphName="Z" x="0" y="0" flags="0x4"/>
    </TTGlyph>
    <TTGlyph name="Zdotaccent.flat" xMin="-4" yMin="0" xMax="594" yMax="913">
      <component glyphName="dotaccent.cap" x="101" y="201" flags="0x4"/>
      <component glyphName="Z.flat" x="0" y="0" flags="0x4"/>
    </TTGlyph>
    <TTGlyph name="a" xMin="29" yMin="-11" xMax="546" yMax="559">
      <contour>
        <pt x="314" y="86" on="1"/>
        <pt x="281" y="43" on="0"/>
        <pt x="208" y="-11" on="0"/>
        <pt x="165" y="-11" on="1"/>
        <pt x="103" y="-11" on="0"/>
        <pt x="29" y="86" on="0"/>
        <pt x="29" y="176" on="1"/>
        <pt x="29" y="267" on="0"/>
        <pt x="78" y="409" on="0"/>
        <pt x="164" y="507" on="0"/>
        <pt x="283" y="559" on="0"/>
        <pt x="354" y="559" on="1"/>
        <pt x="402" y="559" on="0"/>
        <pt x="502" y="539" on="0"/>
        <pt x="546" y="521" on="1"/>
        <pt x="488" y="136" on="1"/>
        <pt x="488" y="0" on="1"/>
        <pt x="320" y="0" on="1"/>
      </contour>
      <contour>
        <pt x="355" y="413" on="1"/>
        <pt x="341" y="419" on="0"/>
        <pt x="327" y="419" on="1"/>
        <pt x="304" y="419" on="0"/>
        <pt x="260" y="387" on="0"/>
        <pt x="227" y="332" on="0"/>
        <pt x="207" y="259" on="0"/>
        <pt x="207" y="218" on="1"/>
        <pt x="207" y="182" on="0"/>
        <pt x="231" y="147" on="0"/>
        <pt x="248" y="147" on="1"/>
        <pt x="266" y="147" on="0"/>
        <pt x="300" y="170" on="0"/>
        <pt x="323" y="196" on="1"/>
      </contour>
    </TTGlyph>
    <TTGlyph name="a.alt" xMin="13" yMin="-11" xMax="501" yMax="562">
      <contour>
        <pt x="320" y="359" on="1"/>
        <pt x="321" y="364" on="0"/>
        <pt x="321" y="372" on="0"/>
        <pt x="321" y="377" on="1"/>
        <pt x="321" y="403" on="0"/>
        <pt x="293" y="425" on="0"/>
        <pt x="260" y="425" on="1"/>
        <pt x="227" y="425" on="0"/>
        <pt x="147" y="403" on="0"/>
        <pt x="102" y="383" on="1"/>
        <pt x="102" y="519" on="1"/>
        <pt x="149" y="538" on="0"/>
        <pt x="254" y="562" on="0"/>
        <pt x="314" y="562" on="1"/>
        <pt x="410" y="562" on="0"/>
        <pt x="501" y="489" on="0"/>
        <pt x="501" y="412" on="1"/>
        <pt x="501" y="387" on="0"/>
        <pt x="497" y="364" on="1"/>
        <pt x="459" y="118" on="1"/>
        <pt x="458" y="0" on="1"/>
        <pt x="290" y="0" on="1"/>
        <pt x="285" y="69" on="1"/>
        <pt x="253" y="33" on="0"/>
        <pt x="181" y="-11" on="0"/>
        <pt x="135" y="-11" on="1"/>
        <pt x="78" y="-11" on="0"/>
        <pt x="13" y="62" on="0"/>
        <pt x="13" y="123" on="1"/>
        <pt x="13" y="219" on="0"/>
        <pt x="163" y="329" on="0"/>
        <pt x="317" y="338" on="1"/>
      </contour>
      <contour>
        <pt x="218" y="113" on="1"/>
        <pt x="235" y="113" on="0"/>
        <pt x="268" y="133" on="0"/>
        <pt x="287" y="152" on="1"/>
        <pt x="304" y="254" on="1"/>
        <pt x="271" y="250" on="0"/>
        <pt x="226" y="228" on="0"/>
        <pt x="197" y="200" on="0"/>
        <pt x="185" y="167" on="0"/>
        <pt x="185" y="152" on="1"/>
        <pt x="185" y="133" on="0"/>
        <pt x="204" y="113" on="0"/>
      </contour>
    </TTGlyph>
    <TTGlyph name="aacute" xMin="29" yMin="-11" xMax="577" yMax="778">
      <component glyphName="a" x="0" y="0" flags="0x204"/>
      <component glyphName="acute" x="141" y="3" flags="0x4"/>
    </TTGlyph>
    <TTGlyph name="aacute.alt" xMin="13" yMin="-11" xMax="540" yMax="778">
      <component glyphName="acute" x="104" y="3" flags="0x4"/>
      <component glyphName="a.alt" x="0" y="0" flags="0x4"/>
    </TTGlyph>
    <TTGlyph name="abreve" xMin="29" yMin="-11" xMax="546" yMax="778">
      <component glyphName="a" x="0" y="0" flags="0x204"/>
      <component glyphName="breve" x="84" y="3" flags="0x4"/>
    </TTGlyph>
    <TTGlyph name="abreve.alt" xMin="13" yMin="-11" xMax="508" yMax="778">
      <component glyphName="a.alt" x="0" y="0" flags="0x204"/>
      <component glyphName="breve" x="47" y="3" flags="0x4"/>
    </TTGlyph>
    <TTGlyph name="acircumflex" xMin="29" yMin="-11" xMax="546" yMax="775">
      <component glyphName="a" x="0" y="0" flags="0x204"/>
      <component glyphName="circumflex" x="79" y="3" flags="0x4"/>
    </TTGlyph>
    <TTGlyph name="acircumflex.alt" xMin="13" yMin="-11" xMax="501" yMax="775">
      <component glyphName="circumflex" x="41" y="3" flags="0x4"/>
      <component glyphName="a.alt" x="0" y="0" flags="0x4"/>
    </TTGlyph>
    <TTGlyph name="acute" xMin="153" yMin="605" xMax="436" yMax="775">
      <contour>
        <pt x="263" y="605" on="1"/>
        <pt x="153" y="605" on="1"/>
        <pt x="232" y="775" on="1"/>
        <pt x="436" y="738" on="1"/>
      </contour>
    </TTGlyph>
    <TTGlyph name="acute.cap" xMin="143" yMin="567" xMax="410" yMax="726">
      <contour>
        <pt x="247" y="567" on="1"/>
        <pt x="143" y="567" on="1"/>
        <pt x="217" y="726" on="1"/>
        <pt x="410" y="692" on="1"/>
      </contour>
    </TTGlyph>
    <TTGlyph name="adieresis" xMin="29" yMin="-11" xMax="550" yMax="761">
      <component glyphName="a" x="0" y="0" flags="0x204"/>
      <component glyphName="dieresis" x="81" y="3" flags="0x4"/>
    </TTGlyph>
    <TTGlyph name="adieresis.alt" xMin="13" yMin="-11" xMax="513" yMax="761">
      <component glyphName="dieresis" x="44" y="3" flags="0x4"/>
      <component glyphName="a.alt" x="0" y="0" flags="0x4"/>
    </TTGlyph>
    <TTGlyph name="ae" xMin="12" yMin="-11" xMax="770" yMax="563">
      <contour>
        <pt x="770" y="361" on="1"/>
        <pt x="770" y="324" on="0"/>
        <pt x="761" y="259" on="0"/>
        <pt x="753" y="230" on="1"/>
        <pt x="470" y="230" on="1"/>
        <pt x="470" y="224" on="1"/>
        <pt x="472" y="167" on="0"/>
        <pt x="523" y="120" on="0"/>
        <pt x="568" y="120" on="1"/>
        <pt x="608" y="120" on="0"/>
        <pt x="684" y="144" on="0"/>
        <pt x="722" y="164" on="1"/>
        <pt x="722" y="37" on="1"/>
        <pt x="677" y="14" on="0"/>
        <pt x="587" y="-11" on="0"/>
        <pt x="530" y="-11" on="1"/>
        <pt x="470" y="-11" on="0"/>
        <pt x="377" y="30" on="0"/>
        <pt x="347" y="68" on="1"/>
        <pt x="302" y="33" on="0"/>
        <pt x="204" y="-11" on="0"/>
        <pt x="150" y="-11" on="1"/>
        <pt x="87" y="-11" on="0"/>
        <pt x="12" y="60" on="0"/>
        <pt x="12" y="126" on="1"/>
        <pt x="12" y="218" on="0"/>
        <pt x="162" y="328" on="0"/>
        <pt x="315" y="339" on="1"/>
        <pt x="317" y="358" on="1"/>
        <pt x="318" y="363" on="0"/>
        <pt x="319" y="373" on="0"/>
        <pt x="319" y="378" on="1"/>
        <pt x="319" y="425" on="0"/>
        <pt x="258" y="425" on="1"/>
        <pt x="225" y="425" on="0"/>
        <pt x="146" y="402" on="0"/>
        <pt x="99" y="382" on="1"/>
        <pt x="99" y="518" on="1"/>
        <pt x="147" y="538" on="0"/>
        <pt x="250" y="562" on="0"/>
        <pt x="301" y="562" on="1"/>
        <pt x="399" y="562" on="0"/>
        <pt x="435" y="511" on="1"/>
        <pt x="465" y="536" on="0"/>
        <pt x="538" y="563" on="0"/>
        <pt x="581" y="563" on="1"/>
        <pt x="628" y="563" on="0"/>
        <pt x="699" y="532" on="0"/>
        <pt x="746" y="477" on="0"/>
        <pt x="770" y="403" on="0"/>
      </contour>
      <contour>
        <pt x="608" y="332" on="1"/>
        <pt x="612" y="352" on="0"/>
        <pt x="612" y="374" on="1"/>
        <pt x="612" y="406" on="0"/>
        <pt x="589" y="442" on="0"/>
        <pt x="566" y="442" on="1"/>
        <pt x="538" y="442" on="0"/>
        <pt x="492" y="380" on="0"/>
        <pt x="481" y="332" on="1"/>
      </contour>
      <contour>
        <pt x="310" y="154" on="1"/>
        <pt x="302" y="189" on="0"/>
        <pt x="302" y="224" on="1"/>
        <pt x="302" y="254" on="1"/>
        <pt x="235" y="241" on="0"/>
        <pt x="184" y="187" on="0"/>
        <pt x="184" y="158" on="1"/>
        <pt x="184" y="136" on="0"/>
        <pt x="207" y="114" on="0"/>
        <pt x="226" y="114" on="1"/>
        <pt x="261" y="114" on="0"/>
      </contour>
    </TTGlyph>
    <TTGlyph name="aeacute" xMin="12" yMin="-11" xMax="770" yMax="775">
      <component glyphName="acute" x="227" y="0" flags="0x4"/>
      <component glyphName="ae" x="0" y="0" flags="0x4"/>
    </TTGlyph>
    <TTGlyph name="agrave" xMin="29" yMin="-11" xMax="546" yMax="778">
      <component glyphName="a" x="0" y="0" flags="0x204"/>
      <component glyphName="grave" x="12" y="3" flags="0x4"/>
    </TTGlyph>
    <TTGlyph name="agrave.alt" xMin="13" yMin="-11" xMax="501" yMax="778">
      <component glyphName="a.alt" x="0" y="0" flags="0x204"/>
      <component glyphName="grave" x="-26" y="3" flags="0x4"/>
    </TTGlyph>
    <TTGlyph name="amacron" xMin="29" yMin="-11" xMax="546" yMax="740">
      <component glyphName="a" x="0" y="0" flags="0x204"/>
      <component glyphName="macron" x="81" y="3" flags="0x4"/>
    </TTGlyph>
    <TTGlyph name="amacron.alt" xMin="13" yMin="-11" xMax="503" yMax="740">
      <component glyphName="a.alt" x="0" y="0" flags="0x204"/>
      <component glyphName="macron" x="44" y="3" flags="0x4"/>
    </TTGlyph>
    <TTGlyph name="ampersand" xMin="17" yMin="-14" xMax="607" yMax="738">
      <contour>
        <pt x="212" y="-14" on="1"/>
        <pt x="167" y="-14" on="0"/>
        <pt x="94" y="12" on="0"/>
        <pt x="44" y="60" on="0"/>
        <pt x="17" y="126" on="0"/>
        <pt x="17" y="166" on="1"/>
        <pt x="17" y="250" on="0"/>
        <pt x="110" y="371" on="0"/>
        <pt x="187" y="409" on="1"/>
        <pt x="170" y="442" on="0"/>
        <pt x="150" y="507" on="0"/>
        <pt x="150" y="542" on="1"/>
        <pt x="150" y="584" on="0"/>
        <pt x="180" y="656" on="0"/>
        <pt x="235" y="708" on="0"/>
        <pt x="313" y="738" on="0"/>
        <pt x="361" y="738" on="1"/>
        <pt x="422" y="738" on="0"/>
        <pt x="511" y="710" on="0"/>
        <pt x="547" y="692" on="1"/>
        <pt x="500" y="545" on="1"/>
        <pt x="465" y="564" on="0"/>
        <pt x="404" y="588" on="0"/>
        <pt x="375" y="588" on="1"/>
        <pt x="349" y="588" on="0"/>
        <pt x="321" y="561" on="0"/>
        <pt x="321" y="539" on="1"/>
        <pt x="321" y="520" on="0"/>
        <pt x="337" y="483" on="0"/>
        <pt x="351" y="460" on="1"/>
        <pt x="429" y="325" on="1"/>
        <pt x="440" y="350" on="0"/>
        <pt x="460" y="406" on="0"/>
        <pt x="470" y="439" on="1"/>
        <pt x="605" y="401" on="1"/>
        <pt x="586" y="344" on="0"/>
        <pt x="537" y="235" on="0"/>
        <pt x="508" y="189" on="1"/>
        <pt x="607" y="19" on="1"/>
        <pt x="427" y="-6" on="1"/>
        <pt x="392" y="56" on="1"/>
        <pt x="350" y="22" on="0"/>
        <pt x="262" y="-14" on="0"/>
      </contour>
      <contour>
        <pt x="250" y="124" on="1"/>
        <pt x="270" y="124" on="0"/>
        <pt x="309" y="143" on="0"/>
        <pt x="329" y="165" on="1"/>
        <pt x="249" y="302" on="1"/>
        <pt x="188" y="254" on="0"/>
        <pt x="188" y="192" on="1"/>
        <pt x="188" y="161" on="0"/>
        <pt x="220" y="124" on="0"/>
      </contour>
    </TTGlyph>
    <TTGlyph name="ampersand.flat" xMin="17" yMin="-14" xMax="617" yMax="738">
      <contour>
        <pt x="212" y="-14" on="1"/>
        <pt x="167" y="-14" on="0"/>
        <pt x="94" y="12" on="0"/>
        <pt x="44" y="60" on="0"/>
        <pt x="17" y="126" on="0"/>
        <pt x="17" y="166" on="1"/>
        <pt x="17" y="250" on="0"/>
        <pt x="110" y="371" on="0"/>
        <pt x="187" y="409" on="1"/>
        <pt x="170" y="442" on="0"/>
        <pt x="150" y="507" on="0"/>
        <pt x="150" y="542" on="1"/>
        <pt x="150" y="584" on="0"/>
        <pt x="180" y="656" on="0"/>
        <pt x="235" y="708" on="0"/>
        <pt x="313" y="738" on="0"/>
        <pt x="361" y="738" on="1"/>
        <pt x="422" y="738" on="0"/>
        <pt x="511" y="710" on="0"/>
        <pt x="547" y="692" on="1"/>
        <pt x="500" y="545" on="1"/>
        <pt x="465" y="564" on="0"/>
        <pt x="404" y="588" on="0"/>
        <pt x="375" y="588" on="1"/>
        <pt x="349" y="588" on="0"/>
        <pt x="321" y="561" on="0"/>
        <pt x="321" y="539" on="1"/>
        <pt x="321" y="520" on="0"/>
        <pt x="337" y="483" on="0"/>
        <pt x="351" y="460" on="1"/>
        <pt x="429" y="325" on="1"/>
        <pt x="440" y="349" on="0"/>
        <pt x="460" y="406" on="0"/>
        <pt x="470" y="439" on="1"/>
        <pt x="605" y="401" on="1"/>
        <pt x="586" y="344" on="0"/>
        <pt x="537" y="235" on="0"/>
        <pt x="508" y="189" on="1"/>
        <pt x="617" y="0" on="1"/>
        <pt x="424" y="0" on="1"/>
        <pt x="392" y="56" on="1"/>
        <pt x="350" y="22" on="0"/>
        <pt x="262" y="-14" on="0"/>
      </contour>
      <contour>
        <pt x="250" y="124" on="1"/>
        <pt x="270" y="124" on="0"/>
        <pt x="309" y="143" on="0"/>
        <pt x="329" y="165" on="1"/>
        <pt x="249" y="302" on="1"/>
        <pt x="188" y="254" on="0"/>
        <pt x="188" y="192" on="1"/>
        <pt x="188" y="161" on="0"/>
        <pt x="220" y="124" on="0"/>
      </contour>
    </TTGlyph>
    <TTGlyph name="aogonek" xMin="29" yMin="-226" xMax="546" yMax="559">
      <contour>
        <pt x="314" y="86" on="1"/>
        <pt x="281" y="43" on="0"/>
        <pt x="208" y="-11" on="0"/>
        <pt x="165" y="-11" on="1"/>
        <pt x="103" y="-11" on="0"/>
        <pt x="29" y="86" on="0"/>
        <pt x="29" y="176" on="1"/>
        <pt x="29" y="267" on="0"/>
        <pt x="78" y="409" on="0"/>
        <pt x="164" y="507" on="0"/>
        <pt x="283" y="559" on="0"/>
        <pt x="354" y="559" on="1"/>
        <pt x="402" y="559" on="0"/>
        <pt x="502" y="539" on="0"/>
        <pt x="546" y="521" on="1"/>
        <pt x="488" y="136" on="1"/>
        <pt x="488" y="0" on="1"/>
        <pt x="426" y="0" on="1"/>
        <pt x="420" y="-8" on="1"/>
        <pt x="394" y="-44" on="0"/>
        <pt x="370" y="-84" on="0"/>
        <pt x="370" y="-99" on="1"/>
        <pt x="370" y="-129" on="0"/>
        <pt x="409" y="-129" on="1"/>
        <pt x="423" y="-129" on="0"/>
        <pt x="446" y="-125" on="0"/>
        <pt x="460" y="-122" on="1"/>
        <pt x="447" y="-207" on="1"/>
        <pt x="423" y="-216" on="0"/>
        <pt x="375" y="-226" on="0"/>
        <pt x="341" y="-226" on="1"/>
        <pt x="290" y="-226" on="0"/>
        <pt x="237" y="-182" on="0"/>
        <pt x="237" y="-142" on="1"/>
        <pt x="237" y="-110" on="0"/>
        <pt x="275" y="-45" on="0"/>
        <pt x="312" y="-7" on="1"/>
        <pt x="314" y="-6" on="0"/>
        <pt x="315" y="-4" on="0"/>
        <pt x="316" y="-3" on="1"/>
        <pt x="320" y="1" on="1"/>
      </contour>
      <contour>
        <pt x="355" y="413" on="1"/>
        <pt x="341" y="419" on="0"/>
        <pt x="327" y="419" on="1"/>
        <pt x="304" y="419" on="0"/>
        <pt x="260" y="387" on="0"/>
        <pt x="227" y="332" on="0"/>
        <pt x="207" y="259" on="0"/>
        <pt x="207" y="218" on="1"/>
        <pt x="207" y="182" on="0"/>
        <pt x="231" y="147" on="0"/>
        <pt x="248" y="147" on="1"/>
        <pt x="266" y="147" on="0"/>
        <pt x="300" y="170" on="0"/>
        <pt x="323" y="196" on="1"/>
      </contour>
    </TTGlyph>
    <TTGlyph name="aogonek.alt" xMin="13" yMin="-226" xMax="501" yMax="562">
      <contour>
        <pt x="320" y="359" on="1"/>
        <pt x="321" y="364" on="0"/>
        <pt x="321" y="372" on="0"/>
        <pt x="321" y="377" on="1"/>
        <pt x="321" y="403" on="0"/>
        <pt x="293" y="425" on="0"/>
        <pt x="260" y="425" on="1"/>
        <pt x="227" y="425" on="0"/>
        <pt x="147" y="403" on="0"/>
        <pt x="102" y="383" on="1"/>
        <pt x="102" y="519" on="1"/>
        <pt x="149" y="538" on="0"/>
        <pt x="254" y="562" on="0"/>
        <pt x="314" y="562" on="1"/>
        <pt x="410" y="562" on="0"/>
        <pt x="501" y="489" on="0"/>
        <pt x="501" y="412" on="1"/>
        <pt x="501" y="387" on="0"/>
        <pt x="497" y="364" on="1"/>
        <pt x="459" y="118" on="1"/>
        <pt x="458" y="0" on="1"/>
        <pt x="396" y="0" on="1"/>
        <pt x="390" y="-8" on="1"/>
        <pt x="364" y="-44" on="0"/>
        <pt x="340" y="-84" on="0"/>
        <pt x="340" y="-99" on="1"/>
        <pt x="340" y="-129" on="0"/>
        <pt x="379" y="-129" on="1"/>
        <pt x="393" y="-129" on="0"/>
        <pt x="416" y="-125" on="0"/>
        <pt x="430" y="-122" on="1"/>
        <pt x="417" y="-207" on="1"/>
        <pt x="393" y="-216" on="0"/>
        <pt x="345" y="-226" on="0"/>
        <pt x="311" y="-226" on="1"/>
        <pt x="260" y="-226" on="0"/>
        <pt x="207" y="-182" on="0"/>
        <pt x="207" y="-142" on="1"/>
        <pt x="207" y="-110" on="0"/>
        <pt x="244" y="-47" on="0"/>
        <pt x="279" y="-10" on="1"/>
        <pt x="290" y="1" on="1"/>
        <pt x="285" y="69" on="1"/>
        <pt x="253" y="33" on="0"/>
        <pt x="181" y="-11" on="0"/>
        <pt x="135" y="-11" on="1"/>
        <pt x="78" y="-11" on="0"/>
        <pt x="13" y="62" on="0"/>
        <pt x="13" y="123" on="1"/>
        <pt x="13" y="219" on="0"/>
        <pt x="163" y="329" on="0"/>
        <pt x="317" y="338" on="1"/>
      </contour>
      <contour>
        <pt x="218" y="113" on="1"/>
        <pt x="235" y="113" on="0"/>
        <pt x="268" y="133" on="0"/>
        <pt x="287" y="152" on="1"/>
        <pt x="304" y="254" on="1"/>
        <pt x="271" y="250" on="0"/>
        <pt x="226" y="228" on="0"/>
        <pt x="197" y="200" on="0"/>
        <pt x="185" y="167" on="0"/>
        <pt x="185" y="152" on="1"/>
        <pt x="185" y="133" on="0"/>
        <pt x="204" y="113" on="0"/>
      </contour>
    </TTGlyph>
    <TTGlyph name="aring" xMin="29" yMin="-11" xMax="546" yMax="857">
      <component glyphName="a" x="0" y="0" flags="0x204"/>
      <component glyphName="ring" x="71" y="3" flags="0x4"/>
    </TTGlyph>
    <TTGlyph name="aring.alt" xMin="13" yMin="-11" xMax="501" yMax="857">
      <component glyphName="ring" x="34" y="3" flags="0x4"/>
      <component glyphName="a.alt" x="0" y="0" flags="0x4"/>
    </TTGlyph>
    <TTGlyph name="aringacute" xMin="29" yMin="-11" xMax="611" yMax="1055">
      <contour>
        <pt x="314" y="86" on="1"/>
        <pt x="281" y="43" on="0"/>
        <pt x="208" y="-11" on="0"/>
        <pt x="165" y="-11" on="1"/>
        <pt x="103" y="-11" on="0"/>
        <pt x="29" y="86" on="0"/>
        <pt x="29" y="176" on="1"/>
        <pt x="29" y="267" on="0"/>
        <pt x="78" y="409" on="0"/>
        <pt x="164" y="507" on="0"/>
        <pt x="283" y="559" on="0"/>
        <pt x="354" y="559" on="1"/>
        <pt x="402" y="559" on="0"/>
        <pt x="502" y="539" on="0"/>
        <pt x="546" y="521" on="1"/>
        <pt x="488" y="136" on="1"/>
        <pt x="488" y="0" on="1"/>
        <pt x="320" y="0" on="1"/>
      </contour>
      <contour>
        <pt x="355" y="413" on="1"/>
        <pt x="341" y="419" on="0"/>
        <pt x="327" y="419" on="1"/>
        <pt x="304" y="419" on="0"/>
        <pt x="260" y="387" on="0"/>
        <pt x="227" y="332" on="0"/>
        <pt x="207" y="259" on="0"/>
        <pt x="207" y="218" on="1"/>
        <pt x="207" y="182" on="0"/>
        <pt x="231" y="147" on="0"/>
        <pt x="248" y="147" on="1"/>
        <pt x="266" y="147" on="0"/>
        <pt x="300" y="170" on="0"/>
        <pt x="323" y="196" on="1"/>
      </contour>
      <contour>
        <pt x="438" y="885" on="1"/>
        <pt x="328" y="885" on="1"/>
        <pt x="407" y="1055" on="1"/>
        <pt x="611" y="1018" on="1"/>
      </contour>
      <contour>
        <pt x="375" y="672" on="1"/>
        <pt x="401" y="672" on="0"/>
        <pt x="428" y="705" on="0"/>
        <pt x="428" y="732" on="1"/>
        <pt x="428" y="759" on="0"/>
        <pt x="401" y="792" on="0"/>
        <pt x="375" y="792" on="1"/>
        <pt x="349" y="792" on="0"/>
        <pt x="321" y="759" on="0"/>
        <pt x="321" y="732" on="1"/>
        <pt x="321" y="705" on="0"/>
        <pt x="349" y="672" on="0"/>
      </contour>
      <contour>
        <pt x="375" y="605" on="1"/>
        <pt x="303" y="605" on="0"/>
        <pt x="221" y="675" on="0"/>
        <pt x="221" y="732" on="1"/>
        <pt x="221" y="789" on="0"/>
        <pt x="303" y="857" on="0"/>
        <pt x="375" y="857" on="1"/>
        <pt x="447" y="857" on="0"/>
        <pt x="528" y="789" on="0"/>
        <pt x="528" y="732" on="1"/>
        <pt x="528" y="675" on="0"/>
        <pt x="447" y="605" on="0"/>
      </contour>
    </TTGlyph>
    <TTGlyph name="aringacute.alt" xMin="13" yMin="-11" xMax="573" yMax="1055">
      <contour>
        <pt x="400" y="885" on="1"/>
        <pt x="290" y="885" on="1"/>
        <pt x="369" y="1055" on="1"/>
        <pt x="573" y="1018" on="1"/>
      </contour>
      <contour>
        <pt x="338" y="672" on="1"/>
        <pt x="364" y="672" on="0"/>
        <pt x="391" y="705" on="0"/>
        <pt x="391" y="732" on="1"/>
        <pt x="391" y="759" on="0"/>
        <pt x="364" y="792" on="0"/>
        <pt x="338" y="792" on="1"/>
        <pt x="312" y="792" on="0"/>
        <pt x="284" y="759" on="0"/>
        <pt x="284" y="732" on="1"/>
        <pt x="284" y="705" on="0"/>
        <pt x="312" y="672" on="0"/>
      </contour>
      <contour>
        <pt x="338" y="605" on="1"/>
        <pt x="266" y="605" on="0"/>
        <pt x="184" y="675" on="0"/>
        <pt x="184" y="732" on="1"/>
        <pt x="184" y="789" on="0"/>
        <pt x="266" y="857" on="0"/>
        <pt x="338" y="857" on="1"/>
        <pt x="410" y="857" on="0"/>
        <pt x="491" y="789" on="0"/>
        <pt x="491" y="732" on="1"/>
        <pt x="491" y="675" on="0"/>
        <pt x="410" y="605" on="0"/>
      </contour>
      <contour>
        <pt x="320" y="359" on="1"/>
        <pt x="321" y="364" on="0"/>
        <pt x="321" y="372" on="0"/>
        <pt x="321" y="377" on="1"/>
        <pt x="321" y="403" on="0"/>
        <pt x="293" y="425" on="0"/>
        <pt x="260" y="425" on="1"/>
        <pt x="227" y="425" on="0"/>
        <pt x="147" y="403" on="0"/>
        <pt x="102" y="383" on="1"/>
        <pt x="102" y="519" on="1"/>
        <pt x="149" y="538" on="0"/>
        <pt x="254" y="562" on="0"/>
        <pt x="314" y="562" on="1"/>
        <pt x="410" y="562" on="0"/>
        <pt x="501" y="489" on="0"/>
        <pt x="501" y="412" on="1"/>
        <pt x="501" y="387" on="0"/>
        <pt x="497" y="364" on="1"/>
        <pt x="459" y="118" on="1"/>
        <pt x="458" y="0" on="1"/>
        <pt x="290" y="0" on="1"/>
        <pt x="285" y="69" on="1"/>
        <pt x="253" y="33" on="0"/>
        <pt x="181" y="-11" on="0"/>
        <pt x="135" y="-11" on="1"/>
        <pt x="78" y="-11" on="0"/>
        <pt x="13" y="62" on="0"/>
        <pt x="13" y="123" on="1"/>
        <pt x="13" y="219" on="0"/>
        <pt x="163" y="329" on="0"/>
        <pt x="317" y="338" on="1"/>
      </contour>
      <contour>
        <pt x="218" y="113" on="1"/>
        <pt x="235" y="113" on="0"/>
        <pt x="268" y="133" on="0"/>
        <pt x="287" y="152" on="1"/>
        <pt x="304" y="254" on="1"/>
        <pt x="271" y="250" on="0"/>
        <pt x="226" y="228" on="0"/>
        <pt x="197" y="200" on="0"/>
        <pt x="185" y="167" on="0"/>
        <pt x="185" y="152" on="1"/>
        <pt x="185" y="133" on="0"/>
        <pt x="204" y="113" on="0"/>
      </contour>
    </TTGlyph>
    <TTGlyph name="asciicircum" xMin="86" yMin="538" xMax="430" yMax="731">
      <contour>
        <pt x="319" y="538" on="1"/>
        <pt x="273" y="623" on="1"/>
        <pt x="199" y="538" on="1"/>
        <pt x="86" y="538" on="1"/>
        <pt x="222" y="731" on="1"/>
        <pt x="349" y="731" on="1"/>
        <pt x="430" y="538" on="1"/>
      </contour>
    </TTGlyph>
    <TTGlyph name="asciitilde" xMin="38" yMin="242" xMax="428" yMax="430">
      <contour>
        <pt x="428" y="414" on="1"/>
        <pt x="406" y="323" on="0"/>
        <pt x="349" y="246" on="0"/>
        <pt x="302" y="246" on="1"/>
        <pt x="283" y="246" on="0"/>
        <pt x="249" y="259" on="0"/>
        <pt x="227" y="272" on="1"/>
        <pt x="204" y="285" on="0"/>
        <pt x="178" y="297" on="0"/>
        <pt x="167" y="297" on="1"/>
        <pt x="155" y="297" on="0"/>
        <pt x="138" y="275" on="0"/>
        <pt x="127" y="242" on="1"/>
        <pt x="38" y="258" on="1"/>
        <pt x="59" y="348" on="0"/>
        <pt x="117" y="425" on="0"/>
        <pt x="164" y="425" on="1"/>
        <pt x="183" y="425" on="0"/>
        <pt x="218" y="412" on="0"/>
        <pt x="239" y="400" on="1"/>
        <pt x="263" y="386" on="0"/>
        <pt x="288" y="375" on="0"/>
        <pt x="299" y="375" on="1"/>
        <pt x="310" y="375" on="0"/>
        <pt x="328" y="397" on="0"/>
        <pt x="339" y="430" on="1"/>
      </contour>
    </TTGlyph>
    <TTGlyph name="asterisk" xMin="82" yMin="397" xMax="485" yMax="779">
      <contour>
        <pt x="374" y="544" on="1"/>
        <pt x="421" y="418" on="1"/>
        <pt x="388" y="397" on="1"/>
        <pt x="283" y="478" on="1"/>
        <pt x="178" y="397" on="1"/>
        <pt x="146" y="418" on="1"/>
        <pt x="192" y="544" on="1"/>
        <pt x="82" y="619" on="1"/>
        <pt x="94" y="656" on="1"/>
        <pt x="227" y="653" on="1"/>
        <pt x="263" y="779" on="1"/>
        <pt x="304" y="779" on="1"/>
        <pt x="339" y="653" on="1"/>
        <pt x="474" y="656" on="1"/>
        <pt x="485" y="619" on="1"/>
      </contour>
    </TTGlyph>
    <TTGlyph name="at" xMin="40" yMin="-155" xMax="824" yMax="715">
      <contour>
        <pt x="609" y="49" on="1"/>
        <pt x="556" y="49" on="0"/>
        <pt x="483" y="98" on="0"/>
        <pt x="469" y="141" on="1"/>
        <pt x="431" y="93" on="0"/>
        <pt x="361" y="49" on="0"/>
        <pt x="323" y="49" on="1"/>
        <pt x="271" y="49" on="0"/>
        <pt x="211" y="128" on="0"/>
        <pt x="211" y="200" on="1"/>
        <pt x="211" y="270" on="0"/>
        <pt x="252" y="388" on="0"/>
        <pt x="325" y="474" on="0"/>
        <pt x="426" y="522" on="0"/>
        <pt x="485" y="522" on="1"/>
        <pt x="530" y="522" on="0"/>
        <pt x="618" y="503" on="0"/>
        <pt x="652" y="488" on="1"/>
        <pt x="608" y="213" on="1"/>
        <pt x="606" y="203" on="0"/>
        <pt x="603" y="178" on="0"/>
        <pt x="603" y="167" on="1"/>
        <pt x="603" y="144" on="0"/>
        <pt x="627" y="116" on="0"/>
        <pt x="654" y="116" on="1"/>
        <pt x="678" y="116" on="0"/>
        <pt x="722" y="150" on="0"/>
        <pt x="755" y="215" on="0"/>
        <pt x="775" y="307" on="0"/>
        <pt x="775" y="364" on="1"/>
        <pt x="775" y="445" on="0"/>
        <pt x="733" y="562" on="0"/>
        <pt x="658" y="638" on="0"/>
        <pt x="551" y="675" on="0"/>
        <pt x="487" y="675" on="1"/>
        <pt x="406" y="675" on="0"/>
        <pt x="261" y="602" on="0"/>
        <pt x="152" y="475" on="0"/>
        <pt x="88" y="304" on="0"/>
        <pt x="88" y="207" on="1"/>
        <pt x="88" y="124" on="0"/>
        <pt x="131" y="3" on="0"/>
        <pt x="211" y="-77" on="0"/>
        <pt x="322" y="-115" on="0"/>
        <pt x="390" y="-115" on="1"/>
        <pt x="451" y="-115" on="0"/>
        <pt x="561" y="-85" on="0"/>
        <pt x="610" y="-57" on="1"/>
        <pt x="617" y="-98" on="1"/>
        <pt x="572" y="-122" on="0"/>
        <pt x="455" y="-155" on="0"/>
        <pt x="387" y="-155" on="1"/>
        <pt x="306" y="-155" on="0"/>
        <pt x="177" y="-108" on="0"/>
        <pt x="88" y="-17" on="0"/>
        <pt x="40" y="118" on="0"/>
        <pt x="40" y="206" on="1"/>
        <pt x="40" y="309" on="0"/>
        <pt x="111" y="494" on="0"/>
        <pt x="233" y="633" on="0"/>
        <pt x="398" y="715" on="0"/>
        <pt x="491" y="715" on="1"/>
        <pt x="566" y="715" on="0"/>
        <pt x="688" y="670" on="0"/>
        <pt x="776" y="581" on="0"/>
        <pt x="824" y="451" on="0"/>
        <pt x="824" y="366" on="1"/>
        <pt x="824" y="293" on="0"/>
        <pt x="794" y="176" on="0"/>
        <pt x="738" y="93" on="0"/>
        <pt x="658" y="49" on="0"/>
      </contour>
      <contour>
        <pt x="389" y="174" on="1"/>
        <pt x="404" y="174" on="0"/>
        <pt x="441" y="201" on="0"/>
        <pt x="467" y="231" on="1"/>
        <pt x="495" y="402" on="1"/>
        <pt x="482" y="407" on="0"/>
        <pt x="468" y="407" on="1"/>
        <pt x="446" y="407" on="0"/>
        <pt x="405" y="379" on="0"/>
        <pt x="374" y="331" on="0"/>
        <pt x="356" y="267" on="0"/>
        <pt x="356" y="231" on="1"/>
        <pt x="356" y="200" on="0"/>
        <pt x="374" y="174" on="0"/>
      </contour>
    </TTGlyph>
    <TTGlyph name="atilde" xMin="29" yMin="-11" xMax="558" yMax="788">
      <component glyphName="a" x="0" y="0" flags="0x204"/>
      <component glyphName="tilde" x="83" y="3" flags="0x4"/>
    </TTGlyph>
    <TTGlyph name="atilde.alt" xMin="13" yMin="-11" xMax="520" yMax="788">
      <component glyphName="a.alt" x="0" y="0" flags="0x204"/>
      <component glyphName="tilde" x="45" y="3" flags="0x4"/>
    </TTGlyph>
    <TTGlyph name="b" xMin="17" yMin="-7" xMax="534" yMax="809">
      <contour>
        <pt x="129" y="782" on="1"/>
        <pt x="310" y="809" on="1"/>
        <pt x="260" y="480" on="1"/>
        <pt x="292" y="518" on="0"/>
        <pt x="356" y="563" on="0"/>
        <pt x="397" y="563" on="1"/>
        <pt x="460" y="563" on="0"/>
        <pt x="534" y="460" on="0"/>
        <pt x="534" y="368" on="1"/>
        <pt x="534" y="278" on="0"/>
        <pt x="486" y="138" on="0"/>
        <pt x="402" y="43" on="0"/>
        <pt x="286" y="-7" on="0"/>
        <pt x="218" y="-7" on="1"/>
        <pt x="168" y="-7" on="0"/>
        <pt x="62" y="14" on="0"/>
        <pt x="17" y="31" on="1"/>
      </contour>
      <contour>
        <pt x="207" y="140" on="1"/>
        <pt x="215" y="137" on="0"/>
        <pt x="232" y="133" on="0"/>
        <pt x="241" y="133" on="1"/>
        <pt x="264" y="133" on="0"/>
        <pt x="306" y="162" on="0"/>
        <pt x="337" y="215" on="0"/>
        <pt x="356" y="287" on="0"/>
        <pt x="356" y="331" on="1"/>
        <pt x="356" y="369" on="0"/>
        <pt x="334" y="406" on="0"/>
        <pt x="314" y="406" on="1"/>
        <pt x="297" y="406" on="0"/>
        <pt x="263" y="384" on="0"/>
        <pt x="241" y="359" on="1"/>
      </contour>
    </TTGlyph>
    <TTGlyph name="backslash" xMin="73" yMin="-141" xMax="470" yMax="783">
      <contour>
        <pt x="333" y="-141" on="1"/>
        <pt x="73" y="752" on="1"/>
        <pt x="211" y="783" on="1"/>
        <pt x="470" y="-109" on="1"/>
      </contour>
    </TTGlyph>
    <TTGlyph name="baht" xMin="-71" yMin="-127" xMax="579" yMax="784">
      <contour>
        <pt x="331" y="721" on="1"/>
        <pt x="400" y="721" on="0"/>
        <pt x="450" y="703" on="1"/>
        <pt x="502" y="784" on="1"/>
        <pt x="579" y="763" on="1"/>
        <pt x="515" y="665" on="1"/>
        <pt x="565" y="621" on="0"/>
        <pt x="565" y="550" on="1"/>
        <pt x="565" y="516" on="0"/>
        <pt x="543" y="459" on="0"/>
        <pt x="506" y="414" on="0"/>
        <pt x="455" y="381" on="0"/>
        <pt x="426" y="372" on="1"/>
        <pt x="472" y="352" on="0"/>
        <pt x="528" y="280" on="0"/>
        <pt x="528" y="227" on="1"/>
        <pt x="528" y="120" on="0"/>
        <pt x="377" y="0" on="0"/>
        <pt x="236" y="0" on="1"/>
        <pt x="83" y="0" on="1"/>
        <pt x="4" y="-127" on="1"/>
        <pt x="-71" y="-109" on="1"/>
        <pt x="30" y="56" on="1"/>
        <pt x="130" y="721" on="1"/>
      </contour>
      <contour>
        <pt x="358" y="234" on="1"/>
        <pt x="358" y="272" on="0"/>
        <pt x="314" y="315" on="0"/>
        <pt x="271" y="315" on="1"/>
        <pt x="238" y="315" on="1"/>
        <pt x="209" y="132" on="1"/>
        <pt x="247" y="132" on="1"/>
        <pt x="298" y="132" on="0"/>
        <pt x="358" y="186" on="0"/>
      </contour>
      <contour>
        <pt x="395" y="515" on="1"/>
        <pt x="395" y="548" on="0"/>
        <pt x="355" y="584" on="0"/>
        <pt x="319" y="584" on="1"/>
        <pt x="278" y="584" on="1"/>
        <pt x="253" y="421" on="1"/>
        <pt x="297" y="421" on="1"/>
        <pt x="341" y="421" on="0"/>
        <pt x="395" y="473" on="0"/>
      </contour>
    </TTGlyph>
    <TTGlyph name="bar" xMin="17" yMin="-210" xMax="315" yMax="828">
      <contour>
        <pt x="17" y="-210" on="1"/>
        <pt x="169" y="807" on="1"/>
        <pt x="315" y="828" on="1"/>
        <pt x="162" y="-188" on="1"/>
      </contour>
    </TTGlyph>
    <TTGlyph name="bar.tab" xMin="0" yMin="-145" xMax="298" yMax="909">
      <contour>
        <pt x="0" y="-145" on="1"/>
        <pt x="154" y="888" on="1"/>
        <pt x="298" y="909" on="1"/>
        <pt x="143" y="-124" on="1"/>
      </contour>
    </TTGlyph>
    <TTGlyph name="braceleft" xMin="44" yMin="-115" xMax="543" yMax="775">
      <contour>
        <pt x="527" y="664" on="1"/>
        <pt x="453" y="664" on="1"/>
        <pt x="407" y="664" on="0"/>
        <pt x="371" y="617" on="0"/>
        <pt x="370" y="567" on="1"/>
        <pt x="370" y="510" on="1"/>
        <pt x="369" y="439" on="0"/>
        <pt x="298" y="347" on="0"/>
        <pt x="220" y="333" on="1"/>
        <pt x="220" y="331" on="1"/>
        <pt x="277" y="315" on="0"/>
        <pt x="325" y="264" on="0"/>
        <pt x="324" y="219" on="1"/>
        <pt x="324" y="197" on="0"/>
        <pt x="313" y="150" on="0"/>
        <pt x="300" y="104" on="0"/>
        <pt x="289" y="62" on="0"/>
        <pt x="289" y="45" on="1"/>
        <pt x="288" y="22" on="0"/>
        <pt x="320" y="-3" on="0"/>
        <pt x="358" y="-3" on="1"/>
        <pt x="416" y="-3" on="1"/>
        <pt x="416" y="-115" on="1"/>
        <pt x="271" y="-115" on="1"/>
        <pt x="190" y="-115" on="0"/>
        <pt x="113" y="-50" on="0"/>
        <pt x="113" y="7" on="1"/>
        <pt x="113" y="32" on="0"/>
        <pt x="126" y="84" on="0"/>
        <pt x="141" y="135" on="0"/>
        <pt x="153" y="183" on="0"/>
        <pt x="153" y="204" on="1"/>
        <pt x="154" y="239" on="0"/>
        <pt x="112" y="273" on="0"/>
        <pt x="61" y="273" on="1"/>
        <pt x="44" y="273" on="1"/>
        <pt x="44" y="388" on="1"/>
        <pt x="76" y="388" on="1"/>
        <pt x="146" y="388" on="0"/>
        <pt x="200" y="452" on="0"/>
        <pt x="200" y="525" on="1"/>
        <pt x="200" y="584" on="1"/>
        <pt x="201" y="675" on="0"/>
        <pt x="295" y="775" on="0"/>
        <pt x="395" y="775" on="1"/>
        <pt x="543" y="775" on="1"/>
      </contour>
    </TTGlyph>
    <TTGlyph name="braceleft.flat" xMin="35" yMin="-115" xMax="543" yMax="775">
      <contour>
        <pt x="527" y="664" on="1"/>
        <pt x="453" y="664" on="1"/>
        <pt x="407" y="664" on="0"/>
        <pt x="371" y="617" on="0"/>
        <pt x="370" y="567" on="1"/>
        <pt x="370" y="510" on="1"/>
        <pt x="369" y="439" on="0"/>
        <pt x="298" y="347" on="0"/>
        <pt x="220" y="333" on="1"/>
        <pt x="220" y="331" on="1"/>
        <pt x="277" y="315" on="0"/>
        <pt x="325" y="264" on="0"/>
        <pt x="324" y="219" on="1"/>
        <pt x="324" y="197" on="0"/>
        <pt x="313" y="150" on="0"/>
        <pt x="300" y="104" on="0"/>
        <pt x="289" y="62" on="0"/>
        <pt x="289" y="45" on="1"/>
        <pt x="288" y="22" on="0"/>
        <pt x="320" y="-3" on="0"/>
        <pt x="358" y="-3" on="1"/>
        <pt x="424" y="-3" on="1"/>
        <pt x="408" y="-115" on="1"/>
        <pt x="271" y="-115" on="1"/>
        <pt x="190" y="-115" on="0"/>
        <pt x="113" y="-50" on="0"/>
        <pt x="113" y="7" on="1"/>
        <pt x="113" y="32" on="0"/>
        <pt x="126" y="84" on="0"/>
        <pt x="141" y="135" on="0"/>
        <pt x="153" y="183" on="0"/>
        <pt x="153" y="204" on="1"/>
        <pt x="154" y="239" on="0"/>
        <pt x="112" y="273" on="0"/>
        <pt x="61" y="273" on="1"/>
        <pt x="35" y="273" on="1"/>
        <pt x="52" y="388" on="1"/>
        <pt x="76" y="388" on="1"/>
        <pt x="146" y="388" on="0"/>
        <pt x="200" y="452" on="0"/>
        <pt x="200" y="525" on="1"/>
        <pt x="200" y="584" on="1"/>
        <pt x="201" y="675" on="0"/>
        <pt x="295" y="775" on="0"/>
        <pt x="395" y="775" on="1"/>
        <pt x="543" y="775" on="1"/>
      </contour>
    </TTGlyph>
    <TTGlyph name="braceright" xMin="-29" yMin="-115" xMax="472" yMax="775">
      <contour>
        <pt x="-12" y="-3" on="1"/>
        <pt x="63" y="-3" on="1"/>
        <pt x="109" y="-3" on="0"/>
        <pt x="145" y="44" on="0"/>
        <pt x="145" y="94" on="1"/>
        <pt x="145" y="150" on="1"/>
        <pt x="146" y="222" on="0"/>
        <pt x="217" y="313" on="0"/>
        <pt x="295" y="328" on="1"/>
        <pt x="295" y="330" on="1"/>
        <pt x="238" y="345" on="0"/>
        <pt x="190" y="397" on="0"/>
        <pt x="191" y="442" on="1"/>
        <pt x="191" y="464" on="0"/>
        <pt x="202" y="510" on="0"/>
        <pt x="215" y="556" on="0"/>
        <pt x="226" y="598" on="0"/>
        <pt x="226" y="615" on="1"/>
        <pt x="227" y="639" on="0"/>
        <pt x="195" y="664" on="0"/>
        <pt x="157" y="664" on="1"/>
        <pt x="100" y="664" on="1"/>
        <pt x="100" y="775" on="1"/>
        <pt x="245" y="775" on="1"/>
        <pt x="326" y="775" on="0"/>
        <pt x="403" y="711" on="0"/>
        <pt x="403" y="654" on="1"/>
        <pt x="403" y="629" on="0"/>
        <pt x="390" y="577" on="0"/>
        <pt x="375" y="526" on="0"/>
        <pt x="363" y="478" on="0"/>
        <pt x="363" y="456" on="1"/>
        <pt x="362" y="422" on="0"/>
        <pt x="404" y="386" on="0"/>
        <pt x="455" y="386" on="1"/>
        <pt x="472" y="386" on="1"/>
        <pt x="472" y="272" on="1"/>
        <pt x="440" y="272" on="1"/>
        <pt x="405" y="272" on="0"/>
        <pt x="357" y="256" on="0"/>
        <pt x="328" y="223" on="0"/>
        <pt x="315" y="172" on="0"/>
        <pt x="315" y="136" on="1"/>
        <pt x="315" y="76" on="1"/>
        <pt x="314" y="-15" on="0"/>
        <pt x="221" y="-115" on="0"/>
        <pt x="121" y="-115" on="1"/>
        <pt x="-29" y="-115" on="1"/>
      </contour>
    </TTGlyph>
    <TTGlyph name="braceright.flat" xMin="-28" yMin="-115" xMax="480" yMax="775">
      <contour>
        <pt x="-12" y="-3" on="1"/>
        <pt x="63" y="-3" on="1"/>
        <pt x="109" y="-3" on="0"/>
        <pt x="145" y="44" on="0"/>
        <pt x="145" y="94" on="1"/>
        <pt x="145" y="150" on="1"/>
        <pt x="146" y="222" on="0"/>
        <pt x="217" y="313" on="0"/>
        <pt x="295" y="328" on="1"/>
        <pt x="295" y="330" on="1"/>
        <pt x="238" y="345" on="0"/>
        <pt x="190" y="397" on="0"/>
        <pt x="191" y="442" on="1"/>
        <pt x="191" y="464" on="0"/>
        <pt x="202" y="510" on="0"/>
        <pt x="215" y="556" on="0"/>
        <pt x="226" y="598" on="0"/>
        <pt x="226" y="615" on="1"/>
        <pt x="227" y="639" on="0"/>
        <pt x="195" y="664" on="0"/>
        <pt x="157" y="664" on="1"/>
        <pt x="91" y="664" on="1"/>
        <pt x="107" y="775" on="1"/>
        <pt x="245" y="775" on="1"/>
        <pt x="326" y="775" on="0"/>
        <pt x="403" y="711" on="0"/>
        <pt x="403" y="654" on="1"/>
        <pt x="403" y="629" on="0"/>
        <pt x="390" y="577" on="0"/>
        <pt x="375" y="526" on="0"/>
        <pt x="363" y="478" on="0"/>
        <pt x="363" y="456" on="1"/>
        <pt x="362" y="422" on="0"/>
        <pt x="404" y="386" on="0"/>
        <pt x="455" y="386" on="1"/>
        <pt x="480" y="386" on="1"/>
        <pt x="463" y="272" on="1"/>
        <pt x="440" y="272" on="1"/>
        <pt x="405" y="272" on="0"/>
        <pt x="357" y="256" on="0"/>
        <pt x="328" y="223" on="0"/>
        <pt x="315" y="172" on="0"/>
        <pt x="315" y="136" on="1"/>
        <pt x="315" y="76" on="1"/>
        <pt x="314" y="-15" on="0"/>
        <pt x="221" y="-115" on="0"/>
        <pt x="121" y="-115" on="1"/>
        <pt x="-28" y="-115" on="1"/>
      </contour>
    </TTGlyph>
    <TTGlyph name="bracketleft" xMin="12" yMin="-115" xMax="465" yMax="775">
      <contour>
        <pt x="449" y="664" on="1"/>
        <pt x="297" y="664" on="1"/>
        <pt x="197" y="-3" on="1"/>
        <pt x="339" y="-3" on="1"/>
        <pt x="339" y="-115" on="1"/>
        <pt x="12" y="-115" on="1"/>
        <pt x="146" y="775" on="1"/>
        <pt x="465" y="775" on="1"/>
      </contour>
    </TTGlyph>
    <TTGlyph name="bracketleft.flat" xMin="12" yMin="-115" xMax="465" yMax="775">
      <contour>
        <pt x="449" y="664" on="1"/>
        <pt x="297" y="664" on="1"/>
        <pt x="197" y="-3" on="1"/>
        <pt x="348" y="-3" on="1"/>
        <pt x="331" y="-115" on="1"/>
        <pt x="12" y="-115" on="1"/>
        <pt x="146" y="775" on="1"/>
        <pt x="465" y="775" on="1"/>
      </contour>
    </TTGlyph>
    <TTGlyph name="bracketright" xMin="-28" yMin="-115" xMax="426" yMax="775">
      <contour>
        <pt x="294" y="-115" on="1"/>
        <pt x="-28" y="-115" on="1"/>
        <pt x="-11" y="-3" on="1"/>
        <pt x="142" y="-3" on="1"/>
        <pt x="241" y="664" on="1"/>
        <pt x="101" y="664" on="1"/>
        <pt x="100" y="775" on="1"/>
        <pt x="426" y="775" on="1"/>
      </contour>
    </TTGlyph>
    <TTGlyph name="bracketright.flat" xMin="-28" yMin="-115" xMax="426" yMax="775">
      <contour>
        <pt x="-11" y="-3" on="1"/>
        <pt x="142" y="-3" on="1"/>
        <pt x="241" y="664" on="1"/>
        <pt x="92" y="664" on="1"/>
        <pt x="108" y="775" on="1"/>
        <pt x="426" y="775" on="1"/>
        <pt x="293" y="-115" on="1"/>
        <pt x="-28" y="-115" on="1"/>
      </contour>
    </TTGlyph>
    <TTGlyph name="breve" xMin="134" yMin="603" xMax="461" yMax="775">
      <contour>
        <pt x="461" y="760" on="1"/>
        <pt x="422" y="603" on="0"/>
        <pt x="279" y="603" on="1"/>
        <pt x="204" y="603" on="0"/>
        <pt x="134" y="684" on="0"/>
        <pt x="135" y="759" on="1"/>
        <pt x="227" y="775" on="1"/>
        <pt x="232" y="742" on="0"/>
        <pt x="262" y="713" on="0"/>
        <pt x="290" y="713" on="1"/>
        <pt x="317" y="713" on="0"/>
        <pt x="356" y="743" on="0"/>
        <pt x="370" y="775" on="1"/>
      </contour>
    </TTGlyph>
    <TTGlyph name="breve.cap" xMin="126" yMin="565" xMax="433" yMax="727">
      <contour>
        <pt x="433" y="713" on="1"/>
        <pt x="395" y="565" on="0"/>
        <pt x="262" y="565" on="1"/>
        <pt x="192" y="565" on="0"/>
        <pt x="126" y="641" on="0"/>
        <pt x="126" y="712" on="1"/>
        <pt x="214" y="727" on="1"/>
        <pt x="217" y="696" on="0"/>
        <pt x="246" y="669" on="0"/>
        <pt x="272" y="669" on="1"/>
        <pt x="321" y="669" on="0"/>
        <pt x="347" y="727" on="1"/>
      </contour>
    </TTGlyph>
    <TTGlyph name="bullet" xMin="88" yMin="182" xMax="417" yMax="542">
      <contour>
        <pt x="392" y="204" on="1"/>
        <pt x="253" y="182" on="1"/>
        <pt x="113" y="204" on="1"/>
        <pt x="88" y="361" on="1"/>
        <pt x="113" y="520" on="1"/>
        <pt x="253" y="542" on="1"/>
        <pt x="392" y="520" on="1"/>
        <pt x="417" y="361" on="1"/>
      </contour>
    </TTGlyph>
    <TTGlyph name="c" xMin="31" yMin="-10" xMax="464" yMax="562">
      <contour>
        <pt x="421" y="380" on="1"/>
        <pt x="401" y="392" on="0"/>
        <pt x="360" y="408" on="0"/>
        <pt x="332" y="408" on="1"/>
        <pt x="305" y="408" on="0"/>
        <pt x="260" y="383" on="0"/>
        <pt x="227" y="338" on="0"/>
        <pt x="209" y="278" on="0"/>
        <pt x="209" y="244" on="1"/>
        <pt x="209" y="190" on="0"/>
        <pt x="260" y="143" on="0"/>
        <pt x="301" y="142" on="1"/>
        <pt x="324" y="142" on="0"/>
        <pt x="368" y="155" on="0"/>
        <pt x="394" y="167" on="1"/>
        <pt x="394" y="22" on="1"/>
        <pt x="368" y="8" on="0"/>
        <pt x="301" y="-10" on="0"/>
        <pt x="256" y="-10" on="1"/>
        <pt x="205" y="-10" on="0"/>
        <pt x="121" y="23" on="0"/>
        <pt x="63" y="84" on="0"/>
        <pt x="31" y="172" on="0"/>
        <pt x="31" y="228" on="1"/>
        <pt x="31" y="300" on="0"/>
        <pt x="74" y="423" on="0"/>
        <pt x="151" y="512" on="0"/>
        <pt x="258" y="562" on="0"/>
        <pt x="323" y="562" on="1"/>
        <pt x="370" y="562" on="0"/>
        <pt x="438" y="543" on="0"/>
        <pt x="464" y="527" on="1"/>
      </contour>
    </TTGlyph>
    <TTGlyph name="cacute" xMin="31" yMin="-10" xMax="542" yMax="778">
      <component glyphName="acute" x="106" y="3" flags="0x4"/>
      <component glyphName="c" x="0" y="0" flags="0x4"/>
    </TTGlyph>
    <TTGlyph name="caron" xMin="117" yMin="605" xMax="478" yMax="772">
      <contour>
        <pt x="231" y="772" on="1"/>
        <pt x="288" y="709" on="1"/>
        <pt x="365" y="772" on="1"/>
        <pt x="478" y="772" on="1"/>
        <pt x="349" y="605" on="1"/>
        <pt x="199" y="605" on="1"/>
        <pt x="117" y="772" on="1"/>
      </contour>
    </TTGlyph>
    <TTGlyph name="caron.alt" xMin="193" yMin="556" xMax="376" yMax="790">
      <contour>
        <pt x="371" y="790" on="1"/>
        <pt x="373" y="779" on="0"/>
        <pt x="376" y="762" on="0"/>
        <pt x="376" y="754" on="1"/>
        <pt x="376" y="700" on="0"/>
        <pt x="330" y="604" on="0"/>
        <pt x="276" y="556" on="1"/>
        <pt x="193" y="574" on="1"/>
        <pt x="219" y="617" on="0"/>
        <pt x="238" y="685" on="0"/>
        <pt x="238" y="711" on="1"/>
        <pt x="238" y="735" on="0"/>
        <pt x="230" y="772" on="1"/>
      </contour>
    </TTGlyph>
    <TTGlyph name="caron.alt.cap" xMin="181" yMin="521" xMax="353" yMax="740">
      <contour>
        <pt x="348" y="740" on="1"/>
        <pt x="350" y="730" on="0"/>
        <pt x="353" y="715" on="0"/>
        <pt x="353" y="707" on="1"/>
        <pt x="353" y="656" on="0"/>
        <pt x="310" y="566" on="0"/>
        <pt x="259" y="521" on="1"/>
        <pt x="181" y="537" on="1"/>
        <pt x="205" y="578" on="0"/>
        <pt x="222" y="641" on="0"/>
        <pt x="222" y="666" on="1"/>
        <pt x="222" y="692" on="0"/>
        <pt x="215" y="723" on="1"/>
      </contour>
    </TTGlyph>
    <TTGlyph name="caron.cap" xMin="109" yMin="567" xMax="449" yMax="724">
      <contour>
        <pt x="217" y="724" on="1"/>
        <pt x="271" y="665" on="1"/>
        <pt x="342" y="724" on="1"/>
        <pt x="449" y="724" on="1"/>
        <pt x="329" y="567" on="1"/>
        <pt x="186" y="567" on="1"/>
        <pt x="109" y="724" on="1"/>
      </contour>
    </TTGlyph>
    <TTGlyph name="ccaron" xMin="31" yMin="-10" xMax="525" yMax="775">
      <component glyphName="caron" x="47" y="3" flags="0x4"/>
      <component glyphName="c" x="0" y="0" flags="0x4"/>
    </TTGlyph>
    <TTGlyph name="ccedilla" xMin="31" yMin="-202" xMax="464" yMax="562">
      <component glyphName="c" x="0" y="0" flags="0x204"/>
      <component glyphName="cedilla" x="14" y="-3" flags="0x4"/>
    </TTGlyph>
    <TTGlyph name="cdotaccent" xMin="31" yMin="-10" xMax="464" yMax="761">
      <component glyphName="c" x="0" y="0" flags="0x204"/>
      <component glyphName="dotaccent" x="48" y="3" flags="0x4"/>
    </TTGlyph>
    <TTGlyph name="cedilla" xMin="30" yMin="-199" xMax="305" yMax="-45">
      <contour>
        <pt x="140" y="-199" on="1"/>
        <pt x="30" y="-199" on="1"/>
        <pt x="102" y="-45" on="1"/>
        <pt x="305" y="-81" on="1"/>
      </contour>
    </TTGlyph>
    <TTGlyph name="cedilla.cap" xMin="28" yMin="-186" xMax="287" yMax="-42">
      <contour>
        <pt x="132" y="-186" on="1"/>
        <pt x="28" y="-186" on="1"/>
        <pt x="95" y="-42" on="1"/>
        <pt x="287" y="-76" on="1"/>
      </contour>
    </TTGlyph>
    <TTGlyph name="cent" xMin="47" yMin="-12" xMax="492" yMax="728">
      <contour>
        <pt x="424" y="613" on="1"/>
        <pt x="461" y="603" on="0"/>
        <pt x="492" y="586" on="1"/>
        <pt x="448" y="454" on="1"/>
        <pt x="434" y="463" on="0"/>
        <pt x="399" y="478" on="0"/>
        <pt x="379" y="482" on="1"/>
        <pt x="309" y="226" on="1"/>
        <pt x="316" y="226" on="0"/>
        <pt x="320" y="227" on="1"/>
        <pt x="349" y="229" on="0"/>
        <pt x="396" y="242" on="0"/>
        <pt x="421" y="253" on="1"/>
        <pt x="421" y="124" on="1"/>
        <pt x="395" y="112" on="0"/>
        <pt x="333" y="95" on="0"/>
        <pt x="291" y="93" on="1"/>
        <pt x="280" y="93" on="1"/>
        <pt x="250" y="-12" on="1"/>
        <pt x="173" y="7" on="1"/>
        <pt x="200" y="102" on="1"/>
        <pt x="133" y="119" on="0"/>
        <pt x="47" y="223" on="0"/>
        <pt x="47" y="313" on="1"/>
        <pt x="47" y="379" on="0"/>
        <pt x="87" y="492" on="0"/>
        <pt x="161" y="576" on="0"/>
        <pt x="266" y="624" on="0"/>
        <pt x="331" y="624" on="1"/>
        <pt x="345" y="624" on="1"/>
        <pt x="374" y="728" on="1"/>
        <pt x="452" y="710" on="1"/>
      </contour>
      <contour>
        <pt x="209" y="323" on="1"/>
        <pt x="209" y="290" on="0"/>
        <pt x="228" y="249" on="0"/>
        <pt x="246" y="238" on="1"/>
        <pt x="315" y="487" on="1"/>
        <pt x="311" y="487" on="0"/>
        <pt x="307" y="485" on="1"/>
        <pt x="262" y="475" on="0"/>
        <pt x="209" y="387" on="0"/>
      </contour>
    </TTGlyph>
    <TTGlyph name="cent.tab" xMin="73" yMin="-12" xMax="515" yMax="728">
      <contour>
        <pt x="446" y="613" on="1"/>
        <pt x="485" y="604" on="0"/>
        <pt x="515" y="586" on="1"/>
        <pt x="472" y="454" on="1"/>
        <pt x="457" y="464" on="0"/>
        <pt x="422" y="479" on="0"/>
        <pt x="401" y="484" on="1"/>
        <pt x="330" y="225" on="1"/>
        <pt x="338" y="225" on="0"/>
        <pt x="341" y="226" on="1"/>
        <pt x="370" y="228" on="0"/>
        <pt x="419" y="242" on="0"/>
        <pt x="444" y="253" on="1"/>
        <pt x="444" y="123" on="1"/>
        <pt x="419" y="112" on="0"/>
        <pt x="355" y="95" on="0"/>
        <pt x="313" y="93" on="1"/>
        <pt x="302" y="93" on="1"/>
        <pt x="272" y="-12" on="1"/>
        <pt x="196" y="7" on="1"/>
        <pt x="222" y="102" on="1"/>
        <pt x="157" y="119" on="0"/>
        <pt x="73" y="224" on="0"/>
        <pt x="73" y="311" on="1"/>
        <pt x="73" y="377" on="0"/>
        <pt x="113" y="492" on="0"/>
        <pt x="187" y="576" on="0"/>
        <pt x="290" y="624" on="0"/>
        <pt x="353" y="624" on="1"/>
        <pt x="367" y="624" on="1"/>
        <pt x="396" y="728" on="1"/>
        <pt x="473" y="710" on="1"/>
      </contour>
      <contour>
        <pt x="227" y="324" on="1"/>
        <pt x="227" y="257" on="0"/>
        <pt x="267" y="236" on="1"/>
        <pt x="337" y="488" on="1"/>
        <pt x="335" y="488" on="0"/>
        <pt x="333" y="487" on="0"/>
        <pt x="331" y="487" on="1"/>
        <pt x="308" y="483" on="0"/>
        <pt x="269" y="455" on="0"/>
        <pt x="242" y="412" on="0"/>
        <pt x="227" y="356" on="0"/>
      </contour>
    </TTGlyph>
    <TTGlyph name="circumflex" xMin="96" yMin="605" xMax="457" yMax="772">
      <contour>
        <pt x="344" y="605" on="1"/>
        <pt x="287" y="669" on="1"/>
        <pt x="210" y="605" on="1"/>
        <pt x="96" y="605" on="1"/>
        <pt x="225" y="772" on="1"/>
        <pt x="375" y="772" on="1"/>
        <pt x="457" y="605" on="1"/>
      </contour>
    </TTGlyph>
    <TTGlyph name="circumflex.cap" xMin="89" yMin="567" xMax="429" yMax="724">
      <contour>
        <pt x="323" y="567" on="1"/>
        <pt x="269" y="627" on="1"/>
        <pt x="197" y="567" on="1"/>
        <pt x="89" y="567" on="1"/>
        <pt x="210" y="724" on="1"/>
        <pt x="353" y="724" on="1"/>
        <pt x="429" y="567" on="1"/>
      </contour>
    </TTGlyph>
    <TTGlyph name="colon" xMin="9" yMin="0" xMax="279" yMax="552">
      <contour>
        <pt x="249" y="349" on="1"/>
        <pt x="62" y="349" on="1"/>
        <pt x="93" y="552" on="1"/>
        <pt x="279" y="552" on="1"/>
      </contour>
      <contour>
        <pt x="196" y="0" on="1"/>
        <pt x="9" y="0" on="1"/>
        <pt x="41" y="204" on="1"/>
        <pt x="227" y="204" on="1"/>
      </contour>
    </TTGlyph>
    <TTGlyph name="colon.tab" xMin="2" yMin="0" xMax="265" yMax="552">
      <contour>
        <pt x="54" y="347" on="1"/>
        <pt x="85" y="552" on="1"/>
        <pt x="265" y="552" on="1"/>
        <pt x="235" y="347" on="1"/>
      </contour>
      <contour>
        <pt x="2" y="0" on="1"/>
        <pt x="33" y="206" on="1"/>
        <pt x="213" y="206" on="1"/>
        <pt x="183" y="0" on="1"/>
      </contour>
    </TTGlyph>
    <TTGlyph name="colonmonetary" xMin="42" yMin="-122" xMax="615" yMax="802">
      <contour>
        <pt x="463" y="712" on="1"/>
        <pt x="491" y="706" on="0"/>
        <pt x="513" y="697" on="1"/>
        <pt x="545" y="798" on="1"/>
        <pt x="615" y="778" on="1"/>
        <pt x="420" y="149" on="1"/>
        <pt x="436" y="154" on="0"/>
        <pt x="467" y="167" on="0"/>
        <pt x="484" y="175" on="1"/>
        <pt x="484" y="33" on="1"/>
        <pt x="461" y="22" on="0"/>
        <pt x="407" y="4" on="0"/>
        <pt x="374" y="0" on="1"/>
        <pt x="336" y="-122" on="1"/>
        <pt x="265" y="-101" on="1"/>
        <pt x="296" y="-3" on="1"/>
        <pt x="265" y="-1" on="0"/>
        <pt x="242" y="4" on="1"/>
        <pt x="205" y="-117" on="1"/>
        <pt x="134" y="-97" on="1"/>
        <pt x="174" y="30" on="1"/>
        <pt x="112" y="63" on="0"/>
        <pt x="42" y="195" on="0"/>
        <pt x="42" y="296" on="1"/>
        <pt x="42" y="387" on="0"/>
        <pt x="90" y="543" on="0"/>
        <pt x="178" y="657" on="0"/>
        <pt x="305" y="722" on="0"/>
        <pt x="383" y="722" on="1"/>
        <pt x="390" y="722" on="1"/>
        <pt x="414" y="802" on="1"/>
        <pt x="485" y="782" on="1"/>
      </contour>
      <contour>
        <pt x="209" y="298" on="1"/>
        <pt x="209" y="260" on="0"/>
        <pt x="222" y="205" on="0"/>
        <pt x="234" y="186" on="1"/>
        <pt x="357" y="579" on="1"/>
        <pt x="321" y="572" on="0"/>
        <pt x="266" y="520" on="0"/>
        <pt x="228" y="444" on="0"/>
        <pt x="209" y="348" on="0"/>
      </contour>
      <contour>
        <pt x="356" y="137" on="1"/>
        <pt x="485" y="553" on="1"/>
        <pt x="453" y="571" on="0"/>
        <pt x="416" y="578" on="1"/>
        <pt x="282" y="147" on="1"/>
        <pt x="306" y="137" on="0"/>
        <pt x="341" y="137" on="1"/>
      </contour>
    </TTGlyph>
    <TTGlyph name="comma" xMin="-34" yMin="-151" xMax="247" yMax="205">
      <contour>
        <pt x="65" y="-151" on="1"/>
        <pt x="-34" y="-125" on="1"/>
        <pt x="49" y="205" on="1"/>
        <pt x="247" y="205" on="1"/>
      </contour>
    </TTGlyph>
    <TTGlyph name="comma.alt" xMin="-46" yMin="-152" xMax="223" yMax="205">
      <contour>
        <pt x="220" y="205" on="1"/>
        <pt x="223" y="184" on="0"/>
        <pt x="223" y="162" on="1"/>
        <pt x="223" y="79" on="0"/>
        <pt x="138" y="-70" on="0"/>
        <pt x="47" y="-152" on="1"/>
        <pt x="-46" y="-116" on="1"/>
        <pt x="4" y="-38" on="0"/>
        <pt x="41" y="96" on="0"/>
        <pt x="41" y="152" on="1"/>
        <pt x="41" y="166" on="0"/>
        <pt x="39" y="191" on="0"/>
        <pt x="37" y="205" on="1"/>
      </contour>
    </TTGlyph>
    <TTGlyph name="comma.tab" xMin="-44" yMin="-154" xMax="239" yMax="209">
      <contour>
        <pt x="59" y="-154" on="1"/>
        <pt x="-44" y="-133" on="1"/>
        <pt x="45" y="209" on="1"/>
        <pt x="239" y="209" on="1"/>
      </contour>
    </TTGlyph>
    <TTGlyph name="comma.tab_alt" xMin="-52" yMin="-155" xMax="214" yMax="209">
      <contour>
        <pt x="211" y="209" on="1"/>
        <pt x="214" y="189" on="0"/>
        <pt x="214" y="168" on="1"/>
        <pt x="214" y="126" on="0"/>
        <pt x="194" y="48" on="0"/>
        <pt x="150" y="-30" on="0"/>
        <pt x="81" y="-111" on="0"/>
        <pt x="32" y="-155" on="1"/>
        <pt x="-52" y="-118" on="1"/>
        <pt x="-26" y="-79" on="0"/>
        <pt x="8" y="-7" on="0"/>
        <pt x="29" y="59" on="0"/>
        <pt x="37" y="122" on="0"/>
        <pt x="37" y="153" on="1"/>
        <pt x="37" y="167" on="0"/>
        <pt x="35" y="195" on="0"/>
        <pt x="33" y="209" on="1"/>
      </contour>
    </TTGlyph>
    <TTGlyph name="commaaccent" xMin="72" yMin="-274" xMax="298" yMax="-45">
      <contour>
        <pt x="268" y="-45" on="1"/>
        <pt x="282" y="-63" on="0"/>
        <pt x="298" y="-99" on="0"/>
        <pt x="298" y="-119" on="1"/>
        <pt x="298" y="-159" on="0"/>
        <pt x="240" y="-237" on="0"/>
        <pt x="179" y="-274" on="1"/>
        <pt x="72" y="-256" on="1"/>
        <pt x="108" y="-220" on="0"/>
        <pt x="138" y="-166" on="0"/>
        <pt x="138" y="-139" on="1"/>
        <pt x="138" y="-124" on="0"/>
        <pt x="127" y="-92" on="0"/>
        <pt x="113" y="-72" on="1"/>
      </contour>
    </TTGlyph>
    <TTGlyph name="commaaccent.cap" xMin="67" yMin="-257" xMax="281" yMax="-42">
      <contour>
        <pt x="253" y="-42" on="1"/>
        <pt x="281" y="-76" on="0"/>
        <pt x="281" y="-111" on="1"/>
        <pt x="281" y="-189" on="0"/>
        <pt x="168" y="-257" on="1"/>
        <pt x="67" y="-240" on="1"/>
        <pt x="101" y="-206" on="0"/>
        <pt x="129" y="-156" on="0"/>
        <pt x="129" y="-130" on="1"/>
        <pt x="129" y="-116" on="0"/>
        <pt x="119" y="-86" on="0"/>
        <pt x="106" y="-68" on="1"/>
      </contour>
    </TTGlyph>
    <TTGlyph name="commaaccent.rot" xMin="270" yMin="599" xMax="496" yMax="828">
      <contour>
        <pt x="300" y="599" on="1"/>
        <pt x="270" y="635" on="0"/>
        <pt x="270" y="673" on="1"/>
        <pt x="270" y="714" on="0"/>
        <pt x="327" y="791" on="0"/>
        <pt x="389" y="828" on="1"/>
        <pt x="496" y="810" on="1"/>
        <pt x="459" y="774" on="0"/>
        <pt x="429" y="720" on="0"/>
        <pt x="429" y="694" on="1"/>
        <pt x="429" y="679" on="0"/>
        <pt x="440" y="647" on="0"/>
        <pt x="454" y="627" on="1"/>
      </contour>
    </TTGlyph>
    <TTGlyph name="copyright" xMin="74" yMin="-19" xMax="729" yMax="743">
      <contour>
        <pt x="729" y="363" on="1"/>
        <pt x="729" y="278" on="0"/>
        <pt x="681" y="138" on="0"/>
        <pt x="594" y="37" on="0"/>
        <pt x="474" y="-19" on="0"/>
        <pt x="401" y="-19" on="1"/>
        <pt x="327" y="-19" on="0"/>
        <pt x="207" y="36" on="0"/>
        <pt x="121" y="136" on="0"/>
        <pt x="74" y="276" on="0"/>
        <pt x="74" y="361" on="1"/>
        <pt x="74" y="446" on="0"/>
        <pt x="122" y="587" on="0"/>
        <pt x="208" y="688" on="0"/>
        <pt x="329" y="743" on="0"/>
        <pt x="402" y="743" on="1"/>
        <pt x="475" y="743" on="0"/>
        <pt x="596" y="688" on="0"/>
        <pt x="682" y="588" on="0"/>
        <pt x="729" y="448" on="0"/>
      </contour>
      <contour>
        <pt x="683" y="362" on="1"/>
        <pt x="683" y="444" on="0"/>
        <pt x="639" y="572" on="0"/>
        <pt x="563" y="660" on="0"/>
        <pt x="460" y="706" on="0"/>
        <pt x="402" y="706" on="1"/>
        <pt x="342" y="706" on="0"/>
        <pt x="239" y="660" on="0"/>
        <pt x="163" y="572" on="0"/>
        <pt x="120" y="444" on="0"/>
        <pt x="120" y="362" on="1"/>
        <pt x="120" y="281" on="0"/>
        <pt x="164" y="153" on="0"/>
        <pt x="240" y="66" on="0"/>
        <pt x="343" y="20" on="0"/>
        <pt x="402" y="20" on="1"/>
        <pt x="461" y="20" on="0"/>
        <pt x="563" y="66" on="0"/>
        <pt x="639" y="153" on="0"/>
        <pt x="683" y="281" on="0"/>
      </contour>
      <contour>
        <pt x="541" y="175" on="1"/>
        <pt x="512" y="160" on="0"/>
        <pt x="456" y="146" on="0"/>
        <pt x="420" y="146" on="1"/>
        <pt x="328" y="146" on="0"/>
        <pt x="227" y="262" on="0"/>
        <pt x="227" y="365" on="1"/>
        <pt x="227" y="468" on="0"/>
        <pt x="331" y="586" on="0"/>
        <pt x="421" y="586" on="1"/>
        <pt x="456" y="586" on="0"/>
        <pt x="509" y="572" on="0"/>
        <pt x="535" y="561" on="1"/>
        <pt x="518" y="453" on="1"/>
        <pt x="494" y="468" on="0"/>
        <pt x="457" y="480" on="0"/>
        <pt x="436" y="480" on="1"/>
        <pt x="399" y="480" on="0"/>
        <pt x="357" y="421" on="0"/>
        <pt x="357" y="366" on="1"/>
        <pt x="357" y="310" on="0"/>
        <pt x="401" y="251" on="0"/>
        <pt x="443" y="251" on="1"/>
        <pt x="460" y="251" on="0"/>
        <pt x="499" y="263" on="0"/>
        <pt x="525" y="278" on="1"/>
      </contour>
    </TTGlyph>
    <TTGlyph name="d" xMin="29" yMin="-11" xMax="591" yMax="809">
      <contour>
        <pt x="490" y="136" on="1"/>
        <pt x="490" y="0" on="1"/>
        <pt x="321" y="0" on="1"/>
        <pt x="315" y="85" on="1"/>
        <pt x="278" y="40" on="0"/>
        <pt x="210" y="-11" on="0"/>
        <pt x="168" y="-11" on="1"/>
        <pt x="104" y="-11" on="0"/>
        <pt x="29" y="92" on="0"/>
        <pt x="29" y="184" on="1"/>
        <pt x="29" y="274" on="0"/>
        <pt x="76" y="414" on="0"/>
        <pt x="156" y="509" on="0"/>
        <pt x="264" y="558" on="0"/>
        <pt x="326" y="558" on="1"/>
        <pt x="340" y="558" on="0"/>
        <pt x="364" y="555" on="0"/>
        <pt x="377" y="553" on="1"/>
        <pt x="410" y="781" on="1"/>
        <pt x="591" y="809" on="1"/>
      </contour>
      <contour>
        <pt x="356" y="412" on="1"/>
        <pt x="348" y="416" on="0"/>
        <pt x="332" y="419" on="0"/>
        <pt x="324" y="419" on="1"/>
        <pt x="301" y="419" on="0"/>
        <pt x="259" y="390" on="0"/>
        <pt x="227" y="338" on="0"/>
        <pt x="208" y="265" on="0"/>
        <pt x="208" y="221" on="1"/>
        <pt x="208" y="147" on="0"/>
        <pt x="251" y="147" on="1"/>
        <pt x="268" y="147" on="0"/>
        <pt x="300" y="170" on="0"/>
        <pt x="323" y="194" on="1"/>
      </contour>
    </TTGlyph>
    <TTGlyph name="dagger" xMin="70" yMin="-112" xMax="494" yMax="725">
      <contour>
        <pt x="303" y="513" on="1"/>
        <pt x="273" y="513" on="1"/>
        <pt x="246" y="648" on="1"/>
        <pt x="257" y="725" on="1"/>
        <pt x="383" y="725" on="1"/>
        <pt x="371" y="648" on="1"/>
      </contour>
      <contour>
        <pt x="435" y="413" on="1"/>
        <pt x="318" y="460" on="1"/>
        <pt x="323" y="489" on="1"/>
        <pt x="453" y="537" on="1"/>
        <pt x="494" y="537" on="1"/>
        <pt x="476" y="413" on="1"/>
      </contour>
      <contour>
        <pt x="111" y="413" on="1"/>
        <pt x="70" y="413" on="1"/>
        <pt x="89" y="537" on="1"/>
        <pt x="129" y="537" on="1"/>
        <pt x="247" y="489" on="1"/>
        <pt x="242" y="460" on="1"/>
      </contour>
      <contour>
        <pt x="209" y="-112" on="1"/>
        <pt x="181" y="-112" on="1"/>
        <pt x="156" y="20" on="1"/>
        <pt x="199" y="308" on="1"/>
        <pt x="262" y="437" on="1"/>
        <pt x="291" y="437" on="1"/>
        <pt x="316" y="308" on="1"/>
        <pt x="274" y="20" on="1"/>
      </contour>
    </TTGlyph>
    <TTGlyph name="daggerdbl" xMin="14" yMin="-182" xMax="499" yMax="725">
      <contour>
        <pt x="307" y="513" on="1"/>
        <pt x="277" y="513" on="1"/>
        <pt x="249" y="648" on="1"/>
        <pt x="262" y="725" on="1"/>
        <pt x="387" y="725" on="1"/>
        <pt x="375" y="648" on="1"/>
      </contour>
      <contour>
        <pt x="440" y="413" on="1"/>
        <pt x="322" y="460" on="1"/>
        <pt x="327" y="489" on="1"/>
        <pt x="458" y="537" on="1"/>
        <pt x="499" y="537" on="1"/>
        <pt x="480" y="413" on="1"/>
      </contour>
      <contour>
        <pt x="116" y="413" on="1"/>
        <pt x="74" y="413" on="1"/>
        <pt x="93" y="537" on="1"/>
        <pt x="134" y="537" on="1"/>
        <pt x="251" y="489" on="1"/>
        <pt x="247" y="460" on="1"/>
      </contour>
      <contour>
        <pt x="247" y="108" on="1"/>
        <pt x="217" y="108" on="1"/>
        <pt x="193" y="236" on="1"/>
        <pt x="203" y="308" on="1"/>
        <pt x="266" y="437" on="1"/>
        <pt x="297" y="437" on="1"/>
        <pt x="321" y="308" on="1"/>
        <pt x="310" y="236" on="1"/>
      </contour>
      <contour>
        <pt x="379" y="8" on="1"/>
        <pt x="262" y="55" on="1"/>
        <pt x="266" y="85" on="1"/>
        <pt x="397" y="131" on="1"/>
        <pt x="439" y="131" on="1"/>
        <pt x="420" y="8" on="1"/>
      </contour>
      <contour>
        <pt x="55" y="8" on="1"/>
        <pt x="14" y="8" on="1"/>
        <pt x="33" y="131" on="1"/>
        <pt x="73" y="131" on="1"/>
        <pt x="190" y="85" on="1"/>
        <pt x="186" y="55" on="1"/>
      </contour>
      <contour>
        <pt x="126" y="-182" on="1"/>
        <pt x="138" y="-104" on="1"/>
        <pt x="206" y="32" on="1"/>
        <pt x="236" y="32" on="1"/>
        <pt x="263" y="-104" on="1"/>
        <pt x="252" y="-182" on="1"/>
      </contour>
    </TTGlyph>
    <TTGlyph name="dcaron" xMin="29" yMin="-11" xMax="770" yMax="810">
      <component glyphName="caron.alt" x="394" y="20" flags="0x4"/>
      <component glyphName="d" x="0" y="0" flags="0x4"/>
    </TTGlyph>
    <TTGlyph name="dcroat" xMin="28" yMin="-11" xMax="643" yMax="809">
      <contour>
        <pt x="577" y="722" on="1"/>
        <pt x="643" y="722" on="1"/>
        <pt x="625" y="613" on="1"/>
        <pt x="561" y="613" on="1"/>
        <pt x="489" y="136" on="1"/>
        <pt x="489" y="0" on="1"/>
        <pt x="320" y="0" on="1"/>
        <pt x="314" y="85" on="1"/>
        <pt x="277" y="40" on="0"/>
        <pt x="209" y="-11" on="0"/>
        <pt x="167" y="-11" on="1"/>
        <pt x="103" y="-11" on="0"/>
        <pt x="28" y="92" on="0"/>
        <pt x="28" y="184" on="1"/>
        <pt x="28" y="274" on="0"/>
        <pt x="75" y="414" on="0"/>
        <pt x="155" y="509" on="0"/>
        <pt x="263" y="558" on="0"/>
        <pt x="325" y="558" on="1"/>
        <pt x="339" y="558" on="0"/>
        <pt x="363" y="555" on="0"/>
        <pt x="376" y="553" on="1"/>
        <pt x="385" y="614" on="1"/>
        <pt x="284" y="614" on="1"/>
        <pt x="284" y="722" on="1"/>
        <pt x="400" y="722" on="1"/>
        <pt x="409" y="781" on="1"/>
        <pt x="590" y="809" on="1"/>
      </contour>
      <contour>
        <pt x="355" y="412" on="1"/>
        <pt x="347" y="416" on="0"/>
        <pt x="331" y="419" on="0"/>
        <pt x="323" y="419" on="1"/>
        <pt x="300" y="419" on="0"/>
        <pt x="258" y="390" on="0"/>
        <pt x="226" y="338" on="0"/>
        <pt x="207" y="265" on="0"/>
        <pt x="207" y="221" on="1"/>
        <pt x="207" y="147" on="0"/>
        <pt x="250" y="147" on="1"/>
        <pt x="267" y="147" on="0"/>
        <pt x="299" y="170" on="0"/>
        <pt x="322" y="194" on="1"/>
      </contour>
    </TTGlyph>
    <TTGlyph name="dcroat.flat" xMin="28" yMin="-11" xMax="643" yMax="809">
      <contour>
        <pt x="577" y="722" on="1"/>
        <pt x="643" y="722" on="1"/>
        <pt x="625" y="613" on="1"/>
        <pt x="561" y="613" on="1"/>
        <pt x="489" y="136" on="1"/>
        <pt x="489" y="0" on="1"/>
        <pt x="320" y="0" on="1"/>
        <pt x="314" y="85" on="1"/>
        <pt x="277" y="40" on="0"/>
        <pt x="209" y="-11" on="0"/>
        <pt x="167" y="-11" on="1"/>
        <pt x="103" y="-11" on="0"/>
        <pt x="28" y="92" on="0"/>
        <pt x="28" y="184" on="1"/>
        <pt x="28" y="274" on="0"/>
        <pt x="75" y="414" on="0"/>
        <pt x="155" y="509" on="0"/>
        <pt x="263" y="558" on="0"/>
        <pt x="325" y="558" on="1"/>
        <pt x="339" y="558" on="0"/>
        <pt x="363" y="555" on="0"/>
        <pt x="376" y="553" on="1"/>
        <pt x="385" y="614" on="1"/>
        <pt x="276" y="614" on="1"/>
        <pt x="293" y="722" on="1"/>
        <pt x="400" y="722" on="1"/>
        <pt x="409" y="781" on="1"/>
        <pt x="590" y="809" on="1"/>
      </contour>
      <contour>
        <pt x="355" y="412" on="1"/>
        <pt x="347" y="416" on="0"/>
        <pt x="331" y="419" on="0"/>
        <pt x="323" y="419" on="1"/>
        <pt x="300" y="419" on="0"/>
        <pt x="258" y="390" on="0"/>
        <pt x="226" y="338" on="0"/>
        <pt x="207" y="265" on="0"/>
        <pt x="207" y="221" on="1"/>
        <pt x="207" y="147" on="0"/>
        <pt x="250" y="147" on="1"/>
        <pt x="267" y="147" on="0"/>
        <pt x="299" y="170" on="0"/>
        <pt x="322" y="194" on="1"/>
      </contour>
    </TTGlyph>
    <TTGlyph name="degree" xMin="87" yMin="375" xMax="438" yMax="725">
      <contour>
        <pt x="438" y="549" on="1"/>
        <pt x="438" y="511" on="0"/>
        <pt x="412" y="447" on="0"/>
        <pt x="365" y="401" on="0"/>
        <pt x="301" y="375" on="0"/>
        <pt x="263" y="375" on="1"/>
        <pt x="225" y="375" on="0"/>
        <pt x="160" y="401" on="0"/>
        <pt x="113" y="447" on="0"/>
        <pt x="87" y="511" on="0"/>
        <pt x="87" y="549" on="1"/>
        <pt x="87" y="587" on="0"/>
        <pt x="113" y="651" on="0"/>
        <pt x="160" y="698" on="0"/>
        <pt x="225" y="725" on="0"/>
        <pt x="263" y="725" on="1"/>
        <pt x="301" y="725" on="0"/>
        <pt x="365" y="698" on="0"/>
        <pt x="412" y="651" on="0"/>
        <pt x="438" y="587" on="0"/>
      </contour>
      <contour>
        <pt x="341" y="549" on="1"/>
        <pt x="341" y="585" on="0"/>
        <pt x="298" y="634" on="0"/>
        <pt x="263" y="634" on="1"/>
        <pt x="228" y="634" on="0"/>
        <pt x="185" y="585" on="0"/>
        <pt x="185" y="549" on="1"/>
        <pt x="185" y="512" on="0"/>
        <pt x="228" y="464" on="0"/>
        <pt x="263" y="464" on="1"/>
        <pt x="298" y="464" on="0"/>
        <pt x="341" y="512" on="0"/>
      </contour>
    </TTGlyph>
    <TTGlyph name="degree.tab" xMin="104" yMin="343" xMax="492" yMax="729">
      <contour>
        <pt x="298" y="343" on="1"/>
        <pt x="256" y="343" on="0"/>
        <pt x="184" y="371" on="0"/>
        <pt x="133" y="422" on="0"/>
        <pt x="104" y="493" on="0"/>
        <pt x="104" y="535" on="1"/>
        <pt x="104" y="577" on="0"/>
        <pt x="133" y="648" on="0"/>
        <pt x="184" y="700" on="0"/>
        <pt x="256" y="729" on="0"/>
        <pt x="298" y="729" on="1"/>
        <pt x="340" y="729" on="0"/>
        <pt x="412" y="700" on="0"/>
        <pt x="463" y="648" on="0"/>
        <pt x="492" y="577" on="0"/>
        <pt x="492" y="535" on="1"/>
        <pt x="492" y="493" on="0"/>
        <pt x="463" y="422" on="0"/>
        <pt x="412" y="371" on="0"/>
        <pt x="340" y="343" on="0"/>
      </contour>
      <contour>
        <pt x="298" y="640" on="1"/>
        <pt x="254" y="640" on="0"/>
        <pt x="202" y="580" on="0"/>
        <pt x="202" y="535" on="1"/>
        <pt x="202" y="490" on="0"/>
        <pt x="254" y="433" on="0"/>
        <pt x="298" y="433" on="1"/>
        <pt x="342" y="433" on="0"/>
        <pt x="395" y="490" on="0"/>
        <pt x="395" y="535" on="1"/>
        <pt x="395" y="580" on="0"/>
        <pt x="342" y="640" on="0"/>
      </contour>
    </TTGlyph>
    <TTGlyph name="dieresis" xMin="105" yMin="606" xMax="469" yMax="758">
      <contour>
        <pt x="304" y="606" on="1"/>
        <pt x="327" y="758" on="1"/>
        <pt x="469" y="758" on="1"/>
        <pt x="445" y="606" on="1"/>
      </contour>
      <contour>
        <pt x="105" y="606" on="1"/>
        <pt x="127" y="758" on="1"/>
        <pt x="268" y="758" on="1"/>
        <pt x="245" y="606" on="1"/>
      </contour>
    </TTGlyph>
    <TTGlyph name="dieresis.cap" xMin="98" yMin="568" xMax="440" yMax="712">
      <contour>
        <pt x="285" y="568" on="1"/>
        <pt x="307" y="712" on="1"/>
        <pt x="440" y="712" on="1"/>
        <pt x="418" y="568" on="1"/>
      </contour>
      <contour>
        <pt x="98" y="568" on="1"/>
        <pt x="119" y="712" on="1"/>
        <pt x="252" y="712" on="1"/>
        <pt x="230" y="568" on="1"/>
      </contour>
    </TTGlyph>
    <TTGlyph name="divide" xMin="57" yMin="93" xMax="520" yMax="624">
      <contour>
        <pt x="236" y="486" on="1"/>
        <pt x="257" y="624" on="1"/>
        <pt x="401" y="624" on="1"/>
        <pt x="380" y="486" on="1"/>
      </contour>
      <contour>
        <pt x="57" y="294" on="1"/>
        <pt x="77" y="423" on="1"/>
        <pt x="520" y="423" on="1"/>
        <pt x="501" y="294" on="1"/>
      </contour>
      <contour>
        <pt x="176" y="93" on="1"/>
        <pt x="198" y="231" on="1"/>
        <pt x="341" y="231" on="1"/>
        <pt x="320" y="93" on="1"/>
      </contour>
    </TTGlyph>
    <TTGlyph name="divide.tab" xMin="46" yMin="95" xMax="512" yMax="626">
      <contour>
        <pt x="226" y="491" on="1"/>
        <pt x="247" y="626" on="1"/>
        <pt x="392" y="626" on="1"/>
        <pt x="371" y="491" on="1"/>
      </contour>
      <contour>
        <pt x="46" y="297" on="1"/>
        <pt x="66" y="423" on="1"/>
        <pt x="512" y="423" on="1"/>
        <pt x="492" y="297" on="1"/>
      </contour>
      <contour>
        <pt x="166" y="95" on="1"/>
        <pt x="187" y="229" on="1"/>
        <pt x="332" y="229" on="1"/>
        <pt x="311" y="95" on="1"/>
      </contour>
    </TTGlyph>
    <TTGlyph name="dollar" xMin="1" yMin="-129" xMax="560" yMax="802">
      <contour>
        <pt x="442" y="707" on="1"/>
        <pt x="477" y="699" on="0"/>
        <pt x="535" y="673" on="0"/>
        <pt x="560" y="658" on="1"/>
        <pt x="511" y="512" on="1"/>
        <pt x="485" y="531" on="0"/>
        <pt x="424" y="561" on="0"/>
        <pt x="392" y="570" on="1"/>
        <pt x="350" y="432" on="1"/>
        <pt x="392" y="411" on="0"/>
        <pt x="454" y="368" on="0"/>
        <pt x="495" y="318" on="0"/>
        <pt x="515" y="259" on="0"/>
        <pt x="515" y="223" on="1"/>
        <pt x="515" y="169" on="0"/>
        <pt x="480" y="84" on="0"/>
        <pt x="416" y="25" on="0"/>
        <pt x="327" y="-5" on="0"/>
        <pt x="273" y="-5" on="1"/>
        <pt x="261" y="-5" on="0"/>
        <pt x="237" y="-4" on="0"/>
        <pt x="225" y="-3" on="1"/>
        <pt x="187" y="-129" on="1"/>
        <pt x="111" y="-109" on="1"/>
        <pt x="148" y="11" on="1"/>
        <pt x="104" y="23" on="0"/>
        <pt x="32" y="57" on="0"/>
        <pt x="1" y="75" on="1"/>
        <pt x="53" y="220" on="1"/>
        <pt x="85" y="197" on="0"/>
        <pt x="160" y="161" on="0"/>
        <pt x="198" y="150" on="1"/>
        <pt x="244" y="301" on="1"/>
        <pt x="203" y="321" on="0"/>
        <pt x="143" y="362" on="0"/>
        <pt x="104" y="409" on="0"/>
        <pt x="85" y="465" on="0"/>
        <pt x="85" y="500" on="1"/>
        <pt x="85" y="551" on="0"/>
        <pt x="120" y="633" on="0"/>
        <pt x="183" y="691" on="0"/>
        <pt x="273" y="722" on="0"/>
        <pt x="328" y="722" on="1"/>
        <pt x="337" y="722" on="0"/>
        <pt x="355" y="722" on="0"/>
        <pt x="364" y="721" on="1"/>
        <pt x="389" y="802" on="1"/>
        <pt x="466" y="781" on="1"/>
      </contour>
      <contour>
        <pt x="359" y="204" on="1"/>
        <pt x="359" y="224" on="0"/>
        <pt x="335" y="252" on="0"/>
        <pt x="301" y="271" on="1"/>
        <pt x="261" y="138" on="1"/>
        <pt x="265" y="137" on="0"/>
        <pt x="273" y="137" on="0"/>
        <pt x="278" y="137" on="1"/>
        <pt x="317" y="137" on="0"/>
        <pt x="359" y="174" on="0"/>
      </contour>
      <contour>
        <pt x="242" y="521" on="1"/>
        <pt x="242" y="504" on="0"/>
        <pt x="264" y="478" on="0"/>
        <pt x="293" y="462" on="1"/>
        <pt x="329" y="582" on="1"/>
        <pt x="317" y="582" on="1"/>
        <pt x="280" y="582" on="0"/>
        <pt x="242" y="547" on="0"/>
      </contour>
    </TTGlyph>
    <TTGlyph name="dollar.tab" xMin="-5" yMin="-126" xMax="537" yMax="798">
      <contour>
        <pt x="438" y="704" on="1"/>
        <pt x="466" y="695" on="0"/>
        <pt x="514" y="671" on="0"/>
        <pt x="537" y="657" on="1"/>
        <pt x="491" y="516" on="1"/>
        <pt x="472" y="531" on="0"/>
        <pt x="418" y="563" on="0"/>
        <pt x="388" y="575" on="1"/>
        <pt x="341" y="422" on="1"/>
        <pt x="382" y="400" on="0"/>
        <pt x="439" y="357" on="0"/>
        <pt x="474" y="310" on="0"/>
        <pt x="490" y="255" on="0"/>
        <pt x="490" y="222" on="1"/>
        <pt x="490" y="170" on="0"/>
        <pt x="456" y="86" on="0"/>
        <pt x="393" y="26" on="0"/>
        <pt x="305" y="-7" on="0"/>
        <pt x="251" y="-7" on="1"/>
        <pt x="240" y="-7" on="0"/>
        <pt x="220" y="-6" on="0"/>
        <pt x="209" y="-5" on="1"/>
        <pt x="173" y="-126" on="1"/>
        <pt x="93" y="-106" on="1"/>
        <pt x="130" y="12" on="1"/>
        <pt x="89" y="25" on="0"/>
        <pt x="21" y="60" on="0"/>
        <pt x="-5" y="77" on="1"/>
        <pt x="40" y="214" on="1"/>
        <pt x="69" y="193" on="0"/>
        <pt x="141" y="153" on="0"/>
        <pt x="178" y="141" on="1"/>
        <pt x="231" y="309" on="1"/>
        <pt x="194" y="327" on="0"/>
        <pt x="138" y="365" on="0"/>
        <pt x="101" y="410" on="0"/>
        <pt x="83" y="466" on="0"/>
        <pt x="83" y="503" on="1"/>
        <pt x="83" y="549" on="0"/>
        <pt x="112" y="629" on="0"/>
        <pt x="171" y="688" on="0"/>
        <pt x="258" y="722" on="0"/>
        <pt x="316" y="722" on="1"/>
        <pt x="327" y="722" on="0"/>
        <pt x="348" y="721" on="0"/>
        <pt x="358" y="720" on="1"/>
        <pt x="383" y="798" on="1"/>
        <pt x="462" y="778" on="1"/>
      </contour>
      <contour>
        <pt x="340" y="202" on="1"/>
        <pt x="340" y="222" on="0"/>
        <pt x="321" y="256" on="0"/>
        <pt x="289" y="277" on="1"/>
        <pt x="242" y="127" on="1"/>
        <pt x="247" y="126" on="0"/>
        <pt x="256" y="126" on="1"/>
        <pt x="294" y="126" on="0"/>
        <pt x="340" y="169" on="0"/>
      </contour>
      <contour>
        <pt x="233" y="523" on="1"/>
        <pt x="233" y="501" on="0"/>
        <pt x="256" y="472" on="0"/>
        <pt x="284" y="455" on="1"/>
        <pt x="326" y="591" on="1"/>
        <pt x="321" y="592" on="0"/>
        <pt x="313" y="592" on="0"/>
        <pt x="308" y="592" on="1"/>
        <pt x="269" y="592" on="0"/>
        <pt x="233" y="551" on="0"/>
      </contour>
    </TTGlyph>
    <TTGlyph name="dotaccent" xMin="200" yMin="606" xMax="371" yMax="758">
      <contour>
        <pt x="200" y="606" on="1"/>
        <pt x="223" y="758" on="1"/>
        <pt x="371" y="758" on="1"/>
        <pt x="347" y="606" on="1"/>
      </contour>
    </TTGlyph>
    <TTGlyph name="dotaccent.cap" xMin="187" yMin="568" xMax="348" yMax="712">
      <contour>
        <pt x="187" y="568" on="1"/>
        <pt x="209" y="712" on="1"/>
        <pt x="348" y="712" on="1"/>
        <pt x="326" y="568" on="1"/>
      </contour>
    </TTGlyph>
    <TTGlyph name="dotlessi" xMin="14" yMin="0" xMax="277" yMax="552">
      <contour>
        <pt x="193" y="0" on="1"/>
        <pt x="14" y="0" on="1"/>
        <pt x="99" y="552" on="1"/>
        <pt x="277" y="552" on="1"/>
      </contour>
    </TTGlyph>
    <TTGlyph name="e" xMin="30" yMin="-11" xMax="498" yMax="563">
      <contour>
        <pt x="297" y="120" on="1"/>
        <pt x="337" y="120" on="0"/>
        <pt x="413" y="144" on="0"/>
        <pt x="451" y="164" on="1"/>
        <pt x="451" y="37" on="1"/>
        <pt x="406" y="14" on="0"/>
        <pt x="316" y="-11" on="0"/>
        <pt x="261" y="-11" on="1"/>
        <pt x="208" y="-11" on="0"/>
        <pt x="122" y="22" on="0"/>
        <pt x="62" y="84" on="0"/>
        <pt x="30" y="171" on="0"/>
        <pt x="30" y="224" on="1"/>
        <pt x="30" y="294" on="0"/>
        <pt x="71" y="418" on="0"/>
        <pt x="144" y="510" on="0"/>
        <pt x="246" y="563" on="0"/>
        <pt x="308" y="563" on="1"/>
        <pt x="355" y="563" on="0"/>
        <pt x="426" y="532" on="0"/>
        <pt x="474" y="477" on="0"/>
        <pt x="498" y="401" on="0"/>
        <pt x="498" y="356" on="1"/>
        <pt x="498" y="325" on="0"/>
        <pt x="489" y="259" on="0"/>
        <pt x="482" y="230" on="1"/>
        <pt x="199" y="230" on="1"/>
        <pt x="199" y="220" on="1"/>
        <pt x="202" y="166" on="0"/>
        <pt x="253" y="120" on="0"/>
      </contour>
      <contour>
        <pt x="295" y="442" on="1"/>
        <pt x="266" y="442" on="0"/>
        <pt x="222" y="380" on="0"/>
        <pt x="210" y="332" on="1"/>
        <pt x="337" y="332" on="1"/>
        <pt x="341" y="352" on="0"/>
        <pt x="341" y="374" on="1"/>
        <pt x="341" y="406" on="0"/>
        <pt x="318" y="442" on="0"/>
      </contour>
    </TTGlyph>
    <TTGlyph name="eacute" xMin="30" yMin="-11" xMax="539" yMax="778">
      <component glyphName="acute" x="103" y="3" flags="0x4"/>
      <component glyphName="e" x="0" y="0" flags="0x4"/>
    </TTGlyph>
    <TTGlyph name="ebreve" xMin="30" yMin="-11" xMax="508" yMax="778">
      <component glyphName="e" x="0" y="0" flags="0x204"/>
      <component glyphName="breve" x="47" y="3" flags="0x4"/>
    </TTGlyph>
    <TTGlyph name="ecaron" xMin="30" yMin="-11" xMax="522" yMax="775">
      <component glyphName="caron" x="44" y="3" flags="0x4"/>
      <component glyphName="e" x="0" y="0" flags="0x4"/>
    </TTGlyph>
    <TTGlyph name="ecircumflex" xMin="30" yMin="-11" xMax="498" yMax="775">
      <component glyphName="circumflex" x="41" y="3" flags="0x4"/>
      <component glyphName="e" x="0" y="0" flags="0x4"/>
    </TTGlyph>
    <TTGlyph name="edieresis" xMin="30" yMin="-11" xMax="512" yMax="761">
      <component glyphName="dieresis" x="43" y="3" flags="0x4"/>
      <component glyphName="e" x="0" y="0" flags="0x4"/>
    </TTGlyph>
    <TTGlyph name="edotaccent" xMin="30" yMin="-11" xMax="498" yMax="761">
      <component glyphName="e" x="0" y="0" flags="0x204"/>
      <component glyphName="dotaccent" x="45" y="3" flags="0x4"/>
    </TTGlyph>
    <TTGlyph name="egrave" xMin="30" yMin="-11" xMax="498" yMax="778">
      <component glyphName="e" x="0" y="0" flags="0x204"/>
      <component glyphName="grave" x="-27" y="3" flags="0x4"/>
    </TTGlyph>
    <TTGlyph name="eight" xMin="28" yMin="-13" xMax="576" yMax="731">
      <contour>
        <pt x="28" y="177" on="1"/>
        <pt x="28" y="244" on="0"/>
        <pt x="105" y="345" on="0"/>
        <pt x="175" y="380" on="1"/>
        <pt x="98" y="448" on="0"/>
        <pt x="98" y="527" on="1"/>
        <pt x="98" y="570" on="0"/>
        <pt x="132" y="645" on="0"/>
        <pt x="196" y="700" on="0"/>
        <pt x="288" y="731" on="0"/>
        <pt x="347" y="731" on="1"/>
        <pt x="400" y="731" on="0"/>
        <pt x="485" y="705" on="0"/>
        <pt x="544" y="659" on="0"/>
        <pt x="576" y="596" on="0"/>
        <pt x="576" y="559" on="1"/>
        <pt x="576" y="445" on="0"/>
        <pt x="446" y="376" on="1"/>
        <pt x="494" y="341" on="0"/>
        <pt x="541" y="259" on="0"/>
        <pt x="541" y="207" on="1"/>
        <pt x="541" y="160" on="0"/>
        <pt x="505" y="80" on="0"/>
        <pt x="438" y="21" on="0"/>
        <pt x="340" y="-13" on="0"/>
        <pt x="278" y="-13" on="1"/>
        <pt x="214" y="-13" on="0"/>
        <pt x="120" y="17" on="0"/>
        <pt x="58" y="69" on="0"/>
        <pt x="28" y="138" on="0"/>
      </contour>
      <contour>
        <pt x="200" y="190" on="1"/>
        <pt x="200" y="156" on="0"/>
        <pt x="244" y="113" on="0"/>
        <pt x="282" y="113" on="1"/>
        <pt x="320" y="113" on="0"/>
        <pt x="369" y="160" on="0"/>
        <pt x="369" y="199" on="1"/>
        <pt x="369" y="230" on="0"/>
        <pt x="329" y="283" on="0"/>
        <pt x="274" y="315" on="1"/>
        <pt x="238" y="288" on="0"/>
        <pt x="200" y="225" on="0"/>
      </contour>
      <contour>
        <pt x="265" y="539" on="1"/>
        <pt x="265" y="512" on="0"/>
        <pt x="301" y="465" on="0"/>
        <pt x="343" y="439" on="1"/>
        <pt x="374" y="464" on="0"/>
        <pt x="409" y="517" on="0"/>
        <pt x="409" y="547" on="1"/>
        <pt x="409" y="576" on="0"/>
        <pt x="373" y="609" on="0"/>
        <pt x="341" y="609" on="1"/>
        <pt x="306" y="609" on="0"/>
        <pt x="265" y="568" on="0"/>
      </contour>
    </TTGlyph>
    <TTGlyph name="eight.den" xMin="15" yMin="-10" xMax="317" yMax="387">
      <component glyphName="eight.num" x="-51" y="-343" flags="0x204"/>
    </TTGlyph>
    <TTGlyph name="eight.inf" xMin="-10" yMin="-167" xMax="292" yMax="230">
      <component glyphName="eight.num" x="-76" y="-500" flags="0x204"/>
    </TTGlyph>
    <TTGlyph name="eight.num" xMin="66" yMin="333" xMax="368" yMax="730">
      <contour>
        <pt x="66" y="436" on="1"/>
        <pt x="66" y="468" on="0"/>
        <pt x="101" y="521" on="0"/>
        <pt x="142" y="541" on="1"/>
        <pt x="122" y="557" on="0"/>
        <pt x="98" y="596" on="0"/>
        <pt x="98" y="622" on="1"/>
        <pt x="98" y="644" on="0"/>
        <pt x="116" y="683" on="0"/>
        <pt x="152" y="713" on="0"/>
        <pt x="205" y="730" on="0"/>
        <pt x="240" y="730" on="1"/>
        <pt x="299" y="730" on="0"/>
        <pt x="368" y="677" on="0"/>
        <pt x="368" y="635" on="1"/>
        <pt x="368" y="599" on="0"/>
        <pt x="327" y="553" on="0"/>
        <pt x="295" y="536" on="1"/>
        <pt x="318" y="519" on="0"/>
        <pt x="348" y="479" on="0"/>
        <pt x="348" y="450" on="1"/>
        <pt x="348" y="426" on="0"/>
        <pt x="329" y="384" on="0"/>
        <pt x="292" y="352" on="0"/>
        <pt x="238" y="333" on="0"/>
        <pt x="203" y="333" on="1"/>
        <pt x="137" y="333" on="0"/>
        <pt x="66" y="390" on="0"/>
      </contour>
      <contour>
        <pt x="249" y="448" on="1"/>
        <pt x="249" y="468" on="0"/>
        <pt x="221" y="495" on="0"/>
        <pt x="196" y="509" on="1"/>
        <pt x="179" y="494" on="0"/>
        <pt x="165" y="463" on="0"/>
        <pt x="165" y="448" on="1"/>
        <pt x="165" y="429" on="0"/>
        <pt x="188" y="407" on="0"/>
        <pt x="206" y="407" on="1"/>
        <pt x="226" y="407" on="0"/>
        <pt x="249" y="431" on="0"/>
      </contour>
      <contour>
        <pt x="196" y="622" on="1"/>
        <pt x="196" y="605" on="0"/>
        <pt x="221" y="579" on="0"/>
        <pt x="244" y="566" on="1"/>
        <pt x="269" y="594" on="0"/>
        <pt x="269" y="621" on="1"/>
        <pt x="269" y="638" on="0"/>
        <pt x="250" y="658" on="0"/>
        <pt x="233" y="658" on="1"/>
        <pt x="216" y="658" on="0"/>
        <pt x="196" y="637" on="0"/>
      </contour>
    </TTGlyph>
    <TTGlyph name="eight.sup" xMin="80" yMin="432" xMax="382" yMax="829">
      <component glyphName="eight.num" x="14" y="99" flags="0x204"/>
    </TTGlyph>
</ttFont>
